<?xml version="1.0" encoding="utf-8"?>
<svg xmlns="http://www.w3.org/2000/svg">
<symbol id="account" viewBox="0 0 70 70"><path d="M35 0C15.7 0 0 15.7 0 35s15.7 35 35 35 35-15.7 35-35S54.3 0 35 0zm0 16.1c6.3 0 11.5 5.4 11.5 12s-5.2 12-11.5 12-11.5-5.4-11.5-12 5.2-12 11.5-12zM35 66c-8.1 0-15.8-3.1-21.6-8.8C19.3 49.3 27 45 35 45s15.7 4.3 21.6 12.2C50.8 62.9 43.1 66 35 66z"/>
</symbol>
<symbol id="attachment" viewBox="0 0 90.9 90.9"><path d="M22.1 90.9c-5.7 0-11.2-2.2-15.6-6.4-8.6-8.6-8.6-22.6 0-31.2L53.3 6.5c8.6-8.6 22.6-8.6 31.2 0s8.6 22.6 0 31.2l-5.1-5.1c5.7-5.7 5.7-15.1 0-20.8s-15.1-5.7-20.8 0l-47 46.9c-5.7 5.7-5.7 15.1 0 20.8s15.1 5.7 20.8 0l31.2-31.2c2.2-2.2 2.2-5.7 0-7.7-2-2-5.7-2-7.7 0L29.8 66.3l-5.1-5.1 25.9-25.9c2.4-2.4 5.7-3.9 9-3.9s6.6 1.3 9 3.9c4.8 4.8 5 12.7.4 17.8L37.7 84.5c-4.4 4.4-10.2 6.4-15.6 6.4z"/>
</symbol>
<symbol id="calendar" viewBox="0 0 90 74"><path d="M4 .038c-2.2 0-4 1.8-4 4v66c0 2.2 1.8 4 4 4h70c.5 0 1-.2 1.4-.6l14-14c.4-.4.6-.9.6-1.4v-54c0-2.2-1.8-4-4-4H4zm0 4h82v16H4v-16zm18 4c-2.2 0-4 1.8-4 4s1.8 4 4 4 4-1.8 4-4-1.8-4-4-4zm46 0c-2.2 0-4 1.8-4 4s1.8 4 4 4 4-1.8 4-4-1.8-4-4-4zm-64 16h82v32H76c-2.2 0-4 1.8-4 4v10H4v-46zm7 5v36h52v-16h16v-20H11zm4 4h12v12H15v-12zm16 0h12v12H31v-12zm16 0h12v12H47v-12zm16 0h12v12H63v-12zm-48 16h12v12H15v-12zm16 0h12v12H31v-12zm16 0h12v12H47v-12zm29 11h7.2l-7.2 7.2v-7.2z"/>
</symbol>
<symbol id="career-preferences" viewBox="0 0 67.5 67.5"><path d="M61.2 67.5H6.3c-3.5 0-6.3-2.8-6.3-6.3V6.3C0 2.8 2.8 0 6.3 0h54.8c3.5 0 6.3 2.8 6.3 6.3v54.8c.1 3.6-2.7 6.4-6.2 6.4zM6.3 4.2c-1.2 0-2.1.9-2.1 2.1v54.8c0 1.2.9 2.1 2.1 2.1h54.8c1.2 0 2.1-.9 2.1-2.1V6.3c0-1.2-.9-2.1-2.1-2.1H6.3zm48.5 31.7H12.7c-1.2 0-2.1-.9-2.1-2.1s.9-2.1 2.1-2.1h42.2c1.2 0 2.1.9 2.1 2.1s-1 2.1-2.2 2.1zm0 16.8H12.7c-1.2 0-2.1-.9-2.1-2.1s.9-2.1 2.1-2.1h42.2c1.2 0 2.1.9 2.1 2.1s-1 2.1-2.2 2.1zM19 23.2c-1.2 0-2.1-.9-2.1-2.1v-8.4c0-1.2.9-2.1 2.1-2.1s2.1.9 2.1 2.1v8.4c0 1.2-1 2.1-2.1 2.1zm14.8 16.9c-1.2 0-2.1-.9-2.1-2.1v-8.4c0-1.2.9-2.1 2.1-2.1s2.1.9 2.1 2.1V38c0 1.1-1 2.1-2.1 2.1zM48.5 57c-1.2 0-2.1-.9-2.1-2.1v-8.4c0-1.2.9-2.1 2.1-2.1s2.1.9 2.1 2.1v8.4c0 1.1-.9 2.1-2.1 2.1zm6.3-38H12.7c-1.2 0-2.1-.9-2.1-2.1s.9-2.1 2.1-2.1h42.2c1.2 0 2.1.9 2.1 2.1S56 19 54.8 19z"/>
</symbol>
<symbol id="chat" viewBox="0 0 19.5 15.6"><path d="M7.2.038c-.8 0-1.5.7-1.5 1.5v.7H1.5c-.8 0-1.5.7-1.5 1.5v7.8c0 .8.7 1.5 1.5 1.5h1.1v2c0 .4.3.7.6.7.1 0 .3 0 .4-.1l3.3-2.5h5.4c.7 0 1.3-.5 1.5-1.2l2 1.5c.3.2.7.2.9-.1.1-.1.1-.3.1-.4v-2H18c.8 0 1.5-.7 1.5-1.5v-7.8c0-.8-.7-1.5-1.5-1.5H7.2v-.1zm0 1.3H18c.1 0 .2.1.2.2v7.8c0 .1-.1.2-.2.2h-1.7c-.4 0-.6.3-.6.7v1.3l-1.7-1.3v-6.6c0-.8-.7-1.5-1.5-1.5H6.9v-.7c0-.1.1-.1.3-.1zm-5.7 2.1h10.8c.1 0 .2.1.2.2v7.8c0 .1-.1.2-.2.2H6.7c-.1 0-.3 0-.4.1l-2.4 1.9v-1.3c0-.4-.3-.6-.7-.6H1.5c-.1 0-.2-.1-.2-.2v-7.9c0-.1.1-.2.2-.2zm2.4 3.3c-.5 0-.9.4-.9.9s.4.9.9.9.9-.4.9-.9-.4-.9-.9-.9zm3 0c-.5 0-.9.4-.9.9s.4.9.9.9.9-.4.9-.9-.4-.9-.9-.9zm3.1 0c-.5 0-.9.4-.9.9s.4.9.9.9.9-.4.9-.9-.5-.9-.9-.9z"/>
</symbol>
<symbol id="checkbox" viewBox="0 0 38.2 31.9"><path fill="none" d="M3.2 15.9l9.5 9.6L35.1 3.2"/>
</symbol>
<symbol id="clock" viewBox="0 0 63.5 63"><path d="M41.9 38.9c-.4 0-.8-.1-1.1-.3l-10-5c-.8-.4-1.4-1.3-1.4-2.2V13.9c0-1.4 1.1-2.5 2.5-2.5s2.5 1.1 2.5 2.5v16l8.6 4.3c1.2.6 1.7 2.1 1.1 3.4-.4.8-1.3 1.3-2.2 1.3zm-10 22.5c-16.5 0-30-13.5-30-30s13.5-30 30-30 30 13.5 30 30-13.5 30-30 30zm0-55c-13.8 0-25 11.2-25 25s11.2 25 25 25 25-11.2 25-25-11.2-25-25-25z"/>
</symbol>
<symbol id="close" viewBox="0 0 23.1 23.1"><path d="M19 .4l-7.4 7.4L4.1.4c-.6-.6-1.5-.6-2 0L.4 2.1c-.6.6-.6 1.5 0 2l7.4 7.4L.5 19c-.6.6-.6 1.5 0 2l1.6 1.6c.6.6 1.5.6 2 0l7.4-7.5 7.4 7.4c.6.6 1.5.6 2 0l1.6-1.6c.6-.6.6-1.5 0-2L15 11.5l7.4-7.4c.6-.6.6-1.5 0-2L21 .4c-.5-.5-1.4-.5-2 0z"/>
</symbol>
<symbol id="contact-us" viewBox="0 0 80 80"><path d="M59.5 34.3c-.3.1-.6.3-.9.4-.4.2-.8.3-1.2.3-.5.1-.9-.3-1-.7-.1-.4-.2-.8-.1-1.2.1-.8.3-1.5.4-2.3.4-2.3.9-4.7 1.3-7 .1-.6.3-1.3.2-1.9 0-.8-.5-1.1-1.3-1.1h-6.2c-.3 0-.5 0-.8.1-.4.1-.7.3-.8.7 0 .3.2.6.6.8.3.1.7.2 1.1.2.9.1 1.1.4 1.1 1.3v.4c-.3 2-.7 4.1-1.1 6.1-.2 1.2-.3 2.4-.5 3.5-.3 1.7 1.5 3.3 2.7 3.5.8.1 1.6.2 2.4.2 1.7 0 3.2-.8 4.4-2 .2-.2.4-.5.4-.8.1-.4-.2-.8-.7-.5zM72.6 7.4c-9.8-9.9-25.8-9.9-35.6 0-9.5 9.5-9.8 24.6-1 34.5l.2.2c-.9 2-2.6 4.6-5.2 5.9-.9.4-.7 1.7.3 1.9 2.9.4 7 0 10.8-2.9l.1.1c9.6 5.6 22.3 4.4 30.6-3.9 9.7-10 9.7-26-.2-35.8zM54.9 44.5c-10.7 0-19.3-8.6-19.3-19.3C35.6 14.6 44.2 6 54.9 6c10.7 0 19.3 8.6 19.3 19.3s-8.7 19.2-19.3 19.2zm-7.6 14.3c-2-2-4.5-2-6.6 0l-4.6 4.6c-.4.4-.8.5-1.3.3-.9-.6-2-1-3-1.6-4.4-2.8-8.2-6.4-11.5-10.5-1.6-2-3.1-4.2-4.1-6.6-.2-.5-.2-.8.3-1.2 1.6-1.5 3.1-3 4.6-4.5 2.1-2.1 2.1-4.6 0-6.7l-3.7-3.7c-1.3-1.3-2.5-2.6-3.8-3.8-2-2-4.5-2-6.6 0l-4.6 4.6C.9 31.2.2 32.9 0 34.8-.2 38 .6 41 1.7 44c2.3 6.2 5.8 11.6 10 16.6 5.7 6.8 12.5 12.2 20.5 16 3.6 1.7 7.3 3.1 11.2 3.3 2.8.2 5.2-.6 7.2-2.7 1.3-1.5 2.8-2.8 4.2-4.3 2-2.1 2-4.7 0-6.7-2.6-2.4-5.1-4.9-7.5-7.4zm8.2-39.4c1.8 0 3.2-1.5 3.2-3.2 0-1.8-1.5-3.3-3.2-3.3-1.8 0-3.2 1.5-3.3 3.2 0 1.8 1.5 3.3 3.3 3.3z"/>
</symbol>
<symbol id="dislike" viewBox="0 0 63.5 54.9"><path d="M31.8 54.9c-.8 0-1.6-.3-2.2-.9L4.8 29.2l-.1-.1c-6.5-7-6.2-17.9.8-24.5C8.7 1.7 12.9 0 17.3 0c4.8 0 9.4 2 12.6 5.5l1.9 2 1.9-2C36.9 2 41.5 0 46.3 0c4.4 0 8.6 1.7 11.8 4.7 6.9 6.5 7.3 17.5.8 24.5l-.1.1L34 54c-.6.6-1.4.9-2.2.9zM9.2 24.8l22.6 22.5 22.6-22.5c4.1-4.4 3.9-11.4-.5-15.6-2.1-1.9-4.7-3-7.6-3-3.1 0-5.9 1.2-8 3.5l-4.2 4.4c-.6.6-1.4 1-2.3 1-.9 0-1.7-.4-2.3-1l-4.2-4.4c-2.1-2.2-5-3.5-8-3.5-2.8 0-5.5 1.1-7.6 3-4.4 4.2-4.6 11.2-.5 15.6z"/>
</symbol>
<symbol id="doc-doc" viewBox="0 0 63.2 75.6"><path d="M52.4 60.1H40.8v10.6l-.1.1H6.1V5.2h46.3v16.1h5V2.7c0-1.4-1.1-2.5-2.5-2.5H3.6C2.2.2 1.1 1.3 1.1 2.7v70.6c0 1.4 1.1 2.5 2.5 2.5h38c.6 0 1.2-.2 1.7-.6l13.2-11.8c.5-.5.8-1.1.8-1.8V45.9h-5l.1 14.2z"/><path d="M23.2 23.7v19.9h41.1V23.7H23.2zm13.5 13.4c-1.1.9-2.8 1.3-4.8 1.3-1.2 0-2.1-.1-2.7-.2V28.1c.9-.1 2-.2 3.2-.2 2 0 3.3.4 4.3 1.1 1.1.8 1.8 2.1 1.8 3.9-.1 2-.8 3.4-1.8 4.2zm7.7 1.5c-3.1 0-4.9-2.3-4.9-5.3 0-3.1 2-5.5 5.1-5.5 3.2 0 5 2.4 5 5.3 0 3.4-2.1 5.5-5.2 5.5zm12.1-2c.7 0 1.5-.2 2-.3l.4 1.8c-.4.2-1.4.4-2.7.4-3.6 0-5.5-2.2-5.5-5.2 0-3.6 2.5-5.6 5.7-5.6 1.2 0 2.2.2 2.6.5l-.5 1.9c-.5-.2-1.1-.4-2-.4-1.9 0-3.3 1.1-3.3 3.5-.1 2.1 1.2 3.4 3.3 3.4z"/><path d="M44.5 29.6c-1.6 0-2.5 1.5-2.5 3.6 0 2 1 3.5 2.5 3.5 1.6 0 2.5-1.5 2.5-3.6.1-1.8-.8-3.5-2.5-3.5zM32.7 29.7c-.5 0-.9 0-1.1.1v6.8h.8c2.1 0 3.5-1.2 3.5-3.7.1-2.1-1.2-3.2-3.2-3.2z"/>
</symbol>
<symbol id="doc-pdf" viewBox="0 0 63.2 75.6"><path d="M51.9 59.8H40.3v10.6l-.1.1H5.6V4.9h46.3V21h5V2.4c0-1.4-1.1-2.5-2.5-2.5H3.1C1.8-.1.6 1 .6 2.4V73c0 1.4 1.1 2.5 2.5 2.5h38c.6 0 1.2-.2 1.7-.6L56 63.1c.5-.5.8-1.1.8-1.8V45.6h-5l.1 14.2z"/><path d="M43.2 30c-.6 0-.9 0-1.1.1v7.2h.9c2.3 0 3.7-1.2 3.7-3.9 0-2.2-1.3-3.4-3.5-3.4zM33.6 30c-.5 0-.9 0-1 .1v3.3c.2 0 .5.1.8.1 1.3 0 2.2-.7 2.2-1.8-.1-1.1-.8-1.7-2-1.7z"/><path d="M22.8 23.4v19.9h41.1V23.4H22.8zM37 34.2c-.9.8-2.1 1.2-3.6 1.2h-.9v4H30V28.3c.8-.1 1.9-.2 3.4-.2s2.6.3 3.4.9c.7.6 1.2 1.5 1.2 2.6 0 1-.4 2-1 2.6zm10.5 3.7c-1.2 1-2.9 1.4-5.1 1.4-1.3 0-2.2-.1-2.8-.2V28.3c.9-.1 2.1-.2 3.4-.2 2.1 0 3.5.4 4.5 1.2 1.2.9 1.9 2.2 1.9 4.2 0 2.1-.8 3.5-1.9 4.4zm10.3-7.7h-4.3v2.5h4v2h-4v4.5H51v-11h6.8v2z"/>
</symbol>
<symbol id="doc-rtf" viewBox="0 0 63.2 75.6"><path d="M52.7 60.1H41.1v10.6l-.1.1H6.4V5.2h46.3v16.1h5V2.7c0-1.4-1.1-2.5-2.5-2.5H3.9C2.5.2 1.4 1.3 1.4 2.7v70.6c0 1.4 1.1 2.5 2.5 2.5h38c.6 0 1.2-.2 1.7-.6l13.2-11.8c.5-.5.8-1.1.8-1.8V45.9h-5l.1 14.2z"/><path d="M23.5 23.7v19.9h41.1V23.7H23.5zm13.6 14.8c-.2-.3-.4-1.2-.7-2.5-.3-1.3-.7-1.7-1.7-1.7H34v4.2h-2.4V28c.8-.1 1.9-.2 3.2-.2 1.6 0 2.7.2 3.5.8.6.5 1 1.3 1 2.2 0 1.4-1 2.3-1.9 2.6.7.3 1.2 1 1.4 2 .3 1.2.7 2.6.9 3h-2.6zm11.3-8.6h-2.9v8.7H43v-8.7h-2.9v-2h8.2v2zm7.8-.1h-4.1v2.4H56v2h-3.8v4.3h-2.4V27.8h6.5v2z"/><path d="M35 29.5c-.6 0-.9 0-1.1.1v3h1c1.2 0 1.9-.6 1.9-1.5 0-1-.7-1.5-1.8-1.6z"/>
</symbol>
<symbol id="doc-txt" viewBox="0 0 63.2 75.6"><path d="M51.3 59.9H39.7v10.6l-.1.1H5V5h46.3v16.1h5V2.5c0-1.4-1.1-2.5-2.5-2.5H2.5C1.1 0 0 1.1 0 2.5v70.6c0 1.4 1.1 2.5 2.5 2.5h38c.6 0 1.2-.2 1.7-.6l13.2-11.8c.5-.5.8-1.1.8-1.8V45.7h-5l.1 14.2z"/><path d="M22.1 23.5v19.9h41.1V23.5H22.1zm15 7.1h-3v8.8h-2.5v-8.8h-2.9v-2.1h8.4v2.1zm7.4 8.8l-1-2c-.4-.8-.7-1.3-1-2-.2.6-.5 1.2-.8 2l-.9 2H38l3.1-5.5-3-5.4h2.8l1 2c.3.7.6 1.2.8 1.8.3-.7.5-1.2.7-1.8l.9-2h2.8L44 33.8l3.2 5.6h-2.7zm11.8-8.8h-3v8.8h-2.5v-8.8h-2.9v-2.1h8.4v2.1z"/>
</symbol>
<symbol id="edit" viewBox="0 0 28.9 28.9"><path d="M21.833 1.917l1.909-1.91 5.162 5.163-1.91 1.909zM1.562 22.167l18.95-18.95 5.162 5.161-18.95 18.95zM.6 23.7L0 28.9l5.2-.6z"/>
</symbol>
<symbol id="empty" viewBox="0 0 86 84"><path d="M5 .038c-2.8 0-5 2.2-5 5s2.2 5 5 5v48c0 1.1.9 2 2 2h35v6.6l-14.6 15.6c-.5.3-.5 1.1-.1 1.5.4.4 1.2.3 1.5-.2l13.2-14v6.5c0 .6.4 1 1 1s1-.4 1-1v-6.5l13.2 14c.3.5 1.1.6 1.5.2.4-.4.4-1.2-.1-1.5L44 66.638v-6.6h35c1.1 0 2-.9 2-2v-48c2.8 0 5-2.2 5-5s-2.2-5-5-5H5zm0 2h76c1.7 0 3 1.3 3 3s-1.3 3-3 3H5c-1.7 0-3-1.3-3-3s1.3-3 3-3zm2 8h72v48H7v-48zm36 7c-9.4 0-17 7.6-17 17s7.6 17 17 17 17-7.6 17-17-7.6-17-17-17zm0 2c8.3 0 15 6.7 15 15s-6.7 15-15 15-15-6.7-15-15 6.7-15 15-15zm0 4c-.6 0-1 .4-1 1v10c0 .6.4 1 1 1h9c.6 0 1-.4 1-1s-.4-1-1-1h-8v-9c0-.6-.4-1-1-1z"/>
</symbol>
<symbol id="error" viewBox="0 0 86.9 77.6"><path d="M43.4 56.4c-2.7 0-4.9 2.2-4.9 4.9s2.2 4.9 4.9 4.9 4.9-2.2 4.9-4.9-2.2-4.9-4.9-4.9zM41.8 53h3.3c.6 0 1-.4 1-1l2-27.5c0-.6-.4-1-1-1h-7.3c-.6 0-1 .4-1 1l2 27.5c0 .5.5 1 1 1zm43.6 10.6L51.2 4.5C49.6 1.7 46.6 0 43.4 0s-6.2 1.7-7.8 4.5L1.2 64.1c-1.6 2.8-1.6 6.2 0 9s4.6 4.5 7.8 4.5H77.9c5 0 9-4 9-9 0-1.8-.5-3.5-1.5-5zm-7.5 10H9c-1.8 0-3.4-1-4.3-2.5s-.9-3.5 0-5L39.1 6.5C40 5 41.6 4 43.4 4s3.4 1 4.3 2.5l34.2 59.2.1.1c.6.8.9 1.8.9 2.8 0 2.8-2.3 5-5 5z"/>
</symbol>
<symbol id="facebook" viewBox="0 0 12.1 26"><path d="M2.7 19.5v-6.1c0-.3-.1-.5-.4-.4H.4c-.3 0-.4-.1-.3-.3V8.9c0-.2.1-.3.3-.3h1.9c.4 0 .5-.1.4-.5V5.2c0-1.2.3-2.3 1-3.2C4.6.7 5.9.1 7.4 0s3 0 4.5 0c.2 0 .3.1.3.3v3.9c0 .2-.1.3-.3.3H9.7c-1 0-1.5.5-1.6 1.4v2.3c0 .3.2.3.3.3h3.3c.3 0 .4.1.4.4-.1 1.3-.3 2.6-.4 3.8 0 .3-.2.3-.4.3H8.7c-.6 0-.6-.1-.6.5v11.9c0 .5-.1.6-.5.6H3.1c-.4 0-.5-.1-.5-.5.1-2 .1-4 .1-6z"/>
</symbol>
<symbol id="like" viewBox="0 0 63.5 54.9"><path d="M58.1 4.7C54.9 1.7 50.7 0 46.3 0c-4.8 0-9.4 2-12.6 5.5l-1.9 2-1.9-2C26.6 2 22 0 17.3 0 12.9 0 8.7 1.7 5.4 4.7c-6.9 6.5-7.3 17.5-.8 24.5l.1.1L29.6 54c.6.6 1.4.9 2.2.9s1.6-.3 2.2-.9l24.8-24.7.1-.1c6.5-7 6.2-18-.8-24.5z"/>
</symbol>
<symbol id="linkedin" viewBox="0 0 20.2 20.1"><path d="M.3 6.7h4.2v13.4H.3V6.7zM2.4 0c1.3 0 2.4 1.1 2.4 2.4S3.7 4.8 2.4 4.8 0 3.8 0 2.4C0 1.1 1.1 0 2.4 0M7.1 6.7h4v1.8h.1c.6-1.1 1.9-2.2 4-2.2 4.2 0 5 2.8 5 6.4v7.4H16v-6.5c0-1.6 0-3.6-2.2-3.6s-2.5 1.7-2.5 3.5v6.6H7.1V6.7z"/>
</symbol>
<symbol id="mail" viewBox="0 0 17.8 11.7"><path d="M1.4.038c-.8 0-1.4.6-1.4 1.4v8.9c0 .8.7 1.4 1.4 1.4h14.9c.8 0 1.4-.6 1.4-1.4v-8.9c0-.8-.7-1.4-1.4-1.4H1.4zm.8 1.2h13.4l-6.5 5.8c-.1.1-.3.1-.4 0l-6.5-5.8zm-1 .7l4.5 4.1-4.5 3.8v-7.9zm15.4 0v7.8l-4.5-3.8 4.5-4zm-9.9 4.9l1.2 1.1c.6.5 1.5.5 2 0l1.2-1.1 4.4 3.7H2.2l4.5-3.7z"/>
</symbol>
<symbol id="phone-i" viewBox="0 0 80 80"><path d="M59.5 34.3c-.3.1-.6.3-.9.4-.4.2-.8.3-1.2.3-.5.1-.9-.3-1-.7-.1-.4-.2-.8-.1-1.2.1-.8.3-1.5.4-2.3.4-2.3.9-4.7 1.3-7 .1-.6.3-1.3.2-1.9 0-.8-.5-1.1-1.3-1.1h-6.2c-.3 0-.5 0-.8.1-.4.1-.7.3-.8.7 0 .3.2.6.6.8.3.1.7.2 1.1.2.9.1 1.1.4 1.1 1.3v.4c-.3 2-.7 4.1-1.1 6.1-.2 1.2-.3 2.4-.5 3.5-.3 1.7 1.5 3.3 2.7 3.5.8.1 1.6.2 2.4.2 1.7 0 3.2-.8 4.4-2 .2-.2.4-.5.4-.8.1-.4-.2-.8-.7-.5zM72.6 7.4c-9.8-9.9-25.8-9.9-35.6 0-9.5 9.5-9.8 24.6-1 34.5l.2.2c-.9 2-2.6 4.6-5.2 5.9-.9.4-.7 1.7.3 1.9 2.9.4 7 0 10.8-2.9l.1.1c9.6 5.6 22.3 4.4 30.6-3.9 9.7-10 9.7-26-.2-35.8zM54.9 44.5c-10.7 0-19.3-8.6-19.3-19.3C35.6 14.6 44.2 6 54.9 6c10.7 0 19.3 8.6 19.3 19.3s-8.7 19.2-19.3 19.2zm-7.6 14.3c-2-2-4.5-2-6.6 0l-4.6 4.6c-.4.4-.8.5-1.3.3-.9-.6-2-1-3-1.6-4.4-2.8-8.2-6.4-11.5-10.5-1.6-2-3.1-4.2-4.1-6.6-.2-.5-.2-.8.3-1.2 1.6-1.5 3.1-3 4.6-4.5 2.1-2.1 2.1-4.6 0-6.7l-3.7-3.7c-1.3-1.3-2.5-2.6-3.8-3.8-2-2-4.5-2-6.6 0l-4.6 4.6C.9 31.2.2 32.9 0 34.8-.2 38 .6 41 1.7 44c2.3 6.2 5.8 11.6 10 16.6 5.7 6.8 12.5 12.2 20.5 16 3.6 1.7 7.3 3.1 11.2 3.3 2.8.2 5.2-.6 7.2-2.7 1.3-1.5 2.8-2.8 4.2-4.3 2-2.1 2-4.7 0-6.7-2.6-2.4-5.1-4.9-7.5-7.4zm8.2-39.4c1.8 0 3.2-1.5 3.2-3.2 0-1.8-1.5-3.3-3.2-3.3-1.8 0-3.2 1.5-3.3 3.2 0 1.8 1.5 3.3 3.3 3.3z"/>
</symbol>
<symbol id="phone" viewBox="0 0 18.9 18.8"><path d="M2.5 9.4c1.7 2.7 4.1 5.1 6.8 6.8l3.3 2.1c.5.3 1.1.5 1.6.5.3 0 .6 0 .8-.1l1.2-.3c1-.3 1.8-1.1 2.1-2.1l.5-1.8c.2-.6-.1-1.3-.8-1.6l-3.6-1.5c-.5-.2-1.1-.1-1.5.3l-1.5 1.6c-2.3-1.6-4.4-3.7-5.9-6L7 5.7c.4-.4.5-1 .2-1.5L5.6.7C5.3.1 4.6-.2 4 .1L2.4.7C1.5 1 .9 1.7.6 2.5l-.4 1c-.3.9-.2 1.9.3 2.7l2 3.2zM1.3 4l.4-1.1c.2-.5.6-.9 1.1-1.1l1.6-.6h.1l1.6 3.4v.1L4.4 6.6c-.2.2-.3.6-.1.8 1.7 2.8 4.1 5.3 6.9 7.1.2.1.6.1.8-.1l1.9-2h.1l3.6 1.5s.1.1 0 .1l-.5 1.8c-.2.6-.6 1.1-1.2 1.2l-1.2.3c-.5.1-1 0-1.5-.2L10 15.2c-2.6-1.6-4.8-3.8-6.4-6.4l-2-3.2c-.4-.5-.5-1.1-.3-1.6z"/>
</symbol>
<symbol id="photo" viewBox="0 0 70 70"><path d="M35 0C15.7 0 0 15.7 0 35s15.7 35 35 35 35-15.7 35-35S54.3 0 35 0zm0 16.1c6.3 0 11.5 5.4 11.5 12s-5.2 12-11.5 12-11.5-5.4-11.5-12 5.2-12 11.5-12zM35 66c-8.1 0-15.8-3.1-21.6-8.8C19.3 49.3 27 45 35 45s15.7 4.3 21.6 12.2C50.8 62.9 43.1 66 35 66z"/>
</symbol>
<symbol id="profile-card" viewBox="0 0 38.1 33.6"><path d="M21.7 20.1h7.6v2h-7.6zM21.7 16.5h9.1v2h-9.1zM21.7 23.6h3.8v2h-3.8z"/><path d="M32.7 2.5H5.4c-3 0-5.4 2.7-5.4 6v16.6c0 3.3 2.4 6 5.4 6h27.3c3 0 5.4-2.7 5.4-6V8.5c.1-3.3-2.4-6-5.4-6zM5.4 4.6h27.3c1.8 0 3.3 1.8 3.3 3.9v1H2.1v-1c0-2.1 1.5-3.9 3.3-3.9zM32.7 29H5.4c-1.8 0-3.3-1.8-3.3-3.9V11.6H36v13.5c0 2.1-1.5 3.9-3.3 3.9z"/><path d="M12.9 13.7c-1.7 0-3.1 1.4-3.1 3.1s1.4 3.1 3.1 3.1 3.1-1.4 3.1-3.1-1.4-3.1-3.1-3.1zM15.7 21H10c-1.5 0-2.7 1.2-2.7 2.7v2.5h11.1v-2.5c0-1.5-1.2-2.7-2.7-2.7z"/>
</symbol>
<symbol id="profile-career-preferences" viewBox="0 0 31.1 31.9"><path d="M27.8 31.9H3.3c-1.8 0-3.3-1.5-3.3-3.3V3.3C0 1.5 1.5 0 3.3 0h24.5c1.8 0 3.3 1.5 3.3 3.3v25.3c0 1.8-1.5 3.3-3.3 3.3zM3.3 2C2.6 2 2 2.6 2 3.3v25.3c0 .7.6 1.3 1.3 1.3h24.5c.7 0 1.3-.6 1.3-1.3V3.3c0-.7-.6-1.3-1.3-1.3H3.3z"/><path d="M6.7 9h17.9c.6 0 1-.4 1-1s-.4-1-1-1H6.7c-.6 0-1 .4-1 1 0 .5.4 1 1 1z"/><path d="M10.9 9.8V6.2c0-.6-.4-1-1-1s-1 .4-1 1v3.6c0 .6.4 1 1 1s1-.5 1-1zM6.7 17.4h17.9c.6 0 1-.4 1-1s-.4-1-1-1H6.7c-.6 0-1 .4-1 1 0 .5.4 1 1 1z"/><path d="M15.5 18.2v-3.6c0-.6-.4-1-1-1s-1 .4-1 1v3.6c0 .6.4 1 1 1s1-.5 1-1zM6.7 25.2h17.9c.6 0 1-.4 1-1s-.4-1-1-1H6.7c-.6 0-1 .4-1 1 0 .5.4 1 1 1z"/><path d="M10.9 26v-3.6c0-.6-.4-1-1-1s-1 .4-1 1V26c0 .6.4 1 1 1s1-.5 1-1z"/>
</symbol>
<symbol id="profile-documents" viewBox="0 0 38.1 33.6"><path d="M14.6 10.9H9.4c-.6 0-1.1-.5-1.1-1.1V5.3c0-.6.5-1.1 1.1-1.1h5.2c.6 0 1.1.5 1.1 1.1v4.5c0 .6-.5 1.1-1.1 1.1zm-5-1.3h4.8v-4H9.6v4zM23 13.8H9c-.3 0-.6-.3-.6-.6s.3-.6.6-.6h14c.3 0 .6.3.6.6s-.2.6-.6.6zM23 16.7H9c-.3 0-.6-.3-.6-.6s.3-.6.6-.6h14c.3 0 .6.3.6.6s-.2.6-.6.6zM23 19.6H9c-.3 0-.6-.3-.6-.6s.3-.6.6-.6h14c.3 0 .6.3.6.6s-.2.6-.6.6zM17.4 22.4H9c-.3 0-.6-.3-.6-.6s.3-.6.6-.6h8.4c.3 0 .6.3.6.6s-.3.6-.6.6z"/><path d="M31.8 6.2h-1.4V5c0-.9-.8-1.7-1.7-1.7h-1.4V2c0-.9-.8-1.7-1.7-1.7H6.4c-1 0-1.7.8-1.7 1.7v23.7c0 .9.8 1.7 1.7 1.7h1.4v1.3c0 .9.8 1.7 1.7 1.7h1.4v1.3c0 .9.8 1.7 1.7 1.7h19.3c.9 0 1.7-.8 1.7-1.7V7.9c-.1-.9-.9-1.7-1.8-1.7zM9.6 26.7h16.1c.6 0 1.1-.5 1.1-1.1V5.1h1.8v23.3h-19v-1.7zm-3-1.2V2.2h18.9v23.3H6.6zm6.1 4.2h16.1c.6 0 1.1-.5 1.1-1.1V8.1h1.8v23.3h-19v-1.7z"/>
</symbol>
<symbol id="profile-education-work" viewBox="0 0 38.1 33.6"><path d="M13.9 2.838c-1.5 0-2.8 1.3-2.8 2.8v1.2H3.9c-1.5 0-2.8 1.3-2.8 2.8v18.3c0 1.5 1.3 2.8 2.8 2.8h30.2c1.5 0 2.8-1.3 2.8-2.8v-18.3c0-1.5-1.3-2.8-2.8-2.8H27v-1.2c0-1.5-1.3-2.8-2.8-2.8H13.9zm0 2.4h10.3c.2 0 .4.2.4.4v1.2H13.5v-1.2c0-.2.1-.4.4-.4zm-10 4h30.2c.2 0 .4.2.4.4v2.4c-3.6 2.6-9.2 4.4-15.5 4.4s-12-1.8-15.5-4.4v-2.4c0-.2.2-.4.4-.4zm-.4 5.7c3.1 1.9 7.1 3.2 11.5 3.7v1.8c0 1.1.9 2 2 2h4c1.1 0 2-.9 2-2v-1.8c4.4-.5 8.4-1.8 11.5-3.7v13c0 .2-.2.4-.4.4H3.9c-.2 0-.4-.2-.4-.4v-13zm14 3.8h3.2v1.2h-3.2v-1.2z"/>
</symbol>
<symbol id="profile-education" viewBox="0 0 36 28"><path d="M12.8 0A2.82 2.82 0 0 0 10 2.8V4H2.8A2.82 2.82 0 0 0 0 6.8v18.4C0 26.73 1.27 28 2.8 28h30.4c1.53 0 2.8-1.27 2.8-2.8V6.8C36 5.27 34.73 4 33.2 4H26V2.8C26 1.27 24.73 0 23.2 0zm0 2.4h10.4c.24 0 .4.16.4.4V4H12.4V2.8c0-.24.16-.4.4-.4zm-10 4h30.4c.24 0 .4.16.4.4v2.42c-3.58 2.61-9.24 4.38-15.6 4.38-6.37 0-12.02-1.77-15.6-4.38V6.8c0-.24.16-.4.4-.4zm-.4 5.7C5.53 14 9.53 15.3 14 15.79v1.81c0 1.09.91 2 2 2h4c1.09 0 2-.91 2-2v-1.81a28.49 28.49 0 0 0 11.6-3.69v13.1c0 .24-.16.4-.4.4H2.8c-.24 0-.4-.16-.4-.4zm14 3.88a38.53 38.53 0 0 0 3.2 0v1.22h-3.2z"/>
</symbol>
<symbol id="profile-eeoc" viewBox="0 0 38.1 33.6"><path d="M15.4 11.3l-1-.9-2 1.9-1-1-1 1 2 2zM16.3 10.5h11.2v1.4H16.3zM16.3 13.3h8.4v1.4h-8.4zM15.4 18.3l-1-1-2 2-1-1-1 1 2 2zM16.3 17.5h11.2v1.4H16.3zM16.3 20.3h8.4v1.4h-8.4zM15.4 25.3l-1-1-2 2-1-1-1 1 2 2zM16.3 24.5h11.2v1.4H16.3zM16.3 27.3h8.4v1.4h-8.4z"/><path d="M8.6 33.6h21c1.5 0 2.8-1.3 2.8-2.8V4.9c0-1.5-1.3-2.8-2.8-2.8H26c-.3-.8-1.1-1.4-2-1.4h-3.1c-.5-.4-1.2-.7-1.8-.7-.7 0-1.3.3-1.8.7h-3.1c-.9 0-1.7.6-2 1.4H8.6C7 2.1 5.8 3.4 5.8 4.9v25.9c0 1.6 1.2 2.8 2.8 2.8zm4.9-30.8c0-.4.3-.7.7-.7h3.7c.2-.4.7-.7 1.2-.7s1 .3 1.2.7H24c.4 0 .7.3.7.7v2.1c0 .4-.3.7-.7.7h-9.8c-.4 0-.7-.3-.7-.7V2.8zM7.9 4.9c0-.4.3-.7.7-.7h3.5v.7c0 1.2.9 2.1 2.1 2.1H24c1.2 0 2.1-.9 2.1-2.1v-.7h3.5c.4 0 .7.3.7.7v25.9c0 .4-.3.7-.7.7h-21c-.4 0-.7-.3-.7-.7V4.9z"/>
</symbol>
<symbol id="profile-references" viewBox="0 0 38.1 33.6"><path d="M34.3 2H4.6C3.7 2 3 2.7 3 3.6v20.8c0 .9.7 1.6 1.6 1.6h4.2v3.9c0 1.7.3 1.4.6 1.4l7.6-5.2h17.4c.9 0 1.6-.7 1.6-1.6V3.6c-.1-.8-.8-1.6-1.7-1.6zm-.5 21.8H16.4c-.3 0-.7.1-.9.3L11 27.5v-2.1c0-.9-.7-1.6-1.6-1.6H5.2V4.2h28.5l.1 19.6z"/><path d="M11.8 11.2c0-.5.4-.9.9-.9h13.4c.5 0 .9.4.9.9s-.4.9-.9.9H12.7c-.5 0-.9-.4-.9-.9zm.9 6.7h13.4c.5 0 .9-.4.9-.9s-.4-.9-.9-.9H12.7c-.5 0-.9.4-.9.9s.4.9.9.9z"/>
</symbol>
<symbol id="send" viewBox="0 0 64.3 64.2"><path d="M63.6.6C63 0 62.1-.2 61.4.2L1.2 26.9c-.8.3-1.3 1.1-1.2 2 .1.9.7 1.6 1.5 1.8l25.6 6.4 6.4 25.6c.2.8.9 1.4 1.8 1.5h.2c.8 0 1.5-.5 1.8-1.2L64.1 2.8c.3-.8.1-1.6-.5-2.2z"/>
</symbol>
<symbol id="star-dislike" viewBox="0 0 30.8 29.3"><path d="M30.8 11.2L20.2 9.6 15.4 0l-4.7 9.6L0 11.2l7.7 7.5-1.8 10.6 9.5-5 9.6 5-1.9-10.6 7.7-7.5zM15.4 22.1l-6.9 3.6L9.8 18l-5.5-5.4 7.7-1.2 3.4-6.9 3.5 6.9 7.7 1.2-5.7 5.4 1.4 7.6-6.9-3.5z"/>
</symbol>
<symbol id="star" viewBox="0 0 30.8 29.3"><path d="M15.4 24.3l-9.5 5 1.8-10.6L0 11.2l10.7-1.6L15.4 0l4.8 9.6 10.6 1.6-7.7 7.5L25 29.3z"/>
</symbol>
<symbol id="trash" viewBox="0 0 52 64"><path d="M34 2v6h16c1.1 0 2 .9 2 2v4c0 1.1-.9 2-2 2H2c-1.1 0-2-.9-2-2v-4c0-1.1.9-2 2-2h16V2c0-1.1.9-2 2-2h12c1.1 0 2 .9 2 2zM10 64h32c3.3 0 6-2.7 6-6V22H4v36c0 3.3 2.7 6 6 6z"/>
</symbol>
<symbol id="twitter" viewBox="0 0 21 17"><path d="M6.6 17c7.9 0 12.2-6.6 12.2-12.2v-.6c.9-.6 1.6-1.3 2.2-2.2-.8.3-1.6.6-2.5.7.9-.5 1.6-1.4 1.9-2.4-.8.5-1.8.9-2.7 1C16.9.5 15.8 0 14.5 0c-2.4 0-4.3 1.9-4.3 4.3 0 .3 0 .7.1 1C6.7 5.1 3.6 3.4 1.5.8c-.4.6-.6 1.4-.6 2.1 0 1.5.8 2.8 1.9 3.6-.7 0-1.4-.2-2-.5v.1c0 2.1 1.5 3.8 3.5 4.2-.4.1-.7.2-1.1.2-.3 0-.5 0-.8-.1.5 1.7 2.1 3 4 3C4.9 14.5 3 15.2 1 15.2c-.3 0-.7 0-1-.1C1.9 16.3 4.2 17 6.6 17"/>
</symbol>
<symbol id="updates-call" viewBox="0 0 55 54.5"><path d="M39.3 11.6c1.2 0 2.2-1 2.2-2.2V2.2c0-1.2-1-2.2-2.2-2.2-1.2 0-2.2 1-2.2 2.2v7.2c0 1.3 1 2.2 2.2 2.2zm-23.6 0c1.2 0 2.2-1 2.2-2.2V2.2c0-1.2-1-2.2-2.2-2.2-1.2 0-2.2 1-2.2 2.2v7.2c0 1.3.9 2.2 2.2 2.2zm36.4-6.2h-7.9v4.1c0 2.7-2.2 4.8-4.8 4.8-2.7 0-4.8-2.2-4.8-4.8V5.4h-14v4.1c0 2.7-2.2 4.8-4.8 4.8S11 12.1 11 9.5V5.4H2.9C1.3 5.4 0 6.7 0 8.3v12h55v-12c0-1.6-1.3-2.9-2.9-2.9zM0 51.6c0 1.6 1.3 2.9 2.9 2.9H52c1.6 0 2.9-1.3 2.9-2.9V22.7H0v28.9zm40.6-21.9h7.5v7.5h-7.5v-7.5zm0 10.7h7.5v7.5h-7.5v-7.5zM29.4 29.7h7.5v7.5h-7.5v-7.5zm0 10.7h7.5v7.5h-7.5v-7.5zM18.1 29.7h7.5v7.5h-7.5v-7.5zm0 10.7h7.5v7.5h-7.5v-7.5zM6.8 29.7h7.5v7.5H6.8v-7.5zm0 10.7h7.5v7.5H6.8v-7.5z"/>
</symbol>
<symbol id="updates-jobs" viewBox="0 0 82 76.8"><path d="M50.6 56.6H31.4V49h-27v19.8c0 4.4 3.6 8 8 8h57.1c4.4 0 8-3.6 8-8V49H50.6v7.6z"/><path d="M35.4 41.4h11.2v11.2H35.4z"/><path d="M25 10.5H8c-4.4 0-8 3.6-8 8v26.3h31.4v-7.4h19.2v7.4H82V18.5c0-4.4-3.6-8-8-8H57V7v-.5C56.7 2.9 53.7 0 50 0H32c-3.7 0-6.7 2.9-7 6.5v4zM32 4h18c1.7 0 3 1.3 3 3v5.5H29V7c0-1.7 1.3-3 3-3z"/>
</symbol>
<symbol id="updates-messages" viewBox="0 0 86.3 66.5"><path d="M3.6 54.9h4.3v8.6c0 3.2 1.7 3.9 3.8 1.4l8.4-10H57c1.9 0 3.6-1.7 3.6-3.7v-8.5H33.2c-4.2 0-7.9-3.6-7.9-7.8V12.3H3.6c-1.9 0-3.6 1.4-3.6 3.4v35.6c0 1.9 1.7 3.6 3.6 3.6z"/><path d="M84.2 0H33c-1.1 0-2 .8-2 1.9v33.2c0 1.1.9 2.1 2 2.1h31.4l11 13.1c2.1 2.5 3.8 1.9 3.8-1.4V37.2h5.1c1.1 0 2-1 2-2.1V2c0-1.1-.9-2-2.1-2 .1 0 .1 0 0 0z"/>
</symbol>
<symbol id="updates-profile" viewBox="0 0 64 88"><path d="M32 .038c-3.7 0-6.9 2.5-7.8 6H16v10h32v-10h-8.3c-.8-3.5-4-6-7.7-6zm-32 10v78h64v-78H50v6c0 1.1-.9 2-2 2H16c-1.1 0-2-.9-2-2v-6H0zm20 14c2.2 0 4 1.8 4 4s-1.8 4-4 4-4-1.8-4-4 1.8-4 4-4zm15 8h17c1.1 0 2 .9 2 2s-.9 2-2 2H35c-1.1 0-2-.9-2-2s.9-2 2-2zm-15 1c3.7 0 8 1.4 8 7H12c0-5.6 4.3-7 8-7zm-8 13h40c1.1 0 2 .9 2 2s-.9 2-2 2H12c-1.1 0-2-.9-2-2s.9-2 2-2zm0 14h40c1.1 0 2 .9 2 2s-.9 2-2 2H12c-1.1 0-2-.9-2-2s.9-2 2-2zm0 14h40c1.1 0 2 .9 2 2s-.9 2-2 2H12c-1.1 0-2-.9-2-2s.9-2 2-2z"/>
</symbol>
<symbol id="updates-submit" viewBox="0 0 51 44.7"><path d="M0 0v44.7h44.7V21.8l-6.4 6.3v10.2H6.4V6.4h22.9L35.7 0z"/><path d="M44.7 0L25.5 19.1l-6.4-6.3-6.3 6.3 12.7 12.8L51 6.4z"/>
</symbol>
<symbol id="edit-pencil-icons" viewBox="0 0 612 612"><path d="M605.325,165.45L446.53,6.655C442.056,2.18,436.184,0,430.312,0s-11.743,2.18-16.218,6.675L0,420.75V612h191.25 l414.075-414.075c4.494-4.495,6.675-10.366,6.675-16.237C612,175.797,609.819,169.945,605.325,165.45z M57.375,554.625v-93.311 l93.311,93.311H57.375z M201.979,524.79L87.229,410.04l265.436-265.455l114.75,114.75L201.979,524.79z M507.979,218.79 l-114.75-114.75l37.083-37.103l114.75,114.75L507.979,218.79z"/>
</symbol>
<symbol id="eye-icon" viewBox="0 0 25 28" width="100%" height="100%"><path d="M12 8c-5 0-11 6-11 6s6 6 11 6 11-6 11-6-6-6-11-6zm0 10c-2.2 0-4-1.8-4-4s1.8-4 4-4 4 1.8 4 4-1.8 4-4 4z"></path>
	<circle cx="12" cy="14" r="2"></circle>
</symbol>
<symbol id="chat-more-option" viewBox="0 0 408 408"><path d="M204,102c28.05,0,51-22.95,51-51S232.05,0,204,0s-51,22.95-51,51S175.95,102,204,102z M204,153c-28.05,0-51,22.95-51,51    s22.95,51,51,51s51-22.95,51-51S232.05,153,204,153z M204,306c-28.05,0-51,22.95-51,51s22.95,51,51,51s51-22.95,51-51    S232.05,306,204,306z"/>
</symbol>
</svg>