<?xml version="1.0" encoding="utf-8"?>
<svg xmlns="http://www.w3.org/2000/svg">
<symbol id="add-job" viewBox="0 0 81.7 96.5"><path fill="#08618D" d="M79.4 72.7c-1.1-7.2-5.2-11.8-12.1-13.8-5.4-1.7-14.2-4.5-15-4.9-.5-.3-.8-2.2-.7-4.1 2.8-2.8 4.8-6.5 5.4-10.3 1.3-.3 2.6-1.7 3.4-3.6.6-1.5.7-2.9.4-4 1-2.1 7.6-18.4-8.1-28.5C47.3 0 40.4-1 34.3.8c-5.1 1.5-9.1 4.6-11.2 9-4.7 3.1-5.7 13.4-2.2 21.7-.5 1.2-.5 2.8.2 4.6.7 1.9 2 3.2 3.4 3.6.6 3.9 2.7 7.7 5.6 10.5 0 1.8-.3 3.6-.7 3.9-.8.5-9.6 3.3-15 4.9-7 2-11.1 6.6-12.2 13.9L0 89.8c-.1 1.8.4 3.4 1.6 4.7 1.2 1.3 2.8 2 4.6 2H75.4c1.8 0 3.4-.7 4.6-2 1.2-1.3 1.7-2.9 1.6-4.8l-2.2-17z"/><path fill="#1DBFF0" d="M36.8 86.4L26.4 71.8l3.4-5.3-4.5-4.8 2.5-3.4z"/><path fill="#FFF" d="M32 51.9c2.6 1.9 5.6 3.2 8.5 3.2h.4c3 0 6-1.3 8.7-3.3.1.9.2 1.9.6 2.8l-8 8.8h-2.8l-8-8.8c.4-.9.6-1.9.6-2.7z"/><path fill="#C5E6EF" d="M45.3 78.6l-.9-11.1 3.4 3.3zM34 70.7l3.4-3.4-.9 11.3z"/><path fill="#08618D" d="M38.1 83.7l1.5-18.4h2.6l1.5 18.4-2.8 8.7z"/><path fill="#1DBFF0" d="M54 58.2l2.6 3.5-4.5 4.8 3.4 5.3-10.6 14.8z"/><path fill="#C5E6EF" d="M52.5 56.3l-4 12.4-4.4-4.3v-.2l7.5-8.3c.3.1.5.2.9.4z"/><path fill="#08618D" d="M24.4 11.4l.3-.2.1-.3c1.9-3.9 5.4-6.8 10.1-8.2 5.6-1.6 11.8-.7 16.7 2.5 12.9 8.3 9.3 20.9 7.8 24.8l-.1-.1c-.6-.3-1.4-.2-2.1.1v-1.2c0-6.9-9.2-7.1-15.3-7.3H40c-8.3-.2-11-.4-11.8-3.5l-.2-.9-1 .2c-.9.2-1.7.7-2.2 1.6-2 3.1-.8 10-.5 11.2-.6-.3-1.2-.3-1.8-.1-3-7.8-1.6-16.5 1.9-18.6z"/><path fill="#FFF" d="M26.2 37.4l-1.1.3c-.5 0-1.5-.7-2.1-2.3-.7-1.8-.4-3.2.1-3.4.3 0 .8.3 1.3 1l1.8 2.5v-5.7c-.4-2-1.2-7.6.2-9.8.1-.1.1-.2.2-.2 1.7 3.6 6 3.7 13.3 3.9h1.8c8.4.2 13.3 1.2 13.3 5.2v6.4l1.8-2.4c.5-.7 1-1 1.5-1 .4.2.7 1.6 0 3.4-.6 1.6-1.6 2.4-2.2 2.3l-1.1-.3-.1 1.2C54.4 46 47.5 53 40.9 53h-.4c-6.6 0-13.4-7-14.1-14.4l-.2-1.2z"/><path fill="#C5E6EF" d="M30 55.9l7.6 8.3-4.3 4.2-3.9-12.3c.2 0 .4-.1.6-.2zM3.1 93.1c-.8-.8-1.2-2-1.1-3.1l2.2-17c1-6.4 4.5-10.4 10.7-12.2 2.1-.7 7.2-2.2 11-3.5l-3.4 4.5 4.6 4.9-3.3 5.1 15 20.9.5 1.7H6.2c-1.2.1-2.3-.4-3.1-1.3zM78.5 93.1c-.8.8-1.9 1.3-3.1 1.3H42.5l.5-1.6 15.1-21-3.3-5.1 4.6-4.9-3.4-4.3c3.8 1.2 8.7 2.8 10.7 3.4 6.2 1.8 9.7 5.8 10.7 12.1l2.2 17c.1 1.2-.3 2.3-1.1 3.1z"/><path fill="#08618D" d="M64.6 83L62 86.1l-1.8-1.5-4 4.4H55v2h15.6v-2h-.8l-5.2-6zm0 3.1l2.5 2.8h-4.8l2.3-2.8zm-4.3 1.3l1.7 1.5h-3.1l1.4-1.5z"/>
</symbol>
<symbol id="apply" viewBox="0 0 121.3 121.2"><path fill="#FFF" d="M89 30.4h-4.8v-2.6c0-1.4-1.2-2.6-2.6-2.6H42.2c-1.4 0-2.6 1.2-2.6 2.6v29.7c-6.1 2.2-10.4 8-10.4 14.7s4.3 12.6 10.4 14.7v3.6c0 1.4 1.2 2.6 2.6 2.6h39.4c1.4 0 2.6-1.2 2.6-2.6v-1.9H86c2.3 0 4.1-1.8 4.1-4.1V56.1l2.6-2.5c.2-.2.4-.5.4-.8V34.5c0-2.2-1.8-4.1-4.1-4.1z"/><path fill="#08618D" d="M31.4 72.2c0-7.4 6-13.4 13.4-13.4s13.4 6 13.4 13.4-6 13.4-13.4 13.4-13.4-6-13.4-13.4z"/><path fill="#C5E6EF" d="M81.9 90.6c0 .2-.2.4-.4.4H42.2c-.2 0-.4-.2-.4-.4v-3c1 .2 2 .3 3 .3 8.6 0 15.6-7 15.6-15.6s-7-15.6-15.6-15.6c-1 0-2 .1-3 .3V27.8c0-.2.2-.4.4-.4h39.4c.2 0 .4.2.4.4l-.1 62.8z"/><path fill="#1DBFF0" d="M90.9 52.4l-2.7 2.4c-.2.2-.4.5-.4.8v29c0 1-.8 1.9-1.9 1.9h-1.7V32.7H89c1 0 1.9.8 1.9 1.9v17.8zM74.6 34.5H49.2c-.6 0-1.1.5-1.1 1.1s.5 1.1 1.1 1.1h25.4c.6 0 1.1-.5 1.1-1.1s-.5-1.1-1.1-1.1zM74.6 40.2H58.9c-.6 0-1.1.5-1.1 1.1s.5 1.1 1.1 1.1h15.7c.6 0 1.1-.5 1.1-1.1s-.5-1.1-1.1-1.1z"/><path fill="#FFF" d="M52.7 66.4c-.5-.4-1.2-.3-1.6.1l-7.8 9.2-5-3.9c-.5-.4-1.2-.3-1.6.2-.4.5-.3 1.2.2 1.6l5.8 4.6c.2.2.5.2.7.2.3 0 .6-.1.9-.4l8.5-10c.4-.5.4-1.2-.1-1.6z"/>
</symbol>
<symbol id="call" viewBox="0 0 121.3 121.2"><path fill="#FFF" d="M89 54h-6.7V34c0-3.3-2.7-6.1-6.1-6.1H47.9c-3.4 0-6.1 2.7-6.1 6.1v59.9c0 3.3 2.7 6 6.1 6h28.4c3.3 0 6.1-2.7 6.1-6.1V75.2h6.7c1.3 0 2.4-1.2 2.4-2.6v-16c-.1-1.4-1.2-2.6-2.5-2.6z"/><path fill="#C5E6EF" d="M44.1 34c0-2.1 1.7-3.8 3.8-3.8h28.4c2.1 0 3.8 1.7 3.8 3.8v3.4h-36V34zM80 93.8c0 2.1-1.7 3.8-3.8 3.8H47.9c-2.1 0-3.8-1.7-3.8-3.8v-4.2H80v4.2z"/><path fill="#1DBFF0" d="M80 87.3H44.1V39.7H80V54H61.1c-1.3 0-2.4 1.2-2.4 2.6v16c0 1.4 1.1 2.6 2.4 2.6h2.8l1.2 6.7 6.7-6.7h8.3L80 87.3z"/><path fill="#C5E6EF" d="M89.3 72.6c0 .1-.1.3-.4.3h-18l-4.5 4.6-.8-4.6h-4.5c-.2 0-.4-.1-.4-.3v-16c0-.1.1-.3.4-.3H89c.2 0 .4.1.4.3l-.1 16z"/><path fill="#08618D" d="M75.1 70.6c-1.7.8-3.7-1.7-3.7-1.7l2.4-2.3s1.3 1.4 1.8 1.2c0 0 1.7-1 3-3.8.2-.5-1.6-1.5-1.6-1.5l1.7-2.8s2.7 1.3 2.4 2.9c0 1.5-1.3 5.7-6 8zM74.9 58.4c-1.7.1-3.3.8-4.4 2.1s-1.7 2.9-1.6 4.6c0 .3.3.5.6.5.1 0 .3-.1.4-.1.1-.1.1-.2.1-.4-.1-1.4.4-2.7 1.3-3.8 1-1 2.2-1.7 3.6-1.8.1 0 .3-.1.4-.1.1-.1.1-.2.1-.4 0-.4-.3-.6-.5-.6z"/><path fill="#08618D" d="M72.6 62.4c-.6.7-.9 1.5-.8 2.4 0 .1.1.3.1.4.1.1.2.1.4.1s.3-.1.4-.1c.1-.1.1-.2.1-.4 0-.6.1-1.2.6-1.6.4-.4 1-.7 1.6-.7.1 0 .3-.1.4-.1.1-.1.1-.2.1-.4s-.1-.3-.1-.4c-.1-.1-.2-.1-.4-.1-1-.2-1.8.3-2.4.9z"/><circle fill="#1DBFF0" cx="62.1" cy="93.5" r="2.4"/><path fill="#1DBFF0" d="M57.7 33c-.5 0-1 .4-1 1s.4 1 1 1h8.7c.5 0 1-.4 1-1s-.4-1-1-1h-8.7z"/>
</symbol>
<symbol id="card-career-finder" viewBox="0 0 173.5 173.5"><path fill="#FFF" d="M54.6 52.8l.3-.2.1-.3c1.9-4 5.6-7 10.3-8.3 5.7-1.6 12.1-.7 17.1 2.5 13.2 8.5 9.5 21.3 7.9 25.4l-.1-.1c-.6-.3-1.4-.2-2.1.1v-1.2c0-7-9.4-7.3-15.6-7.4h-1.9c-8.5-.2-11.2-.4-12-3.6l-.2-1-1 .2c-1 .2-1.7.7-2.3 1.6-2.2 3.1-.9 10.1-.6 11.4-.6-.3-1.3-.3-1.9-.1-3.1-8-1.6-17 2-19z"/><path fill="#FFF" d="M56.3 79.6l-1.2.3c-.5 0-1.5-.8-2.2-2.4-.7-1.9-.4-3.3.2-3.5.3 0 .9.3 1.4 1l1.9 2.5v-5.7c-.4-2.1-1.3-7.9.2-10.1.1-.1.1-.2.2-.2 1.7 3.7 6.2 3.8 13.8 4l1.9.1c8.7.2 13.7 1.2 13.7 5.4v6.6l1.9-2.5c.5-.7 1-1.1 1.5-1 .4.2.8 1.7 0 3.5-.6 1.6-1.7 2.5-2.2 2.4l-1.2-.4-.1 1.2c-.7 7.7-7.8 14.9-14.6 14.9h-.4c-6.8 0-13.9-7.2-14.6-14.9l-.2-1.2zM144.6 106.2l-2.6 5.2-5.3 1.7-26.9-32.7 4.1-3.1z"/><path d="M29.5 133.6c-.1 1.8.5 3.6 1.7 4.9 1.2 1.3 2.9 2 4.8 2h71.1c1.8 0 3.5-.7 4.8-2 1.2-1.3 1.8-3.1 1.7-5l-2.3-17.6c-1.1-7.4-5.4-12.3-12.6-14.3-4.2-1.3-10.5-3.3-13.6-4.4-.9-.3-1.6-.6-1.8-.7-.4-.2-.7-2.1-.7-4 1.7-1.7 5-6.7 5.7-9.5-.7-.2-1.8-.1-2.5-.4-1.8 6.8-9.1 12.8-14.3 12.8h-.4c-3.1 0-6.2-1.5-8.7-3.8l-.1-.1c-3-2.8-5.2-6.7-5.6-10.8l-.2-1.3-1.3.3c-.5 0-1.5-.8-2.1-2.3-.7-1.9-.3-3.2.1-3.4.3 0 .8.3 1.3 1l2.1 2.8v-6c-.6-2.8-1.1-8 .2-10 0 0 0-.1.1-.1.8 3.9 9.1 3.8 14.6 4-.2-.7 1.2-1.7 1.1-2.5 0-.1-5.5-.2-5.5-.2-5.6-.3-7.8-.7-8.4-3.3l-.4-1.1-1.1.2c-1 .2-1.8.8-2.4 1.7-2 3.1-.9 9.8-.6 11.4-.6-.2-1.1-.2-1.7-.1-3-8-1.6-16.9 2-18.9l.3-.2.2-.3c1.9-4 5.6-7 10.3-8.4 1.8-.5 3.7-.8 5.6-.8.5-.8 1-1.5 1.6-2.3-2.6-.2-5.3.1-7.8.8-5.2 1.5-9.3 4.8-11.6 9.3-4.8 3.2-5.9 13.8-2.3 22.4-.5 1.2-.5 3 .2 4.7.8 1.9 2.1 3.3 3.5 3.7.6 4.1 2.9 8 5.9 10.9 0 1.4-.2 3-.6 3.7-.1 0-.6.3-1.8.7-.2 0-.3.1-.5.2-4.5 1.6-13 4.3-13.1 4.3-7.2 2-11.5 6.9-12.6 14.3l-2.3 17.7"/><path fill="#FFF" d="M82.7 98.8c.2.1.4.1.6.2l-3.8 12.6-4.4-4.3 7.6-8.5zM78.8 114.1l-2.5 8.2-.9-11.5zM62.7 94.8c2.6 1.9 5.6 3 8.5 3h.4c3 0 6.1-1.3 8.8-3.3 0 .4.1.7.1 1.1-3.8 3.4-8.2 3.5-8.3 3.5-.3 0-.5.2-.5.5s.2.5.5.5c.2 0 4.6-.1 8.6-3.4.1.2.1.4.2.6l-8.1 8.9h-2.7l-8.1-9.1c.3-.8.5-1.6.6-2.3zM60.6 98.7l7.6 8.5-4.5 4.4-3.9-12.5c.3-.1.5-.3.8-.4zM68 110.6l-.9 11.9-2.6-8.4zM36 138.2c-1.2 0-2.3-.5-3.1-1.3s-1.2-2-1.1-3.1l2.3-17.5c1-6.6 4.6-10.6 11-12.4.1 0 5.2-1.6 9.6-3.1l-3.7 4.6 5.5 7-4.3 5 15.7 20.9-31.9-.1z"/><path fill="#FFF" d="M55.1 117.4l4.3-5-5.5-7 3.9-4.8 8.9 28.4 2 6.5-13.6-18.1zM71.7 137.3l-2.8-8.8 1.6-20h2.4l1.5 19.9z"/><path d="M71.7 138.2l-3-9.7 1.6-20.3h2.9v.2l1.5 20-3 9.8zm-2.5-9.8l2.5 8 2.5-8.1-1.5-19.7h-1.9l-1.6 19.8z"/><path fill="#FFF" d="M85.3 100.4l4 5-5.5 7 4.3 5-13.4 18z"/><path fill="#FFF" d="M110.2 136.9c-.8.8-1.9 1.3-3.1 1.3H75.5l15.6-20.9-4.3-5 5.5-7-3.6-4.5c3.6 1.2 7.6 2.4 9.4 3 6.3 1.8 9.9 5.9 10.9 12.4l2.3 17.5c.1 1.2-.3 2.4-1.1 3.2z"/><path d="M145.1 104.8L114.2 76c-.5.5-1 1.1-1.6 1.6l30.9 28.8c.2.4-.9 2.9-2 3.9-1.1 1.1-3.5 1.9-4 1.8l-27.4-32.5c-.6.4-1.2.8-1.9 1.2l27.8 32.8c.4.4 1 .6 1.7.6.2 0 .4 0 .7-.1 1.8-.3 3.9-1.5 4.7-2.3.6-.6 1.5-1.9 2.1-3.2.7-1.6.7-3-.1-3.8z"/><path d="M121.6 54.7c-2.2-14.3-15.6-24-29.8-21.8s-24 15.6-21.7 29.8c2.3 14.2 15.6 24 29.8 21.7 14.2-2.3 23.9-15.5 21.7-29.7z"/><path fill="#FFF" d="M99.6 82.9c-13.3 2.1-25.9-7.1-28-20.4s7.1-25.9 20.4-28c13.3-2.1 25.9 7.1 28 20.4 2.1 13.4-7.1 25.9-20.4 28z"/><path d="M95.8 83.4c-5.2 0-10.2-1.6-14.5-4.8-5.3-3.9-8.9-9.6-9.9-16.1-2.1-13.4 7.1-26.1 20.6-28.2 6.5-1 13 .6 18.4 4.5 5.3 3.9 8.9 9.6 9.9 16.1s-.6 13-4.5 18.4c-3.9 5.3-9.6 8.9-16.1 9.9-1.4.1-2.6.2-3.9.2zm0-48.9c-1.3 0-2.5.1-3.8.3-13.1 2-22.2 14.5-20.1 27.7s14.5 22.3 27.7 20.2c6.4-1 12-4.4 15.8-9.7 3.8-5.2 5.4-11.6 4.4-18s-4.4-12-9.7-15.8c-4.2-3.1-9.2-4.7-14.3-4.7z"/><g><path d="M116.4 55.5c-1.8-11.3-12.5-19.1-23.8-17.3-11.4 1.7-19.1 12.4-17.4 23.7C77 73.2 87.6 81 99 79.2s19.1-12.4 17.4-23.7z"/><path d="M95.8 79.8c-4.4 0-8.7-1.4-12.4-4.1-4.6-3.3-7.5-8.2-8.4-13.7s.5-11.1 3.8-15.7 8.2-7.5 13.7-8.4c5.6-.9 11.1.5 15.7 3.8s7.5 8.2 8.4 13.7-.5 11.1-3.8 15.7-8.2 7.5-13.7 8.4c-1.1.2-2.2.3-3.3.3zm0-41.6c-1.1 0-2.1.1-3.2.3-5.4.8-10.2 3.7-13.4 8.1-3.2 4.4-4.6 9.9-3.7 15.3.8 5.4 3.8 10.2 8.2 13.4S93.6 79.9 99 79c5.4-.8 10.2-3.8 13.4-8.2 3.2-4.4 4.6-9.9 3.7-15.3s-3.8-10.2-8.2-13.4c-3.6-2.6-7.7-3.9-12.1-3.9z"/></g><g><path fill="#FFF" d="M98.8 77.7c-10.4 1.6-20.3-5.5-21.9-16-1.6-10.4 5.5-20.3 16-21.9 10.5-1.6 20.3 5.5 21.9 16 1.6 10.4-5.6 20.2-16 21.9z"/><path d="M95.8 78.1c-4.1 0-8-1.3-11.4-3.7-4.2-3.1-7-7.6-7.8-12.7-.8-5.1.4-10.2 3.5-14.4s7.6-7 12.7-7.8c10.6-1.7 20.5 5.6 22.2 16.2s-5.6 20.5-16.2 22.2c-1 .2-2 .2-3 .2zm0-38.3c-1 0-2 .1-2.9.2-5 .8-9.4 3.5-12.4 7.6s-4.2 9.1-3.4 14.1c.8 5 3.5 9.4 7.6 12.4s9.1 4.2 14.1 3.4c10.2-1.7 17.3-11.4 15.7-21.7-1.5-9.3-9.5-16-18.7-16z"/></g>
</symbol>
<symbol id="card-cover-letter" viewBox="0 0 173.5 173.5"><path fill="#FFF" d="M118.1 144.6h-73c-3 0-5.4-2.4-5.4-5.4V104l41.9 14.9 41.9-14.9v35.2c0 3-2.4 5.4-5.4 5.4z"/><path d="M118.1 145.5h-73c-3.5 0-6.3-2.8-6.3-6.3V104c0-.3.1-.6.4-.7.2-.2.5-.2.8-.1L81.6 118l41.6-14.8c.3-.1.6-.1.8.1.2.2.4.4.4.7v35.2c0 3.5-2.8 6.3-6.3 6.3zm-77.5-40.2v33.9c0 2.5 2 4.5 4.5 4.5h73c2.5 0 4.5-2 4.5-4.5v-33.9l-40.7 14.4c-.2.1-.4.1-.6 0l-40.7-14.4z"/><path d="M117.37 97.834l1.405-1.125 5.435 6.794-1.405 1.125zM115.9 136.5h1.8v2.7h-1.8zM110.5 136.5h1.8v2.7h-1.8zM105.1 136.5h1.8v2.7h-1.8z"/><path fill="#FFF" d="M114.7 61.2c-3.3 5.4-7 11.3-7 11.3-10-2-17.6.4-21.1 1.9 1 1.4.8 3.4-.6 4.6-1.5 1.3-3.9 1.2-5.3-.2l-1-1c-1.4-1.5-1.3-3.7.2-5.1 1.3-1.2 3.4-1.2 4.8-.2 1.3-2.2 3.1-6.3 3.7-11.7H50.5c-3 0-5.4 2.4-5.4 5.4v39.2l36.4 14 36.7-14V66.2c-.1-2.3-1.5-4.2-3.5-5z"/><path d="M81.5 120.3c-.1 0-.2 0-.3-.1l-36.4-14c-.3-.1-.6-.5-.6-.8V66.2c0-3.5 2.8-6.3 6.3-6.3h37.9c.3 0 .5.1.7.3.2.2.2.4.2.7-.6 5.5-2.4 9.5-3.8 12-.1.2-.3.4-.6.4-.2.1-.5 0-.7-.2-1.1-.8-2.6-.7-3.7.2-.5.5-.9 1.1-.9 1.9 0 .7.2 1.4.7 1.9l1 1c1.1 1.1 2.9 1.2 4 .2 1-.9 1.2-2.3.4-3.4-.1-.2-.2-.5-.1-.8.1-.3.3-.5.5-.6 3.7-1.6 11.2-3.9 21-2.1 1-1.5 4-6.3 6.7-10.8.2-.4.7-.5 1.1-.4 2.4 1 4 3.3 4 5.8v39.2c0 .4-.2.7-.6.8l-36.5 14.2c-.1.1-.2.1-.3.1zM46 104.8l35.5 13.7 35.7-13.7V66.2c0-1.6-.8-3-2.2-3.9-3.2 5.2-6.6 10.6-6.6 10.6-.2.3-.6.5-.9.4-8.9-1.7-15.9 0-19.7 1.5.6 1.7.2 3.5-1.2 4.8-1.9 1.7-4.8 1.5-6.5-.3l-1-1c-.8-.9-1.3-2-1.2-3.2 0-1.2.6-2.3 1.5-3.1 1.4-1.2 3.4-1.5 5-.8 1.1-2.2 2.4-5.4 3-9.6H50.5c-2.5 0-4.5 2-4.5 4.5v38.7z"/><path fill="#FFF" d="M133.7 44.1l-13.8-14.4L107 41.1l13.9 14.4z"/><path d="M120.9 56.4c-.2 0-.5-.1-.6-.3l-13.9-14.4c-.2-.2-.3-.4-.2-.7 0-.2.1-.5.3-.6L119.3 29c.4-.3.9-.3 1.2 0l13.8 14.4c.2.2.3.4.2.7 0 .2-.1.5-.3.6l-12.7 11.5c-.2.1-.4.2-.6.2zm-12.6-15.2l12.6 13.1 11.5-10.2-12.6-13.2-11.5 10.3z"/><path fill="none" d="M39.7 104l5.4-6.7"/><path d="M38.991 103.455l5.437-6.792 1.405 1.125-5.436 6.792zM57.3 91H106v1.8H57.3zM57.3 96.4H106v1.8H57.3zM57.3 101.8H106v1.8H57.3z"/><g><path fill="none" d="M68.1 108.1h27"/><path d="M68.1 107.2h27v1.8h-27z"/></g><g><path fill="#FFF" d="M116.6 51.5l-2.4-2.5-.9-1-3.1-3.2-1.7-1.8c-5.3 2.3-20.1 9.4-20.1 9.4 1.2 9.7-1.8 16.8-3.6 20.1-1.4-1-3.4-1-4.8.2-1.5 1.3-1.6 3.6-.2 5.1l1 1c1.4 1.5 3.8 1.6 5.3.2 1.3-1.2 1.6-3.1.6-4.6 3.5-1.5 11.1-3.9 21.1-1.9 0 0 8.6-13.6 11.4-18.5l-2.6-2.5zm-16.2 12.2c-2.4-.2-4.3-2.2-4.1-4.5.2-2.3 2.3-4.1 4.7-3.9 2.4.2 4.3 2.2 4.1 4.5-.2 2.3-2.3 4.1-4.7 3.9z"/><path d="M83.5 80.8c-1.2 0-2.5-.5-3.4-1.4l-1-1c-.8-.9-1.3-2-1.2-3.2 0-1.2.6-2.3 1.5-3.1 1.4-1.2 3.4-1.5 5-.8 1.8-3.5 4.2-10.1 3.1-18.8 0-.4.2-.7.5-.9.1-.1 14.8-7.2 20.1-9.5.3-.1.7-.1 1 .2l8.2 8.6 2.4 2.5c.3.3.3.7.1 1.1-2.8 4.8-11.3 18.3-11.4 18.4-.2.3-.6.5-.9.4-8.9-1.7-15.9 0-19.7 1.5.6 1.7.2 3.5-1.2 4.8-.9.8-2 1.2-3.1 1.2zm-1.1-8.2c-.7 0-1.4.2-1.9.7s-.9 1.1-.9 1.9c0 .7.2 1.4.7 1.9l1 1c1.1 1.1 2.9 1.2 4 .2 1-.9 1.2-2.3.4-3.4-.1-.2-.2-.5-.1-.8.1-.3.3-.5.5-.6 3.7-1.6 11.2-3.9 21-2.1 1.5-2.4 8-12.7 10.7-17.4l-9.7-10.1c-5 2.2-16.2 7.6-18.9 8.9 1.1 9.6-1.9 16.6-3.8 20-.1.2-.3.4-.6.4-.2.1-.5 0-.7-.2-.4-.2-1.1-.4-1.7-.4zm18.3-8h-.4c-1.4-.1-2.7-.7-3.6-1.8-.9-1-1.4-2.4-1.3-3.7.2-2.8 2.7-4.9 5.6-4.7 1.4.1 2.7.7 3.6 1.8.9 1 1.4 2.4 1.3 3.7-.1 2.6-2.4 4.7-5.2 4.7zm-.2-1.8c1.9.1 3.6-1.3 3.7-3.1.1-.9-.2-1.7-.8-2.4-.6-.7-1.5-1.1-2.4-1.2-1.9-.1-3.6 1.2-3.7 3.1-.1.9.2 1.7.8 2.4.6.7 1.4 1.1 2.4 1.2z"/></g>
</symbol>
<symbol id="card-interview-training" viewBox="0 0 173.5 173.5"><path d="M32.4 65.9c-3 0-5.4 2.4-5.4 5.4v51.6c0 3 2.4 5.4 5.4 5.4h32.2V139h-4.3c-.6 0-1.1.5-1.1 1.1 0 .6.5 1.1 1.1 1.1h25.8c.6 0 1.1-.5 1.1-1.1 0-.6-.5-1.1-1.1-1.1h-4.3v-10.8H114c3 0 5.4-2.4 5.4-5.4V71.3c0-3-2.4-5.4-5.4-5.4H32.4z"/><path fill="#FFF" d="M32.4 68H114c1.8 0 3.2 1.4 3.2 3.2v41.9H29.1V71.3c0-1.8 1.5-3.3 3.3-3.3zM29.1 115.3h88.1v7.5c0 1.8-1.4 3.2-3.2 3.2H32.4c-1.8 0-3.2-1.4-3.2-3.2l-.1-7.5z"/><circle cx="73.2" cy="120.7" r="2.1"/><path fill="#FFF" d="M66.8 128.2h12.9v10.7H66.8z"/><path fill="none" d="M69.1 32.8h77v77h-77z"/><path d="M139.8 69.3v-1.8c0-4.3-.9-8.6-2.5-12.5-1.6-3.8-3.9-7.3-6.9-10.2-3-3-6.4-5.3-10.2-6.9-4-1.7-8.2-2.5-12.5-2.5-4.4-.1-8.7.7-12.6 2.4-3.8 1.6-7.3 3.9-10.2 6.9-3 3-5.3 6.4-6.9 10.2-1.7 4-2.5 8.2-2.5 12.5v.2h2v-.2c0-1.7.1-3.3.4-4.9h.2c.8 0 1.5-.2 2.3-.5 1.1-.6 1.9-1.5 2.4-2.7 0-.1.1-.2.1-.3 3.4-10.6 13.4-17.8 24.7-17.8s21.3 7.2 24.9 18c.5 1.4 1.6 2.6 3 3.1.6.2 1.1.3 1.7.3h.2c.3 1.6.4 3.2.4 4.9V77c-1-1.4-2.4-2.4-4-3.1v-3c0-.6-.5-1-1-1h-5.5c-.6 0-1 .5-1 1v24.2c0 .6.5 1 1 1h5.5c.6 0 1-.5 1-1v-3c1.4-.6 2.7-1.5 3.6-2.6-1.9 11.5-12 20.4-24 20.4h-2.1c.4-.7.6-1.4.6-2.3 0-2.4-1.9-4.3-4.3-4.3s-4.3 1.9-4.3 4.3 1.9 4.3 4.3 4.3h5.8c7.1 0 13.7-2.7 18.7-7.7s7.7-11.6 7.7-18.7c0-.2 0-.3-.1-.5.1-.6.2-1.3.2-2v-.5l-.1-13.2z"/><path fill="#FFF" d="M136.2 60.4c-.9-.3-1.6-1.1-1.8-2 0-.1-.1-.2-.1-.3-.9-2.6-2.2-5.1-3.9-7.3-1.7-2.3-3.8-4.4-6.1-6.1-4.9-3.6-10.7-5.5-16.7-5.5-6.1 0-11.9 1.9-16.8 5.6-2.4 1.7-4.4 3.8-6.1 6.2-1.7 2.4-3.1 5.1-4 7.9v.1c-.5 1-1.4 1.6-2.4 1.6 3-13.4 15-23.3 29.3-23.3s26.2 9.9 29.4 23.3c-.3-.1-.5-.1-.8-.2zM131.7 91.2V94.1h-3.4V71.9h3.4V91.2z"/><circle fill="#FFF" cx="107.6" cy="107.6" r="2.3"/><path fill="#FFF" d="M132.9 90.2V75.7c2.9 1.2 4.8 4.1 4.8 7.3.1 3.2-1.8 6-4.8 7.2z"/><path d="M68.5 79.838c-1.4 0-2.6 1.2-2.6 2.6v1.1h-7c-1.4 0-2.6 1.2-2.6 2.6v13.2c0 1.4 1.2 2.6 2.6 2.6h1.8v3.3c0 .6.5 1.1 1.1 1.1.2 0 .5-.1.7-.2l5.6-4.2h9.2c1.2 0 2.3-.9 2.5-2.1l3.4 2.6c.5.4 1.2.3 1.5-.2.1-.2.2-.4.2-.7v-3.3h1.8c1.4 0 2.6-1.2 2.6-2.6v-13.2c0-1.4-1.2-2.6-2.6-2.6H68.5zm0 2.2h18.4c.2 0 .4.1.4.4v13.2c0 .2-.1.4-.4.4H84c-.6 0-1.1.5-1.1 1.1v2.2l-2.9-2.2v-11c0-1.4-1.2-2.6-2.6-2.6h-9.2v-1.1c0-.3.1-.4.3-.4zm-9.5 3.7h18.4c.2 0 .4.1.4.4v13.2c0 .2-.1.4-.4.4h-9.6c-.2 0-.5.1-.7.2l-4.1 3.1v-2.2c0-.6-.5-1.1-1.1-1.1H59c-.2 0-.4-.1-.4-.4v-13.2c0-.3.1-.4.4-.4zm4 5.5c-.8 0-1.5.7-1.5 1.5s.7 1.5 1.5 1.5 1.5-.7 1.5-1.5-.7-1.5-1.5-1.5zm5.2 0c-.8 0-1.5.7-1.5 1.5s.7 1.5 1.5 1.5 1.5-.7 1.5-1.5-.7-1.5-1.5-1.5zm5.1 0c-.8 0-1.5.7-1.5 1.5s.7 1.5 1.5 1.5 1.5-.7 1.5-1.5-.7-1.5-1.5-1.5z"/>
</symbol>
<symbol id="card-linkedin-makeover" viewBox="0 0 173.5 173.5"><path fill="#FFF" stroke="#1D1D1B" stroke-width="2" stroke-miterlimit="10" d="M86.6 120.7h50.1c5.7 0 10.3-4.6 10.3-10.3V55c0-5.7-4.6-10.3-10.3-10.3H86.6c-5.7 0-10.3 4.6-10.3 10.3v55.5c0 5.6 4.6 10.2 10.3 10.2z"/><path fill="#FFF" stroke="#1D1D1B" stroke-width="2" stroke-miterlimit="10" d="M106.7 111.6h20.1c5.7 0 10.3-4.6 10.3-10.2V67.9c0-5.7-4.6-10.3-10.3-10.3h-20.1c-5.7 0-10.3 4.6-10.3 10.3v33.5c.1 5.6 4.7 10.2 10.3 10.2z"/><path d="M111.8 84.7h4v12.9h-4V84.7zm2-6.4c1.3 0 2.3 1 2.3 2.3 0 1.3-1 2.3-2.3 2.3s-2.3-1-2.3-2.3c-.1-1.2 1-2.3 2.3-2.3M118.3 84.7h3.8v1.8h.1c.5-1 1.8-2.1 3.8-2.1 4.1 0 4.8 2.7 4.8 6.1v7.1h-4v-6.3c0-1.5 0-3.4-2.1-3.4s-2.4 1.6-2.4 3.3v6.4h-4V84.7zM27.5 119.6c1.1 1.6 2.8 2.5 4.8 2.5h36.3c3.9 2.5 8.4 4.1 13.3 4.1 13.7-.1 24.7-11.5 24.7-25.4 0-10.2-5.9-19.2-15-23.2v-14h1.7c.6 0 1-.4 1-1s-.4-1-1-1H70.6c-.6 0-1 .4-1 1s.4 1 1 1h1.7v14c-.9.4-1.8.9-2.7 1.4l-3.2-9.4c-.8-2.2-1.1-4.6-1.1-6.9V49.4h2.2c.6 0 1-.4 1-1s-.4-1-1-1H41c-.6 0-1 .4-1 1s.4 1 1 1h2.1v13.5c0 2.3-.4 4.7-1.1 6.9L26.7 114"/><path fill="#FFF" d="M28.6 114.6l15.3-44.2c.8-2.4 1.2-5 1.2-7.5v-.4h5.6c.6 0 1-.4 1-1s-.4-1-1-1h-5.6V56h5.6c.6 0 1-.4 1-1s-.4-1-1-1h-5.6v-4.6H63v13.3c0 2.5.4 5.1 1.2 7.5l3.5 10c-1.2.8-2.2 1.7-3.2 2.8L63 78.4c-.1-.4-.5-.7-.9-.7H46.1c-.1 0-.1.1-.2.1s-.1.1-.1.1l-.1.2c0 .1-.1.1-.1.2L34 111.5c-.3.9-.2 2 .4 2.8s1.5 1.3 2.4 1.3h25.1c1.1 1.6 2.5 3.1 4 4.5H32.3v-.1c-1.2 0-2.4-.6-3.1-1.6"/><path fill="#FFF" d="M47.2 79.8h14l1.7 5c-3.6 4.5-5.7 10.1-5.7 16.1 0 4.7 1.2 8.9 3.4 12.7H37c-.3 0-.6-.2-.8-.4-.2-.3-.3-.6-.1-1l11.1-32.4z"/><path fill="#FFF" d="M81.9 124.1c-12.5 0-22.6-10.5-22.6-23.3 0-9.6 5.6-18.1 14.3-21.6.4-.2.6-.5.6-.9v-3.4h5.2c.6 0 1-.4 1-1s-.4-1-1-1h-5.2v-3.6h5.2c.6 0 1-.4 1-1s-.4-1-1-1h-5.2v-3.8h15.2v14.7c0 .4.2.8.6.9 8.8 3.6 14.5 12.1 14.5 21.6.1 12.9-10.1 23.4-22.6 23.4z"/><path d="M63.8 94.2c-.8 2.2-1.2 4.6-1.2 6.9 0 11 8.7 19.8 19.4 19.8s19.4-8.9 19.4-19.8c0-2.3-.4-4.7-1.2-6.9-.1-.4-.5-.7-.9-.7H64.7c-.4 0-.7.3-.9.7zm34.6 1.3c.6 1.8.9 3.7.9 5.6 0 9.9-7.8 17.8-17.4 17.8-9.6 0-17.4-8-17.4-17.8 0-1.8.3-3.8.9-5.6h33z"/>
</symbol>
<symbol id="card-resume-makeover" viewBox="0 0 173.5 173.5"><path fill="#FFF" d="M49.3 42.3l4.2-3.5 67.9.7 3 2 .3 77.5-15.8 14.8-55.6 1.5-3.5-3.3z"/><path d="M86.8 90.2V49.4c0-1.9-1.5-3.5-3.5-3.5H61.8c-1.9 0-3.5 1.5-3.5 3.5v40.8c0 1.9 1.5 3.5 3.5 3.5h21.4c2 0 3.6-1.6 3.6-3.5z"/><path fill="#FFF" d="M59.7 90.2V49.4c0-1.2.9-2.1 2.2-2.1h21.4c1.2 0 2.2.9 2.2 2.1v40.8c0 1.2-.9 2.1-2.2 2.1H61.8c-1.3 0-2.1-.9-2.1-2.1z"/><path d="M80.3 75.3H64.7c-.3 0-.7.3-.7.7 0 .3.3.7.7.7h15.6c.3 0 .7-.3.7-.7s-.2-.7-.7-.7zM80.3 80.3H64.7c-.3 0-.7.3-.7.7s.3.7.7.7h15.6c.3 0 .7-.3.7-.7s-.2-.7-.7-.7zM80.3 85.3H64.7c-.3 0-.7.3-.7.7 0 .3.3.7.7.7h15.6c.3 0 .7-.3.7-.7s-.2-.7-.7-.7zM140.8 38.6c-.1-.5-.5-1-1.1-1H131c-.5 0-1.1.4-1.1 1.1v36.6c0 .5.4 1.1 1.1 1.1h8.7c.5 0 1.1-.4 1.1-1.1V38.6z"/><path fill="#FFF" d="M131.4 74.7V39.3h7.5v4.2h-3.6c-.3 0-.7.3-.7.7 0 .3.3.7.7.7h3.6V50h-2.4c-.3 0-.7.3-.7.7 0 .3.3.7.7.7h2.4v5.2h-3.6c-.3 0-.7.3-.7.7 0 .3.3.7.7.7h3.6v5.1h-2.4c-.3 0-.7.3-.7.7 0 .3.3.7.7.7h2.4v5.1h-3.6c-.3 0-.7.3-.7.7 0 .3.3.7.7.7h3.6v4.2h-7.5v-.5z"/><path d="M77.9 101.4h22.3c.5 0 1.1-.4 1.1-1.1s-.6-1.1-1.1-1.1H77.9c-.5 0-1.1.4-1.1 1.1 0 .7.5 1.1 1.1 1.1zM101.3 106.4c-.1-.6-.6-1-1.1-1H77.9c-.5 0-1.1.4-1.1 1.1 0 .5.4 1.1 1.1 1.1h22.3c.6 0 1.1-.4 1.1-1.2zM92.3 55.5h22.3c.5 0 1.1-.4 1.1-1.1s-.6-1.1-1.1-1.1H92.3c-.5 0-1.1.4-1.1 1.1s.4 1.1 1.1 1.1zM115.7 60.5c-.1-.6-.6-1-1.1-1H92.3c-.5 0-1.1.4-1.1 1.1 0 .5.4 1.1 1.1 1.1h22.3c.5 0 1.1-.4 1.1-1.2zM92.3 68h22.3c.5 0 1.1-.4 1.1-1.1 0-.7-.6-1.1-1.1-1.1H92.3c-.5 0-1.1.4-1.1 1.1 0 .6.4 1.1 1.1 1.1zM115.7 72.9c-.1-.6-.6-1-1.1-1H92.3c-.5 0-1.1.4-1.1 1.1 0 .5.4 1.1 1.1 1.1h22.3c.5 0 1.1-.4 1.1-1.2zM100.3 111.5h-19c-.5 0-1.1.4-1.1 1.1 0 .5.4 1.1 1.1 1.1h18.9c.5 0 1.1-.4 1.1-1.1v-.1c0-.5-.5-1-1-1z"/><path d="M138.1 97.4h-19.3v-1.5c0-.5-.3-.9-.7-1-.7-.2-1 .1-1.1.3l-6 6c-.4.4-.4 1.1 0 1.6l6 6c.2.2.5.3.7.3.1 0 .3 0 .5-.1.4-.2.6-.6.6-1v-1.5h5v11.4h-15.5c-.5 0-1.1.4-1.1 1.1v15.4H54.3c-2.2 0-3.9-1.8-3.9-3.9V105l15.8 15.8.3.3 9.1 3.5h.4c.3 0 .6-.1.7-.3.3-.3.4-.7.3-1.1l-3.4-9c-.1-.2-.2-.3-.3-.4 0-.1-.1-.2-.2-.2L50.5 91V44c0-2.2 1.8-3.9 3.9-3.9h65.4c2.2 0 3.9 1.8 3.9 3.9v39.8H112c-.5 0-1.1.4-1.1 1.1v6.8c0 .5.4 1.1 1.1 1.1h19.3v1.5c0 .5.3.9.7 1h.1c.1 0 .2.1.3.1.3 0 .6-.1.7-.3l6-6c.2-.2.3-.5.3-.7 0-.3-.1-.6-.3-.7l-5.9-6.2c-.3-.3-.7-.4-1.1-.3-.4.1-.7.6-.7 1v1.5h-5.5V44c0-3.3-2.8-6.1-6.1-6.1H54.3c-3.3 0-6.1 2.8-6.1 6.1v44.8l-7.4-7.4c-1-1-2.2-1.5-3.6-1.5-1.3 0-2.5.5-3.5 1.5s-1.5 2.2-1.5 3.5c0 1.3.5 2.6 1.5 3.5L48.3 103v27.4c0 3.3 2.8 6.1 6.1 6.1h54.2c.3 0 .4-.2.6-.3l16.5-16.4c.3-.3.4-.7.3-1.1v-12.3h12.2c.5 0 1.1-.4 1.1-1.1v-6.8c0-.5-.4-1.1-1.2-1.1z"/><path fill="#FFF" d="M117.6 104.7c-.3 0-.7.3-.7.7v1l-4.5-4.5 4.5-4.5v1c0 .2.1.3.2.4.1.1.3.2.4.2h19.7v5.6l-19.6.1zM109.1 119.5h14.1l-14.3 14.3v-14.3zM38.582 90.688l4.667-4.667 1.697 1.697-4.667 4.667zM35 82.5c.6-.6 1.5-.9 2.3-.9.9 0 1.7.3 2.3.9l2.7 2.7-4.6 4.6-2.7-2.7c-1.3-1.3-1.3-3.3 0-4.6zM75.1 122.5l-6.9-2.6 4.1-4.3zM41.08 93.273l4.666-4.667 25.88 25.88-4.667 4.667zM133.1 92.7v-1c0-.2-.1-.3-.2-.4s-.3-.2-.4-.2h-19.7v-5.5h19.7c.3 0 .7-.3.7-.7v-1l4.5 4.5-4.6 4.3z"/><path d="M81.4 68.1c-.3-.9-.4-1.5-.7-2.2-.6-1.9-2.3-3-4.5-2.8h-.8v-1.9c.5-.5 1-1.2 1.3-2.1.6-.2.9-1 .9-2.1 0-.8-.3-1.5-.6-1.8.1-.4.1-.9.2-1.4.2-2.6-.6-3-2-3.3H75c-.9-.3-2-.4-2.7-.4-.7 0-1.7.1-2.7.4v.1c-1.3.4-2.1.9-2 3.3 0 .4.1.9.2 1.4-.3.3-.6 1-.6 1.8 0 1 .4 1.8.9 2.1.3.9.8 1.5 1.3 2.1v1.9h-.8c-2.1-.2-3.9.9-4.5 2.7-.3.7-.4 1.4-.7 2.1v.5l.1.1.1.1.1.1.1.1h17s.1 0 .1-.1c0 0 .1 0 .1-.1l.1-.1.1-.1v-.1-.2l.2-.1zm-12.1-9.7c-.1-.2-.2-.3-.3-.4-.1 0-.2-.1-.3-.1-.1-.2-.2-.4-.2-.8s.1-.8.2-.9c.3-.1.3-.3.4-.6V55.3c-.1-.5-.1-1-.2-1.5-.1-1.7.1-1.8 1-2.1l.3-.1c.7-.2 1.5-.3 2.2-.3.9 0 1.6.1 2.2.3l.3.1c.9.3 1.1.3 1 2.1 0 .5-.1 1-.2 1.5v.4c0 .3.2.4.4.5.1.1.2.4.2.9 0 .3-.1.7-.2.8-.1 0-.2 0-.3.1-.2.1-.3.3-.3.4-.5 1.7-1.8 2.8-3.3 2.8-1 0-2.4-1.1-2.9-2.8zm-3.9 7.8c.4-1.3 1.6-2 3.2-1.9.4 0 .9.1 1.3.1.2 0 .3 0 .3-.1.3 0 .6-.3.6-.6v-1.5c.5.3 1.1.4 1.7.4.6 0 1.2-.2 1.7-.4v1.5c0 .3.2.5.5.6.1.1.3.1.4.1.4 0 .9 0 1.3-.1 1.5-.1 2.7.6 3.2 1.9.2.4.3.9.4 1.3H65c.2-.5.3-.9.4-1.3z"/>
</symbol>
<symbol id="career-finder-main" viewBox="0 0 122.1 113.4"><path fill="#1DBFF0" d="M121 77.4l-2.8 5.4-5.5 1.8-28.3-34.4 4.3-3.3z"/><path fill="#08618D" d="M86 87.6c-1.2-7.8-5.6-12.9-13.2-15-4.4-1.4-11.1-3.5-14.3-4.6-1-.3-1.7-.6-1.9-.7-.4-.3-.8-2.2-.7-4.2 1.8-1.8 3.3-4 4.3-6.3-.8-.2-1.5-.5-2.3-.8-2.6 5.7-8.3 10.2-13.7 10.2h-.4c-3.2 0-6.5-1.6-9.2-4l-.1-.1c-3.2-2.9-5.5-7.1-5.9-11.3l-.2-1.4-1.3.3c-.5 0-1.5-.9-2.2-2.5-.8-2-.3-3.4.1-3.5.3 0 .8.3 1.4 1.1l2.2 2.9V41.3c-.6-3-1.1-8.5.2-10.5l.1-.1c1.6 3.2 5.2 3.8 11 4-.2-.8-.3-1.5-.5-2.3v-.2c-5.9-.3-8-.9-8.7-3.6l-.3-1.1-1.1.2c-1 .2-1.9.8-2.5 1.8-2.1 3.3-.9 10.3-.6 12-.6-.2-1.2-.2-1.8-.1-3.2-8.4-1.7-17.7 2.1-19.9l.3-.2.2-.3c2-4.2 5.8-7.4 10.8-8.8 1.9-.5 3.9-.8 5.9-.8.5-.8 1.1-1.6 1.6-2.4-2.8-.2-5.6.1-8.2.9-5.5 1.6-9.8 5-12.2 9.8-5.2 3.1-6.3 14.3-2.5 23.3-.5 1.3-.5 3.1.2 5 .8 2 2.2 3.5 3.7 3.9.7 4.3 3 8.4 6.2 11.5 0 1.5-.2 3.2-.7 3.9-.1 0-.6.3-1.9.7-.2 0-.4.1-.5.2-4.6 1.6-13.7 4.4-13.7 4.4-7.6 2.2-12 7.2-13.2 15.1L0 106.1c-.1 1.9.5 3.8 1.8 5.2 1.3 1.4 3.1 2.1 5 2.1h74.7c1.9 0 3.7-.8 5-2.1 1.3-1.4 1.9-3.2 1.8-5.2L86 87.6z"/><path fill="#FFF" d="M55.9 69.6c.2.1.4.1.6.2l-4 13.2-4.7-4.6 8.1-8.8zM51.8 85.6l-2.6 8.7-1-12.1zM34.9 65.3c2.7 2 5.8 3.2 8.9 3.2h.4c3.2 0 6.4-1.3 9.3-3.4 0 .4.1.7.2 1.1-4 3.6-8.6 3.6-8.7 3.6-.3 0-.6.2-.6.6 0 .3.2.6.6.6.2 0 4.8-.1 9-3.6.1.2.1.4.2.6l-8.5 9.3h-2.9l-8.5-9.6c.3-.7.5-1.6.6-2.4zM32.7 69.5l7.9 8.9-4.7 4.6-4.1-13.2.9-.3zM40.5 82l-1 12.5-2.8-8.9z"/><path fill="#C5E6EF" d="M6.8 111c-1.3 0-2.4-.5-3.2-1.4s-1.2-2.1-1.2-3.3l2.4-18.4c1.1-6.9 4.8-11.1 11.5-13 .1 0 5.5-1.7 10.1-3.2l-3.9 4.8 5.8 7.3-4.5 5.2 16.5 22H6.8z"/><path fill="#C5E6EF" d="M26.9 89.1l4.6-5.3-5.8-7.4 4.1-5.1 9.3 29.9 2.1 6.8-14.3-18.9z"/><path fill="#1DBFF0" d="M44.4 110l-2.9-9.2 1.6-21.1h2.5l1.6 21z"/><path fill="#C5E6EF" d="M58.7 71.2l4.2 5.3-5.8 7.4 4.5 5.2-14.1 19z"/><path fill="#C5E6EF" d="M84.8 109.6c-.8.9-2 1.4-3.2 1.4H48.3l16.4-22-4.5-5.2 5.8-7.3-3.8-4.7c3.7 1.2 8 2.5 9.9 3.1 6.7 1.9 10.4 6.2 11.5 13l2.4 18.4c0 1.2-.4 2.4-1.2 3.3z"/><path fill="#08618D" d="M121.5 75.9L89.1 45.6c-.5.6-1.1 1.1-1.7 1.6l32.5 30.3c.2.4-.9 3-2.1 4.1s-3.7 2-4.2 1.9L84.7 49.4c-.6.4-1.3.9-2 1.2l29.2 34.5c.4.5 1 .7 1.8.7.2 0 .5 0 .7-.1 1.9-.3 4.1-1.6 5-2.4.6-.6 1.6-2 2.2-3.4.8-1.7.7-3.1-.1-4z"/><path fill="#08618D" d="M96.8 23.2C94.5 8.2 80.4-2 65.4.3S40.2 16.7 42.6 31.7C44.9 46.6 59 56.9 73.9 54.6c15-2.4 25.2-16.5 22.9-31.4z"/><path fill="#1DBFF0" d="M73.7 52.9c-14 2.2-27.2-7.4-29.4-21.4C42.1 17.4 51.7 4.2 65.7 2s27.2 7.4 29.4 21.4c2.2 14.1-7.4 27.3-21.4 29.5z"/><path fill="#08618D" d="M91.3 24.1c-1.9-12-13.1-20.1-25-18.3-11.9 1.9-20.1 13.1-18.2 25C50 42.7 61.2 50.9 73.1 49 85 47.2 93.2 36 91.3 24.1z"/><path fill="#FFF" d="M72.8 47.4c-11 1.7-21.3-5.8-23-16.8s5.8-21.3 16.8-23 21.3 5.8 23 16.8c1.7 10.9-5.8 21.2-16.8 23z"/>
</symbol>
<symbol id="career-finder" viewBox="0 0 266.5 242.4"><path fill="#1DBFF0" d="M241.7 158.6l-5.1 9.8-10 3.2-51.1-62.2 7.7-5.9"/><path fill="#08618D" d="M178.3 177c-2.2-14.2-10.2-23.3-23.9-27.2-8-2.5-20-6.3-25.9-8.3-1.8-.6-3-1.1-3.4-1.3-.7-.5-1.4-3.9-1.3-7.7 3.2-3.3 5.9-7.2 7.8-11.4-1.4-.5-2.8-.9-4.1-1.5-4.7 10.3-14.9 18.5-24.8 18.5h-.7c-5.8 0-11.7-2.8-16.6-7.3l-.2-.2c-5.7-5.3-9.9-12.8-10.6-20.5l-.3-2.5-2.4.5c-.9 0-2.8-1.5-3.9-4.5-1.4-3.6-.6-6.1.1-6.4.5 0 1.5.6 2.5 1.9l3.9 5.2V92.8c-1.2-5.4-2.1-15.3.3-19 0-.1.1-.1.1-.2 2.8 5.8 9.3 6.8 19.9 7.2-.3-1.4-.6-2.7-.8-4.1v-.3C83.2 76.1 79.4 75 78.1 70l-.5-2-2 .4c-1.9.4-3.4 1.5-4.5 3.2-3.9 5.9-1.7 18.6-1.1 21.7-1.1-.4-2.2-.4-3.2-.1-5.8-15.1-3.1-32.1 3.7-36l.6-.3.3-.6C75 48.6 82 42.9 90.9 40.4c3.5-1 7.1-1.4 10.7-1.4.9-1.5 1.9-2.9 3-4.3-5-.3-10 .2-14.9 1.6-10 2.9-17.8 9.1-22 17.6-9.2 6.1-11.3 26.2-4.4 42.6-1 2.3-.9 5.6.4 9 1.4 3.7 4 6.4 6.6 7.1 1.2 7.8 5.5 15.3 11.2 20.8 0 2.7-.3 5.8-1.2 7-.2.1-1.2.5-3.4 1.3-.3 0-.7.1-1 .3-8.4 2.8-24.7 7.9-24.8 8-13.7 3.9-21.8 13-24 27.2l-4.3 33.5c-.3 3.5.9 6.8 3.2 9.4 2.3 2.5 5.5 3.9 9 3.9h135.2c3.5 0 6.7-1.4 9.1-3.9 2.3-2.5 3.5-5.8 3.2-9.5l-4.2-33.6z"/><path fill="#FFF" d="M124 144.5c.3.1.7.3 1.1.4l-7.2 23.8-8.4-8.3 14.5-15.9zm-7.6 29l-4.7 15.6-1.7-21.9m-24.1-30.4c5 3.6 10.6 5.8 16.1 5.8h.8c5.8 0 11.6-2.4 16.7-6.2.1.7.2 1.4.3 2-7.2 6.4-15.6 6.6-15.7 6.6-.6 0-1 .4-1 1s.4 1 1 1c.4 0 8.7-.2 16.3-6.5.1.4.2.7.4 1.1l-15.3 16.9h-5.2l-15.4-17.3c.5-1.4.8-3 1-4.4zm-4 7.5l14.4 16.1-8.5 8.3-7.4-23.8 1.5-.6zM96 166.9l-1.7 22.6-5.1-16"/><path fill="#C5E6EF" d="M35.1 219.4c-2.3 0-4.3-.9-5.8-2.5s-2.2-3.8-2.1-5.9l4.3-33.3c1.9-12.5 8.7-20.2 20.9-23.6.1 0 9.9-3.1 18.2-5.8l-7 8.7L74 170.3l-8.2 9.5 29.9 39.7H35.1z"/><path fill="#C5E6EF" d="M71.5 179.8l8.2-9.5-10.5-13.4 7.4-9.2 16.9 54v.1l3.9 12.4-25.9-34.4z"/><path fill="#1DBFF0" d="M103 217.7l-5.2-16.8 2.9-38.1h4.6l2.9 37.9"/><path fill="#C5E6EF" d="M128.9 147.5l7.6 9.4-10.5 13.4 8.3 9.5-25.6 34.3"/><path fill="#C5E6EF" d="M176.2 216.9c-1.5 1.6-3.6 2.5-5.8 2.5h-60.1l29.7-39.8-8.2-9.5 10.4-13.3-6.8-8.5c6.8 2.2 14.4 4.6 17.9 5.7 12.1 3.4 18.9 11.2 20.8 23.6l4.3 33.2c0 2.3-.7 4.5-2.2 6.1z"/><path fill="#08618D" d="M242.6 155.9l-58.7-54.8c-1 1-2 2-3 2.9l58.7 54.7c.3.8-1.6 5.5-3.7 7.5s-6.7 3.6-7.6 3.5L175.9 108c-1.2.8-2.4 1.5-3.6 2.2l52.9 62.4c.8.8 1.9 1.2 3.2 1.2.4 0 .9 0 1.3-.1 3.4-.5 7.4-2.9 9-4.4 1.2-1.1 2.9-3.5 4-6.1 1.4-3.2 1.4-5.7-.1-7.3z"/><path fill="#08618D" d="M197.9 60.6c-4.2-27-29.7-45.6-56.7-41.3S95.6 48.9 99.8 75.9c4.2 27 29.7 45.6 56.7 41.3 27.1-4.2 45.6-29.6 41.4-56.6z"/><path fill="#1DBFF0" d="M156.1 114.2c-25.3 4-49.2-13.4-53.2-38.8-4-25.3 13.4-49.2 38.8-53.2 25.3-4 49.2 13.4 53.2 38.8 3.9 25.4-13.5 49.2-38.8 53.2z"/><path fill="#08618D" d="M187.9 62.1c-3.4-21.5-23.7-36.3-45.2-32.9-21.5 3.4-36.3 23.7-32.9 45.2 3.4 21.5 23.7 36.3 45.2 32.9 21.5-3.4 36.3-23.6 32.9-45.2z"/><path fill="#FFF" d="M154.5 104.3c-19.9 3.1-38.5-10.5-41.7-30.4-3.1-19.9 10.5-38.5 30.4-41.7 19.9-3.1 38.5 10.5 41.7 30.4 3.1 19.9-10.6 38.5-30.4 41.7z"/>
</symbol>
<symbol id="checkout-empty" viewBox="0 0 86.6 64.5"><path fill="#EAEAEA" d="M34 16.1c-.9 0-21.4 21.8-21.4 22.6l15.3 15.9c0 .8.9-1.1 1.8-1.1H66c.8 0 1.5-.6 1.5-1.5l.6-20.2c0-.8-9.2-3.4-10-3.4l.6-3.8-17-15.5-7.7 7z"/><path fill="#C6C6C6" d="M66 27.9H29.7c-2.6 0-4.7 2.1-4.7 4.7V52c0 2.6 2.1 4.7 4.7 4.7H66c2.6 0 4.7-2.1 4.7-4.7V32.6c0-2.6-2.1-4.7-4.7-4.7zM67.4 52c0 .8-.6 1.5-1.5 1.5H29.7c-.8 0-1.5-.6-1.5-1.5V32.6c0-.8.6-1.5 1.5-1.5H66c.8 0 1.5.6 1.5 1.5L67.4 52z"/><g fill="#C6C6C6"><path d="M38.7 28l11.7-11.6-4.1-4.1L30.7 28zM25.2 33.7l-9.1 8.9 4.1 4 5-4.9z"/></g><path fill="#C6C6C6" d="M46.7 28l2.2-2.3-1.1-1.2-3.4 3.5z"/><path fill="#C6C6C6" d="M25.2 52v-1.5L14.4 39.8c-.9-.9-.9-2.3 0-3.2L40 11c.4-.4 1-.6 1.6-.6s1.1.2 1.6.6l13.7 13.7c.4.4.6 1 .6 1.6s-.2 1.2-.6 1.6v.1h1.9c.2-.8.4-1.1.4-1.7 0-1.1-.4-2-1.1-2.7L44.5 9.8c-.7-.7-1.7-1.1-2.7-1.1-1.1 0-2 .4-2.7 1.1L13.2 35.4c-1.5 1.5-1.5 4 0 5.5l12 11.9V52zM64 38.5c0 .6-.4 1-1 1h-5.9c-.6 0-1-.4-1-1v-3.4c0-.6.5-1 1-1H63c.6 0 1 .5 1 1v3.4z"/><path fill="#C6C6C6" d="M37.4 41.2c0 .4-.3.7-.7.7h-4.4c-.4 0-.7-.3-.7-.7v-2.6c0-.4.3-.7.7-.7h4.3c.4 0 .7.3.7.7l.1 2.6zM31.6 44.6h5.7v1.6h-5.7zM38.9 44.6h5.7v1.6h-5.7zM46.3 44.6h5.5v1.6h-5.5zM53.5 44.6h5.7v1.6h-5.7z"/><path fill="#C6C6C6" d="M6.2 62.3c-2.9-5.7-4.6-12.2-4.6-19 0-23 18.7-41.7 41.7-41.7S85 20.3 85 43.3c0 6.8-1.7 13.3-4.6 19h1.8c2.8-5.7 4.4-12.2 4.4-19C86.6 19.4 67.2 0 43.3 0S0 19.4 0 43.3c0 6.8 1.6 13.3 4.4 19h1.8z"/><path fill="#C6C6C6" d="M82.3 64.5H4.6c-.9 0-1.5-.7-1.5-1.5 0-.9.7-1.5 1.5-1.5h77.8c.9 0 1.5.7 1.5 1.5s-.7 1.5-1.6 1.5z"/>
</symbol>
<symbol id="checkout-hover" viewBox="0 0 112.3 88.3"><circle fill="#1DBFF0" cx="56.7" cy="43.3" r="43.3"/><circle fill="#C5E6EF" cx="56.7" cy="43.3" r="41.7"/><path fill="#FFF" d="M47.4 16.1c-.9 0-21.4 21.8-21.4 22.6l15.3 15.9c0 .8.9-1.1 1.8-1.1h36.3c.8 0 1.5-.6 1.5-1.5l.6-20.2c0-.8-9.2-3.4-10-3.4l.6-3.8-17-15.5-7.7 7z"/><path fill="#08618D" d="M79.4 27.9H43.1c-2.6 0-4.7 2.1-4.7 4.7V52c0 2.6 2.1 4.7 4.7 4.7h36.3c2.6 0 4.7-2.1 4.7-4.7V32.6c0-2.6-2.1-4.7-4.7-4.7zM80.8 52c0 .8-.6 1.5-1.5 1.5H43.1c-.8 0-1.5-.6-1.5-1.5V32.6c0-.8.6-1.5 1.5-1.5h36.3c.8 0 1.5.6 1.5 1.5L80.8 52z"/><g fill="#08618D"><path d="M52.1 28l11.7-11.6-4.1-4.1L44.1 28zM38.6 33.7l-9.1 8.9 4.1 4 5-4.9z"/></g><path fill="#1DBFF0" d="M60.1 28l2.2-2.3-1.1-1.2-3.4 3.5z"/><path fill="#08618D" d="M38.6 52v-1.5L27.8 39.8c-.9-.9-.9-2.3 0-3.2L53.4 11c.4-.4 1-.6 1.6-.6s1.1.2 1.6.6l13.7 13.7c.4.4.6 1 .6 1.6s-.2 1.2-.6 1.6v.1h1.9c.2-.8.4-1.1.4-1.7 0-1.1-.4-2-1.1-2.7L57.9 9.8c-.7-.7-1.7-1.1-2.7-1.1-1.1 0-2 .4-2.7 1.1L26.6 35.4c-1.5 1.5-1.5 4 0 5.5l12 11.9V52z"/><path fill="#1DBFF0" d="M77.4 38.5c0 .6-.4 1-1 1h-5.9c-.6 0-1-.4-1-1v-3.4c0-.6.5-1 1-1h5.9c.6 0 1 .5 1 1v3.4zM50.8 41.2c0 .4-.3.7-.7.7h-4.4c-.4 0-.7-.3-.7-.7v-2.6c0-.4.3-.7.7-.7H50c.4 0 .7.3.7.7l.1 2.6zM45 44.6h5.7v1.6H45zM52.3 44.6H58v1.6h-5.7zM59.7 44.6h5.5v1.6h-5.5zM66.9 44.6h5.7v1.6h-5.7zM13.5 87.3h85.3c6.9 0 12.5-5.6 12.5-12.5s-5.6-12.5-12.5-12.5H13.5C6.6 62.3 1 68 1 74.8c0 6.9 5.6 12.5 12.5 12.5z"/><g fill="#FFF"><path d="M14.8 74.2v1.5c0 1.3.3 2.3.8 2.9s1.3 1 2.2 1c.9 0 1.5-.2 2-.7s.7-1 .7-1.7h1.8v.1c0 .4-.1.7-.2 1.1s-.3.7-.5 1.1c-.2.3-.5.6-.9.9-.3.3-.8.5-1.3.6-.5.2-1 .2-1.6.2-1.5 0-2.7-.5-3.5-1.4s-1.3-2.3-1.3-4v-1.5c0-1.7.4-3.1 1.3-4 .9-1 2-1.4 3.5-1.4.7 0 1.3.1 1.9.3s1.1.5 1.4.9c.4.4.6.8.8 1.3.2.5.3 1 .3 1.5v.1h-1.8c0-.3-.1-.6-.2-.9s-.3-.6-.5-.8c-.2-.2-.5-.4-.9-.6-.4-.1-.7-.2-1.2-.2-.9 0-1.6.3-2.2 1s-.6 1.4-.6 2.7zM33.7 80.9h-1.8v-5.4h-5.7v5.4h-1.8V69h1.8v5h5.7v-5h1.8v11.9zM43.8 79.4v1.5h-7.3V69h7.3v1.5h-5.5v3.6h5.2v1.5h-5.2v3.8h5.5zM47.5 74.2v1.5c0 1.3.3 2.3.8 2.9s1.3 1 2.2 1 1.5-.2 2-.7.7-1 .7-1.7H55v.1c0 .4-.1.7-.2 1.1-.1.4-.3.7-.5 1.1-.2.3-.5.6-.9.9-.3.3-.8.5-1.3.6-.5.2-1 .2-1.6.2-1.5 0-2.7-.5-3.5-1.4s-1.3-2.3-1.3-4v-1.5c0-1.7.4-3.1 1.3-4 .9-1 2-1.4 3.5-1.4.7 0 1.3.1 1.9.3s1.1.5 1.4.9c.4.4.6.8.8 1.3s.3 1 .3 1.5v.1h-1.8c0-.3-.1-.6-.2-.9-.1-.3-.3-.6-.5-.8-.2-.2-.5-.4-.9-.6-.4-.1-.7-.2-1.2-.2-.9 0-1.6.3-2.2 1-.3.5-.6 1.4-.6 2.7zM66.1 69l-4.4 5.1 4.6 6.8H64l-3.7-5.6-1.4 1.5v4.1h-1.8V69h1.8v5.6h.1l5-5.6h2.1zM67.2 75.8v-1.7c0-1.7.4-3 1.3-4s2.1-1.5 3.6-1.5 2.7.5 3.6 1.4 1.3 2.3 1.3 4v1.7c0 1.7-.4 3-1.3 3.9S73.6 81 72.1 81s-2.7-.5-3.6-1.4c-.9-.8-1.3-2.1-1.3-3.8zm1.8-1.7v1.7c0 1.2.3 2.2.8 2.8.6.6 1.3 1 2.2 1 .9 0 1.7-.3 2.2-1 .6-.6.8-1.6.8-2.8v-1.7c0-1.2-.3-2.2-.9-2.8-.6-.7-1.3-1-2.2-1-.9 0-1.6.3-2.2 1-.4.7-.7 1.6-.7 2.8zM80.9 69v7.7c0 .9.3 1.6.8 2.1s1.2.8 2.1.8 1.6-.3 2.1-.8.8-1.2.8-2.1V69h1.8v7.9c0 1.3-.4 2.3-1.2 3.1-.8.8-2 1.2-3.4 1.2s-2.5-.4-3.4-1.2c-.8-.8-1.2-1.8-1.2-3.1V69h1.6zM95.3 80.9h-1.8V70.5H90V69h8.9v1.6h-3.6v10.3z"/></g>
</symbol>
<symbol id="checkout-mob" viewBox="0 0 65.4 55.2"><path fill="#FFF" d="M26.2 5.6c-.7 0-16.3 16.6-16.3 17.2l11.6 12.1c0 .6.7-.8 1.4-.8h27.6c.6 0 1.1-.5 1.1-1.1l.5-15.4c0-.6-7-2.6-7.6-2.6l.5-2.9L32 .3l-5.8 5.3z"/><path fill="#08618D" d="M50.5 14.6H22.9c-2 0-3.6 1.6-3.6 3.6V33c0 2 1.6 3.6 3.6 3.6h27.6c2 0 3.6-1.6 3.6-3.6V18.2c0-2-1.6-3.6-3.6-3.6zM51.6 33c0 .6-.5 1.1-1.1 1.1H22.9c-.6 0-1.1-.5-1.1-1.1V18.2c0-.6.5-1.1 1.1-1.1h27.6c.6 0 1.1.5 1.1 1.1V33z"/><g fill="#08618D"><path d="M29.8 14.7l8.9-8.8-3.2-3.2-11.8 12zM19.5 19l-6.9 6.8 3.1 3 3.8-3.7z"/></g><path fill="#1DBFF0" d="M35.8 14.7l1.7-1.8-.8-.9-2.6 2.7z"/><path fill="#08618D" d="M19.5 33v-1.1l-8.2-8.1c-.7-.7-.7-1.8 0-2.4L30.7 1.8c.3-.3.8-.5 1.2-.5.5 0 .8.2 1.2.5l10.4 10.4c.3.3.5.8.5 1.2 0 .5-.2.9-.5 1.2v.1h1.4c.2-.6.3-.8.3-1.3 0-.8-.3-1.5-.8-2.1L34.2.8c-.6-.5-1.3-.8-2.1-.8s-1.5.3-2.1.8L10.4 20.3c-1.1 1.1-1.1 3 0 4.2l9.1 9.1V33z"/><path fill="#1DBFF0" d="M49 22.7c0 .5-.3.8-.8.8h-4.5c-.5 0-.8-.3-.8-.8v-2.6c0-.5.4-.8.8-.8h4.5c.5 0 .8.4.8.8v2.6zM28.8 24.7c0 .3-.2.5-.5.5H25c-.3 0-.5-.2-.5-.5v-2c0-.3.2-.5.5-.5h3.3c.3 0 .5.2.5.5v2zM24.4 27.3h4.3v1.2h-4.3zM29.9 27.3h4.3v1.2h-4.3zM35.5 27.3h4.2v1.2h-4.2zM41 27.3h4.3v1.2H41z"/><g fill="#FFF"><path d="M1.4 49.9V51c0 1 .2 1.8.6 2.2s1 .8 1.7.8 1.1-.2 1.5-.5c.4-.4.5-.8.5-1.3h1.4v.1c0 .3-.1.5-.2.8s-.2.5-.4.8c-.2.2-.4.5-.7.7-.2.2-.6.4-1 .5-.4.2-.8.2-1.2.2-1.1 0-2.1-.4-2.7-1.1-.6-.7-1-1.8-1-3v-1.1c0-1.3.3-2.4 1-3 .7-.8 1.5-1.1 2.7-1.1.5 0 1 .1 1.4.2.5.2.8.4 1.1.7.3.3.5.6.6 1 .2.2.3.6.3 1v.1H5.6c0-.2-.1-.5-.2-.7-.1-.2-.2-.5-.4-.6s-.4-.3-.7-.5c-.2-.1-.4-.2-.8-.2-.7 0-1.2.2-1.7.8-.4.5-.4 1.1-.4 2.1zM15.8 55h-1.4v-4.1H10V55H8.7v-9.1H10v3.8h4.3v-3.8h1.4V55zM23.4 53.8V55h-5.6v-9.1h5.6V47h-4.2v2.7h4v1.1h-4v2.9h4.2zM26.3 49.9V51c0 1 .2 1.8.6 2.2.4.5 1 .8 1.7.8s1.1-.2 1.5-.5c.4-.4.5-.8.5-1.3H32v.1c0 .3-.1.5-.2.8-.1.3-.2.5-.4.8-.2.2-.4.5-.7.7-.2.2-.6.4-1 .5-.4.2-.8.2-1.2.2-1.1 0-2.1-.4-2.7-1.1-.6-.7-1-1.8-1-3v-1.1c0-1.3.3-2.4 1-3 .7-.8 1.5-1.1 2.7-1.1.5 0 1 .1 1.4.2s.8.4 1.1.7c.3.3.5.6.6 1s.2.8.2 1.1v.1h-1.4c0-.2-.1-.5-.2-.7-.1-.2-.2-.5-.4-.6s-.4-.3-.7-.5c-.1-.2-.3-.3-.7-.3-.7 0-1.2.2-1.7.8-.2.4-.4 1.1-.4 2.1zM40.4 45.9l-3.3 3.9 3.5 5.2h-1.8L36 50.7l-1.1 1.1V55h-1.4v-9.1h1.4v4.3h.1l3.8-4.3h1.6zM41.3 51.1v-1.3c0-1.3.3-2.3 1-3 .7-.8 1.6-1.1 2.7-1.1s2.1.4 2.7 1.1c.7.7 1 1.8 1 3V51c0 1.3-.3 2.3-1 3s-1.6 1-2.7 1-2.1-.4-2.7-1.1c-.7-.5-1-1.5-1-2.8zm1.3-1.3v1.3c0 .9.2 1.7.6 2.1.5.5 1 .8 1.7.8s1.3-.2 1.7-.8c.5-.5.6-1.2.6-2.1v-1.3c0-.9-.2-1.7-.7-2.1-.5-.5-1-.8-1.7-.8s-1.2.2-1.7.8c-.2.5-.5 1.2-.5 2.1zM51.7 45.9v5.9c0 .7.2 1.2.6 1.6.4.4.9.6 1.6.6.7 0 1.2-.2 1.6-.6s.6-.9.6-1.6v-5.9h1.4v6c0 1-.3 1.8-.9 2.4-.6.6-1.5.9-2.6.9s-1.9-.3-2.6-.9c-.6-.6-.9-1.4-.9-2.4v-6h1.2zM62.6 55h-1.4v-8h-2.7v-1.1h6.8v1.2h-2.7V55z"/></g>
</symbol>
<symbol id="checkout" viewBox="0 0 112.3 88.3"><circle fill="#1DBFF0" cx="56.7" cy="43.3" r="43.3"/><circle fill="#C5E6EF" cx="56.7" cy="43.3" r="41.7"/><path fill="#FFF" d="M47.4 16.1c-.9 0-21.4 21.8-21.4 22.6l15.3 15.9c0 .8.9-1.1 1.8-1.1h36.3c.8 0 1.5-.6 1.5-1.5l.6-20.2c0-.8-9.2-3.4-10-3.4l.6-3.8-17-15.5-7.7 7z"/><path fill="#08618D" d="M79.4 27.9H43.1c-2.6 0-4.7 2.1-4.7 4.7V52c0 2.6 2.1 4.7 4.7 4.7h36.3c2.6 0 4.7-2.1 4.7-4.7V32.6c0-2.6-2.1-4.7-4.7-4.7zM80.8 52c0 .8-.6 1.5-1.5 1.5H43.1c-.8 0-1.5-.6-1.5-1.5V32.6c0-.8.6-1.5 1.5-1.5h36.3c.8 0 1.5.6 1.5 1.5L80.8 52z"/><g fill="#08618D"><path d="M52.1 28l11.7-11.6-4.1-4.1L44.1 28zM38.6 33.7l-9.1 8.9 4.1 4 5-4.9z"/></g><path fill="#1DBFF0" d="M60.1 28l2.2-2.3-1.1-1.2-3.4 3.5z"/><path fill="#08618D" d="M38.6 52v-1.5L27.8 39.8c-.9-.9-.9-2.3 0-3.2L53.4 11c.4-.4 1-.6 1.6-.6s1.1.2 1.6.6l13.7 13.7c.4.4.6 1 .6 1.6s-.2 1.2-.6 1.6v.1h1.9c.2-.8.4-1.1.4-1.7 0-1.1-.4-2-1.1-2.7L57.9 9.8c-.7-.7-1.7-1.1-2.7-1.1-1.1 0-2 .4-2.7 1.1L26.6 35.4c-1.5 1.5-1.5 4 0 5.5l12 11.9V52z"/><path fill="#1DBFF0" d="M77.4 38.5c0 .6-.4 1-1 1h-5.9c-.6 0-1-.4-1-1v-3.4c0-.6.5-1 1-1h5.9c.6 0 1 .5 1 1v3.4zM50.8 41.2c0 .4-.3.7-.7.7h-4.4c-.4 0-.7-.3-.7-.7v-2.6c0-.4.3-.7.7-.7H50c.4 0 .7.3.7.7l.1 2.6zM45 44.6h5.7v1.6H45zM52.3 44.6H58v1.6h-5.7zM59.7 44.6h5.5v1.6h-5.5zM66.9 44.6h5.7v1.6h-5.7z"/><path fill="#FFF" stroke="#1DBFF0" stroke-width="2" stroke-miterlimit="10" d="M13.5 87.3h85.3c6.9 0 12.5-5.6 12.5-12.5s-5.6-12.5-12.5-12.5H13.5C6.6 62.3 1 68 1 74.8c0 6.9 5.6 12.5 12.5 12.5z"/><g fill="#08618D"><path d="M14.8 74.2v1.5c0 1.3.3 2.3.8 2.9s1.3 1 2.2 1c.9 0 1.5-.2 2-.7s.7-1 .7-1.7h1.8v.1c0 .4-.1.7-.2 1.1s-.3.7-.5 1.1c-.2.3-.5.6-.9.9-.3.3-.8.5-1.3.6-.5.2-1 .2-1.6.2-1.5 0-2.7-.5-3.5-1.4s-1.3-2.3-1.3-4v-1.5c0-1.7.4-3.1 1.3-4 .9-1 2-1.4 3.5-1.4.7 0 1.3.1 1.9.3s1.1.5 1.4.9c.4.4.6.8.8 1.3.2.5.3 1 .3 1.5v.1h-1.8c0-.3-.1-.6-.2-.9s-.3-.6-.5-.8c-.2-.2-.5-.4-.9-.6-.4-.1-.7-.2-1.2-.2-.9 0-1.6.3-2.2 1s-.6 1.4-.6 2.7zM33.7 80.9h-1.8v-5.4h-5.7v5.4h-1.8V69h1.8v5h5.7v-5h1.8v11.9zM43.8 79.4v1.5h-7.3V69h7.3v1.5h-5.5v3.6h5.2v1.5h-5.2v3.8h5.5zM47.5 74.2v1.5c0 1.3.3 2.3.8 2.9s1.3 1 2.2 1 1.5-.2 2-.7.7-1 .7-1.7H55v.1c0 .4-.1.7-.2 1.1-.1.4-.3.7-.5 1.1-.2.3-.5.6-.9.9-.3.3-.8.5-1.3.6-.5.2-1 .2-1.6.2-1.5 0-2.7-.5-3.5-1.4s-1.3-2.3-1.3-4v-1.5c0-1.7.4-3.1 1.3-4 .9-1 2-1.4 3.5-1.4.7 0 1.3.1 1.9.3s1.1.5 1.4.9c.4.4.6.8.8 1.3s.3 1 .3 1.5v.1h-1.8c0-.3-.1-.6-.2-.9-.1-.3-.3-.6-.5-.8-.2-.2-.5-.4-.9-.6-.4-.1-.7-.2-1.2-.2-.9 0-1.6.3-2.2 1-.3.5-.6 1.4-.6 2.7zM66.1 69l-4.4 5.1 4.6 6.8H64l-3.7-5.6-1.4 1.5v4.1h-1.8V69h1.8v5.6h.1l5-5.6h2.1zM67.2 75.8v-1.7c0-1.7.4-3 1.3-4s2.1-1.5 3.6-1.5 2.7.5 3.6 1.4 1.3 2.3 1.3 4v1.7c0 1.7-.4 3-1.3 3.9S73.6 81 72.1 81s-2.7-.5-3.6-1.4c-.9-.8-1.3-2.1-1.3-3.8zm1.8-1.7v1.7c0 1.2.3 2.2.8 2.8.6.6 1.3 1 2.2 1 .9 0 1.7-.3 2.2-1 .6-.6.8-1.6.8-2.8v-1.7c0-1.2-.3-2.2-.9-2.8-.6-.7-1.3-1-2.2-1-.9 0-1.6.3-2.2 1-.4.7-.7 1.6-.7 2.8zM80.9 69v7.7c0 .9.3 1.6.8 2.1s1.2.8 2.1.8 1.6-.3 2.1-.8.8-1.2.8-2.1V69h1.8v7.9c0 1.3-.4 2.3-1.2 3.1-.8.8-2 1.2-3.4 1.2s-2.5-.4-3.4-1.2c-.8-.8-1.2-1.8-1.2-3.1V69h1.6zM95.3 80.9h-1.8V70.5H90V69h8.9v1.6h-3.6v10.3z"/></g>
</symbol>
<symbol id="cover-letter-service" viewBox="0 0 266.5 242.4"><path fill="#C5E6EF" d="M193.8 232.8H52.3c-5.8 0-10.5-4.7-10.5-10.5v-68.1L123 183l81.2-28.8v68.1c0 5.9-4.7 10.5-10.4 10.5z"/><path fill="#08618D" d="M193.8 234.6H52.3c-6.7 0-12.2-5.5-12.2-12.2v-70.6l83 29.4 83-29.4v70.6c-.1 6.7-5.6 12.2-12.3 12.2zM43.5 156.7v65.7c0 4.8 3.9 8.8 8.8 8.8h141.5c4.8 0 8.8-3.9 8.8-8.8v-65.7L123 184.9l-.6-.2-78.9-28z"/><path fill="#FFF" d="M191.1 217.1v5.3"/><path fill="#08618D" d="M189.4 217.1h3.5v5.2h-3.5z"/><path fill="#FFF" d="M180.7 217.1v5.3"/><path fill="#08618D" d="M178.9 217.1h3.5v5.2h-3.5z"/><path fill="#FFF" d="M170.2 217.1v5.3"/><path fill="#08618D" d="M168.4 217.1h3.5v5.2h-3.5z"/><path fill="#FFF" d="M187.2 71.2c-6.5 10.5-13.6 21.9-13.6 21.9-19.4-3.8-34.1.8-40.9 3.7 1.9 2.8 1.5 6.5-1.1 8.8-2.9 2.6-7.5 2.4-10.2-.4l-1.9-2c-2.7-2.8-2.5-7.2.4-9.8 2.6-2.3 6.5-2.4 9.3-.4 2.4-4.3 5.9-12.1 7.2-22.6H62.7c-5.8 0-10.5 4.7-10.5 10.5v76l70.5 27.2 71-27.2v-76c.1-4.4-2.7-8.2-6.5-9.7z"/><path fill="#08618D" d="M122.7 185.9L50.5 158V80.9c0-6.7 5.5-12.2 12.2-12.2h75.4l-.2 1.9c-1.2 10.6-4.7 18.5-7.4 23.3l-1 1.7-1.6-1.2c-2.1-1.6-5.1-1.4-7.1.3a4.6 4.6 0 0 0-1.7 3.6c-.1 1.4.5 2.7 1.4 3.7l1.9 2c2.1 2.2 5.6 2.3 7.8.3 1.9-1.7 2.3-4.5.9-6.6L130 96l1.9-.8c7.1-3 21.7-7.5 40.8-4 1.9-3 7.7-12.3 13-20.9l.8-1.2 1.4.5c4.7 1.9 7.7 6.3 7.7 11.3V158l-72.9 27.9zM54 155.7l68.7 26.5 69.3-26.5V80.9c0-3.1-1.6-5.9-4.2-7.5-6.2 10-12.8 20.5-12.8 20.6l-.6 1-1.2-.2c-17.3-3.4-30.9.1-38.2 2.9 1.2 3.2.3 6.8-2.4 9.2-3.6 3.2-9.2 3-12.6-.5l-1.9-2c-1.6-1.7-2.5-3.9-2.4-6.3.1-2.3 1.1-4.5 2.9-6 2.7-2.4 6.5-2.9 9.7-1.5 2.2-4.3 4.7-10.5 5.9-18.5H62.7c-4.8 0-8.8 3.9-8.8 8.8v74.8z"/><path fill="#1DBFF0" d="M224 38.1l-26.8-27.9-24.9 22.1 26.8 27.9"/><path fill="#08618D" d="M199 62.6l-29.2-30.4 27.5-24.4 29.2 30.4L199 62.6zm-24.2-30.2l24.4 25.4L221.5 38l-24.4-25.4-22.3 19.8z"/><path fill="#FFF" d="M75.8 130.7h94.4"/><path fill="#08618D" d="M75.8 128.9h94.3v3.5H75.8z"/><path fill="#FFF" d="M75.8 141.1h94.4"/><path fill="#08618D" d="M75.8 139.4h94.3v3.5H75.8z"/><path fill="#FFF" d="M75.8 151.6h94.4"/><path fill="#08618D" d="M75.8 149.9h94.3v3.5H75.8z"/><path fill="#FFF" stroke="#08618D" stroke-width="2" stroke-miterlimit="10" d="M96.8 162.1h52.4"/><path fill="#FFF" d="M190.9 52.4l-4.7-4.9-1.8-1.9-6-6.3-3.4-3.5c-10.3 4.5-38.9 18.3-38.9 18.3 2.4 18.9-3.5 32.6-7.1 39-2.7-2-6.6-1.9-9.3.4-2.9 2.6-3.1 7-.4 9.8l1.9 2c2.7 2.8 7.3 3 10.2.4 2.6-2.3 3-6.1 1.1-8.8 6.8-2.9 21.6-7.5 40.9-3.7 0 0 16.6-26.3 22-35.8l-4.5-5zM159.4 76c-4.7-.3-8.3-4.3-7.9-8.8.3-4.5 4.4-7.9 9.1-7.6 4.7.3 8.3 4.3 7.9 8.8-.3 4.6-4.4 8-9.1 7.6z"/><path fill="#08618D" d="M126.6 109.2c-2.4 0-4.8-.9-6.6-2.8l-1.9-2c-1.6-1.7-2.5-3.9-2.4-6.3.1-2.3 1.1-4.5 2.9-6 2.7-2.4 6.5-2.9 9.7-1.5 3.5-6.8 8.2-19.5 6-36.4l-.2-1.2 1.1-.5c.3-.1 28.7-13.9 38.9-18.3l1.1-.5L197.7 57l-.6 1.1c-5.4 9.4-21.9 35.6-22.1 35.9l-.6 1-1.2-.2c-17.3-3.4-30.9.1-38.2 2.9 1.2 3.2.3 6.8-2.4 9.2-1.7 1.5-3.9 2.3-6 2.3zm-2-15.9c-1.3 0-2.7.5-3.7 1.4a4.6 4.6 0 0 0-1.7 3.6c-.1 1.4.5 2.7 1.4 3.7l1.9 2c2.1 2.2 5.6 2.3 7.8.3 1.9-1.7 2.3-4.5.9-6.6L130 96l1.9-.8c7.1-3 21.7-7.5 40.8-4 2.9-4.7 15.5-24.7 20.7-33.7l-18.9-19.6c-9.7 4.3-31.4 14.8-36.6 17.2 2 18.6-3.7 32.2-7.4 38.8l-1 1.7-1.6-1.2c-.9-.7-2.1-1.1-3.3-1.1zm35.5-15.5h-.8c-5.6-.4-9.9-5.2-9.5-10.6.4-5.5 5.3-9.6 10.9-9.2 5.6.4 9.9 5.2 9.5 10.6-.3 5.2-4.8 9.2-10.1 9.2zm-.1-16.4c-3.5 0-6.5 2.6-6.7 6-.3 3.6 2.6 6.7 6.3 7 3.7.3 7-2.4 7.3-6 .3-3.6-2.6-6.7-6.3-7h-.6z"/>
</symbol>
<symbol id="get-hired" viewBox="0 0 121.3 121.2"><path fill="#FFF" d="M91 76.5c-.8-5.4-3.9-8.9-9.1-10.4-4-1.2-10.7-3.4-11.3-3.7-.3-.2-.6-1.7-.5-3.1 2.1-2.1 3.6-4.9 4-7.8 1-.2 2-1.3 2.5-2.7.4-1.1.5-2.2.3-3 .7-1.6 5.8-13.8-6.1-21.4-4.1-2.6-9.2-3.4-13.9-2.1-3.7 1.2-6.7 3.6-8.3 6.9-3.5 2.3-4.3 10.1-1.7 16.3-.4.9-.3 2.1.2 3.4.6 1.4 1.5 2.4 2.5 2.7.4 3 2 5.8 4.2 7.9 0 1.4-.2 2.7-.5 2.9-.6.3-7.3 2.4-11.3 3.7-5.2 1.5-8.3 5-9.2 10.4l-1.6 12.9c-.1 1.3.3 2.6 1.2 3.5.9 1 2.1 1.5 3.4 1.5h52.1c1.3 0 2.6-.5 3.4-1.5.9-1 1.3-2.2 1.2-3.6L91 76.5z"/><path fill="#1DBFF0" d="M58.9 86.9l-7.9-11 2.6-4-3.4-3.6 2-2.6z"/><path fill="#C5E6EF" d="M55.3 60.8c1.9 1.5 4.2 2.4 6.4 2.4h.3c2.3 0 4.5-.9 6.5-2.5.1.7.2 1.5.5 2.1l-6 6.6h-2.1l-6-6.6c.2-.6.4-1.3.4-2zM65.3 81l-.7-8.4 2.6 2.5zM56.8 75l2.6-2.5-.7 8.5z"/><path fill="#08618D" d="M59.9 84.9L61 71h2l1.1 13.8-2.1 6.6z"/><path fill="#1DBFF0" d="M71.9 65.6l1.9 2.7-3.4 3.6 2.6 4L65 87z"/><path fill="#C5E6EF" d="M70.7 64.2l-3 9.3-3.3-3.2v-.1l5.7-6.2c.1 0 .4.1.6.2z"/><path fill="#08618D" d="M49.6 30.4l.2-.1.1-.2c1.4-3 4.1-5.2 7.6-6.1 4.2-1.2 8.9-.5 12.6 1.9 9.7 6.2 7 15.7 5.8 18.7 0 0-.1 0-.1-.1-.5-.2-1-.2-1.6.1v-.9c0-5.2-6.9-5.4-11.5-5.5h-1.4c-6.3-.2-8.3-.3-8.9-2.7l-.2-.7h-.6c-.7.1-1.3.5-1.7 1.2-1.5 2.4-.6 7.5-.4 8.4-.5-.2-.9-.2-1.4-.1-2.2-5.8-1.2-12.4 1.5-13.9z"/><path fill="#C5E6EF" d="M51 50l-.9.2c-.4 0-1.1-.6-1.6-1.8-.5-1.3-.3-2.4.1-2.6.2 0 .6.2 1 .8l1.4 1.8v-4.2c-.3-1.5-.9-5.7.1-7.4 0-.1.1-.1.1-.2 1.2 2.7 4.5 2.8 10 2.9h1.4c6.3.2 10 .9 10 3.9v4.8l1.4-1.8c.4-.5.8-.8 1.1-.7.3.1.6 1.2 0 2.6-.5 1.2-1.2 1.8-1.6 1.8l-.9-.2v.9c-.5 5.6-5.7 10.8-10.6 10.8h-.3c-5 0-10.1-5.3-10.6-10.8L51 50zM53.8 63.9l5.7 6.3-3.3 3.2-3-9.3c.3-.1.4-.1.6-.2zM33.6 91.9c-.6-.6-.9-1.5-.8-2.3l1.6-12.8c.7-4.8 3.4-7.8 8.1-9.2 1.6-.5 5.4-1.7 8.3-2.6l-2.6 3.4 3.5 3.7-2.5 3.8 11.3 15.7.4 1.3h-25c-.9 0-1.8-.3-2.3-1zM90.3 91.9c-.6.6-1.4 1-2.3 1H63.1l.4-1.2 11.3-15.8-2.5-3.8 3.5-3.7-2.5-3.3c2.8.9 6.5 2.1 8.1 2.6 4.7 1.3 7.3 4.3 8.1 9.1l1.6 12.8c.1.8-.2 1.7-.8 2.3z"/><path fill="#08618D" d="M79.8 84.3l-2 2.3-1.3-1.2-3 3.3h-.8v1.5h11.8v-1.5h-.6l-4.1-4.4zm.1 2.3l1.9 2.1h-3.6l1.7-2.1zm-3.3 1l1.3 1.1h-2.4l1.1-1.1z"/>
</symbol>
<symbol id="job-interview-prep" viewBox="0 0 266.5 242.4"><path fill="#08618D" d="M17 72.6c-6.6 0-12 5.4-12 12V200c0 6.6 5.4 12 12 12h72.1v24h-9.6c-1.3 0-2.4 1.1-2.4 2.4 0 1.3 1.1 2.4 2.4 2.4h57.7c1.3 0 2.4-1.1 2.4-2.4 0-1.3-1.1-2.4-2.4-2.4h-9.6v-24h72.1c6.6 0 12-5.4 12-12V84.6c0-6.6-5.4-12-12-12H17z"/><path fill="#FFF" d="M17 77.4h182.7c4 0 7.2 3.2 7.2 7.2v93.8H9.8V84.6c0-4.1 3.2-7.2 7.2-7.2z"/><path fill="#C5E6EF" d="M9.8 183.2H207V200c0 4-3.2 7.2-7.2 7.2H17c-4 0-7.2-3.2-7.2-7.2v-16.8z"/><circle cx="108.4" cy="195.2" r="4.8" fill="#08618D"/><path fill="#C5E6EF" d="M94 212h28.9v24H94z"/><path fill="none" d="M99.2-1.5h172.4v172.4H99.2z"/><path fill="#08618D" d="M257.4 80.1v-4c0-9.7-1.9-19.2-5.7-28.1-3.6-8.6-8.8-16.3-15.4-22.9-6.6-6.6-14.3-11.8-22.9-15.4-8.9-3.8-18.3-5.7-28.1-5.7-9.7 0-19.2 1.9-28.1 5.7-8.6 3.6-16.3 8.8-22.9 15.4S122.6 39.4 119 48c-3.8 8.9-5.7 18.3-5.7 28.1v.4h4.5v-.4c0-3.7.3-7.4.9-10.9h.4c1.7 0 3.5-.4 5-1.2 2.5-1.3 4.3-3.4 5.3-6 .1-.2.1-.4.1-.6 8.1-24 30.4-40.1 55.7-40.1 25.3 0 47.8 16.2 55.8 40.2v.1c1 3.2 3.5 5.7 6.7 6.9 1.2.5 2.5.7 3.8.7h.3c.6 3.5.9 7.2.9 10.9v21.2c-2.3-3-5.4-5.5-9.1-7v-6.7c0-1.3-1-2.3-2.3-2.3h-12.2c-1.2 0-2.3 1-2.3 2.3v54.2c0 1.3 1 2.3 2.3 2.3h12.2c1.2 0 2.3-1 2.3-2.3v-6.7c3.2-1.3 6-3.4 8.1-5.9-4.3 25.8-26.8 45.6-53.8 45.6h-4.8c.9-1.5 1.5-3.2 1.5-5.1 0-5.3-4.3-9.6-9.6-9.6s-9.6 4.3-9.6 9.6 4.3 9.6 9.6 9.6h12.9c15.8 0 30.6-6.1 41.8-17.3 11.2-11.2 17.3-26 17.3-41.8 0-.4-.1-.8-.3-1.1.3-1.5.5-3 .5-4.5V80.1z"/><path fill="#FFF" d="M249.4 60.2c-2-.8-3.6-2.5-4.1-4.6 0-.2-.1-.4-.2-.6-2.1-5.9-5-11.4-8.7-16.4-3.8-5.2-8.5-9.9-13.7-13.7-10.9-8-23.8-12.2-37.4-12.2-13.7 0-26.7 4.3-37.6 12.4-5.3 3.9-9.9 8.6-13.7 13.9-3.9 5.4-6.9 11.3-8.9 17.6 0 .1 0 .2-.1.2-1 2.1-3.1 3.5-5.4 3.7 7-29.8 33.8-52.1 65.7-52.1 31.9 0 58.7 22.3 65.7 52.1-.5.1-1.1-.1-1.6-.3zm-10.1 69v6.4h-7.7V86h7.7v43.2z"/><ellipse cx="185.2" cy="165.8" fill="#FFF" rx="5.1" ry="5.1"/><path fill="#FFF" d="M242 127V94.5c6.5 2.7 10.8 9.1 10.8 16.2s-4.2 13.6-10.8 16.3z"/><path fill="#08618D" d="M97.9 103.7c-3.1 0-5.8 2.6-5.8 5.8v2.5H76.5c-3.1 0-5.8 2.6-5.8 5.8v29.6c0 3.1 2.6 5.8 5.8 5.8h4.1v7.4c0 1.4 1.1 2.5 2.5 2.5.5 0 1.1-.2 1.5-.5l12.5-9.4h20.5c2.8 0 5.1-2 5.6-4.6l7.7 5.8c1.1.8 2.6.6 3.5-.5.3-.4.5-1 .5-1.5V145h4.1c3.1 0 5.8-2.6 5.8-5.8v-29.6c0-3.1-2.6-5.8-5.8-5.8H97.9z"/><path fill="#1DBFF0" d="M97.9 108.6H139c.5 0 .8.3.8.8V139c0 .5-.3.8-.8.8h-6.6c-1.4 0-2.5 1.1-2.5 2.5v4.9l-6.6-4.9v-24.7c0-3.1-2.6-5.8-5.8-5.8H97.1v-2.5c0-.3.3-.7.8-.7z"/><path fill="#1DBFF0" d="M76.5 116.9h41.1c.5 0 .8.3.8.8v29.6c0 .5-.3.8-.8.8H96.3c-.5 0-1.1.2-1.5.5l-9.2 6.9v-4.9c0-1.4-1.1-2.5-2.5-2.5h-6.6c-.5 0-.8-.3-.8-.8v-29.6c0-.5.3-.8.8-.8z"/><circle cx="85.6" cy="132.5" r="3.3" fill="#08618D"/><circle cx="97.1" cy="132.5" r="3.3" fill="#08618D"/><circle cx="108.6" cy="132.5" r="3.3" fill="#08618D"/>
</symbol>
<symbol id="linkedin-button" viewBox="0 0 102 102"><path fill="#FFF" d="M22.5 102h57c12.4 0 22.5-10.1 22.5-22.5v-57C102 10.1 91.9 0 79.5 0h-57C10.1 0 0 10.1 0 22.5v57C0 91.9 10.1 102 22.5 102z"/><path fill="#08618D" d="M20.2 38.7h13.2v42.4H20.2V38.7zm6.6-21c4.2 0 7.6 3.4 7.6 7.6s-3.4 7.6-7.6 7.6-7.6-3.4-7.6-7.6c-.1-4.2 3.3-7.6 7.6-7.6M41.6 38.7h12.6v5.8h.2c1.8-3.3 6.1-6.8 12.5-6.8 13.3 0 15.8 8.8 15.8 20.2v23.2H69.5V60.5c0-4.9-.1-11.2-6.8-11.2-6.9 0-7.9 5.4-7.9 10.9v21H41.6V38.7z"/>
</symbol>
<symbol id="linkedin-profile-makeover" viewBox="0 0 266.5 242.4"><path fill="#FFF" d="M122.4 190.1h115.9c5.7 0 10.3-4.6 10.3-10.3V53.5c0-5.7-4.6-10.3-10.3-10.3H122.4c-5.7 0-10.3 4.6-10.3 10.3v126.3c.1 5.7 4.7 10.3 10.3 10.3z"/><path fill="#08618D" d="M231.6 191.7H129.2c-10.3 0-18.6-8.3-18.6-18.6V60.2c0-10.3 8.3-18.6 18.6-18.6h102.4c10.3 0 18.6 8.3 18.6 18.6v112.9c0 10.3-8.3 18.6-18.6 18.6zM129.2 44.9c-8.4 0-15.3 6.9-15.3 15.3v112.9c0 8.4 6.9 15.3 15.3 15.3h102.4c8.4 0 15.3-6.9 15.3-15.3V60.2c0-8.4-6.9-15.3-15.3-15.3H129.2z"/><path fill="#C5E6EF" stroke="#08618D" stroke-width="2" stroke-miterlimit="10" d="M161.4 172.6h58c5.7 0 10.3-4.6 10.3-10.3V78.6c0-5.7-4.6-10.3-10.3-10.3h-58c-5.7 0-10.3 4.6-10.3 10.3v83.7c0 5.7 4.6 10.3 10.3 10.3z"/><path fill="#08618D" d="M212.6 174.2H168c-10.3 0-18.6-8.3-18.6-18.6V85.3c0-10.3 8.3-18.6 18.6-18.6h44.6c10.3 0 18.6 8.3 18.6 18.6v70.3c0 10.3-8.3 18.6-18.6 18.6zM168.1 70c-8.4 0-15.3 6.9-15.3 15.3v70.3c0 8.4 6.9 15.3 15.3 15.3h44.6c8.4 0 15.3-6.9 15.3-15.3V85.3c0-8.4-6.9-15.3-15.3-15.3h-44.6z"/><path fill="#1DBFF0" d="M180.6 120.6h7.7v24.9h-7.7v-24.9zm3.9-12.4c2.5 0 4.5 2 4.5 4.5s-2 4.5-4.5 4.5-4.5-2-4.5-4.5 2-4.5 4.5-4.5m8.7 12.4h7.4v3.4h.1c1-2 3.6-4 7.3-4 7.8 0 9.3 5.2 9.3 11.8v13.6h-7.7v-12.1c0-2.9-.1-6.6-4-6.6-4 0-4.6 3.1-4.6 6.4v12.3h-7.7v-24.8z"/><path fill="#08618D" d="M17.1 185.3c0 .3.9 2.8 1.1 3 2.2 2.9 5.4 4.5 9 4.5h70c7.5 4.9 16.3 7.8 25.7 7.8 26.5-.2 47.9-22.2 47.9-49 0-19.6-11.4-37.1-29-44.7V79.7h3.3c1.1 0 2-.9 2-2 0-1.2-.8-1.9-2-1.9h-43.9c-1.1 0-2 .9-2 2 0 1.2.8 1.9 2 1.9h3.3v27.1c-1.8.8-3.5 1.8-5.3 2.7l-6.3-18.2c-1.6-4.3-2.2-8.8-2.2-13.3V52.4H95c1.1 0 2-.9 2-2 0-1.2-.8-1.9-2-1.9H44.1c-1.1 0-2 .9-2 2 0 1.2.8 1.9 2 1.9h4.1v26.1c0 4.5-.8 9-2.2 13.3l-29.4 84.6c-.2.5-.4 2.9-.2 4.8l.7 4.1z"/><path fill="#FFF" d="M20.1 178.4L49.7 93c1.6-4.7 2.4-9.6 2.4-14.5v-.8h10.8c1.2 0 2-.8 2-2s-.8-2-2-2H52v-8.6h10.8c1.2 0 2-.8 2-2s-.8-2-2-2H52v-8.8h34.5V78c0 4.9.8 9.8 2.4 14.5l6.7 19.2c-2.4 1.6-4.3 3.3-6.3 5.5l-2.9-8.8c-.2-.8-1-1.4-1.8-1.4H53.8s-.2.2-.4.2-.2.2-.2.2l-.2.2c0 .2-.2.2-.2.4l-22.4 64.2c-.6 1.8-.4 3.9.8 5.5 1.2 1.6 2.9 2.6 4.7 2.6h48.5c2.2 3.1 4.9 6.1 7.7 8.6h-65v-.2c-2.4 0-4.7-1.2-6.1-3.1"/><path fill="#1DBFF0" d="M56 111.1h27l3.3 9.6c-6.9 8.6-11 19.4-11 31.2 0 9 2.4 17.3 6.5 24.5H36.1c-.6 0-1.2-.4-1.6-.8-.4-.6-.6-1.2-.2-2L56 111.1z"/><path fill="#FFF" d="M123.1 196.6c-24.1 0-43.8-20.2-43.8-44.9 0-18.6 10.8-34.9 27.7-41.8.8-.4 1.2-1 1.2-1.8v-6.5h10c1.2 0 2-.8 2-2s-.8-2-2-2h-10v-6.9h10c1.2 0 2-.8 2-2s-.8-2-2-2h-10v-7.3h29.4v28.4c0 .8.4 1.6 1.2 1.8 17.1 6.9 28.1 23.3 28.1 41.8-.1 25-19.7 45.2-43.8 45.2z"/><path fill="#08618D" d="M87.9 138.9c-1.6 4.3-2.4 8.8-2.4 13.3 0 21.2 16.9 38.3 37.5 38.3s37.5-17.3 37.5-38.3c0-4.5-.8-9-2.4-13.3-.2-.8-1-1.4-1.8-1.4H89.7c-.8.1-1.4.7-1.8 1.4z"/><path fill="#1DBFF0" d="M154.8 141.5c1.2 3.5 1.8 7.1 1.8 10.8 0 19-15.1 34.3-33.5 34.3s-33.5-15.5-33.5-34.3c0-3.5.6-7.3 1.8-10.8h63.4z"/>
</symbol>
<symbol id="photo-blue" viewBox="0 0 67.8 67.8"><path fill="#FFF" d="M33.9 1.8C16.2 1.8 1.8 16.2 1.8 33.9S16.2 66 33.9 66 66 51.6 66 33.9 51.6 1.8 33.9 1.8z"/><path fill="#08618D" d="M33.9 15c6.3 0 11.5 5.4 11.5 12s-5.2 12-11.5 12-11.5-5.4-11.5-12 5.2-12 11.5-12zM33.9 64.9c-8.1 0-15.8-3.1-21.6-8.8 5.9-7.9 13.6-12.2 21.6-12.2s15.7 4.3 21.6 12.2c-5.8 5.7-13.5 8.8-21.6 8.8z"/><path fill="#28C2F2" d="M33.9 67.8C15.2 67.8 0 52.6 0 33.9S15.2 0 33.9 0s33.9 15.2 33.9 33.9-15.2 33.9-33.9 33.9zm0-64.9c-17.1 0-31 13.9-31 31s13.9 31 31 31 31-13.9 31-31-13.9-31-31-31z"/>
</symbol>
<symbol id="photo-light" viewBox="0 0 67.8 67.8"><path fill="#FFF" d="M33.9 1.8C16.2 1.8 1.8 16.2 1.8 33.9S16.2 66 33.9 66 66 51.6 66 33.9 51.6 1.8 33.9 1.8z"/><path fill="#08618D" d="M33.9 15c6.3 0 11.5 5.4 11.5 12s-5.2 12-11.5 12-11.5-5.4-11.5-12 5.2-12 11.5-12zM33.9 64.9c-8.1 0-15.8-3.1-21.6-8.8 5.9-7.9 13.6-12.2 21.6-12.2s15.7 4.3 21.6 12.2c-5.8 5.7-13.5 8.8-21.6 8.8z"/><path fill="#FFF" d="M33.9 67.8C15.2 67.8 0 52.6 0 33.9S15.2 0 33.9 0s33.9 15.2 33.9 33.9-15.2 33.9-33.9 33.9zm0-64.9c-17.1 0-31 13.9-31 31s13.9 31 31 31 31-13.9 31-31-13.9-31-31-31z"/>
</symbol>
<symbol id="pop-up-checkout" viewBox="0 0 90.6 74.2"><path fill="#FFF" d="M33.8 11.5c-1.2 0-33 33.6-33 34.8l23.7 24.6c0 1.2 1.5-1.7 2.7-1.7h56.1c1.2 0 2.2-1 2.2-2.2l.9-31.3c0-1.2-14.1-5.2-15.4-5.2l.9-5.9L45.8.6l-12 10.9z"/><path fill="#08618D" d="M83.3 29.7h-56c-4 0-7.2 3.2-7.2 7.2v30c0 4 3.2 7.2 7.2 7.2h56.1c4 0 7.2-3.2 7.2-7.2V37c0-4-3.3-7.3-7.3-7.3zm2.3 37.2c0 1.2-1 2.2-2.2 2.2H27.3c-1.2 0-2.2-1-2.2-2.2V37c0-1.2 1-2.2 2.2-2.2h56.1c1.2 0 2.2 1 2.2 2.2v29.9z"/><g fill="#08618D"><path d="M41.2 29.8l18-17.9L53 5.6 28.9 29.8zM20.3 38.6l-14 13.8 6.2 6.2 7.8-7.7z"/></g><path fill="#1DBFF0" d="M53.5 29.8l3.5-3.6-1.8-1.7-5.2 5.3z"/><path fill="#08618D" d="M20.3 66.9v-2.4L3.7 48.1c-1.4-1.4-1.4-3.6 0-5L43.2 3.5c.6-.6 1.5-1 2.5-1 .9 0 1.7.4 2.5 1l21.2 21.2c.6.6 1 1.5 1 2.5 0 .9-.4 1.9-1 2.5v.1h3c.4-1.2.6-1.7.6-2.6 0-1.6-.6-3.1-1.7-4.2L50.1 1.7C49 .6 47.5 0 45.9 0s-3.1.6-4.2 1.7L1.8 41.3c-2.4 2.4-2.4 6.1 0 8.5l18.5 18.4v-1.3z"/><path fill="#1DBFF0" d="M80.2 46.1c0 .9-.6 1.5-1.5 1.5h-9.1c-.9 0-1.5-.6-1.5-1.5v-5.2c0-.9.7-1.5 1.5-1.5h9.1c.9 0 1.5.7 1.5 1.5v5.2zM39.1 50.2c0 .6-.5 1.1-1.1 1.1h-6.9c-.6 0-1.1-.5-1.1-1.1v-4c0-.6.5-1.1 1.1-1.1H38c.6 0 1.1.5 1.1 1.1v4zM30.2 55.4h8.7v2.5h-8.7zM41.5 55.4h8.7v2.5h-8.7zM52.8 55.4h8.5v2.5h-8.5zM64 55.4h8.7v2.5H64z"/>
</symbol>
<symbol id="resume-makeover" viewBox="0 0 266.5 242.4"><path fill="#08618D" d="M133.6 127.8V43.1c0-3.9-3.2-7.3-7.3-7.3H81.8c-3.9 0-7.3 3.2-7.3 7.3v84.7c0 3.9 3.2 7.3 7.3 7.3h44.5c4.1 0 7.3-3.4 7.3-7.3z"/><path fill="#C5E6EF" d="M77.4 127.8V43.1c0-2.5 2-4.4 4.6-4.4h44.5c2.5 0 4.6 2 4.6 4.4v84.7c0 2.5-2 4.4-4.6 4.4H82c-2.6 0-4.6-1.9-4.6-4.4z"/><path fill="#08618D" d="M120.3 97H87.9c-.7 0-1.4.5-1.4 1.4 0 .7.5 1.4 1.4 1.4h32.4c.7 0 1.4-.5 1.4-1.4 0-.9-.5-1.4-1.4-1.4zm0 10.3H87.9c-.7 0-1.4.5-1.4 1.4 0 .9.5 1.4 1.4 1.4h32.4c.7 0 1.4-.5 1.4-1.4 0-.9-.5-1.4-1.4-1.4zm0 10.3H87.9c-.7 0-1.4.5-1.4 1.4 0 .7.5 1.4 1.4 1.4h32.4c.7 0 1.4-.5 1.4-1.4s-.5-1.4-1.4-1.4zm125.3-96.8c-.3-1-1.1-2.1-2.3-2.1h-18.1c-1.1 0-2.3.9-2.3 2.3v76c0 1.1.9 2.3 2.3 2.3h18.1c1.1 0 2.3-.9 2.3-2.3V20.8z"/><path fill="#C5E6EF" d="M226.4 95.8V22.3h15.5V31h-7.5c-.7 0-1.4.5-1.4 1.4 0 .7.5 1.4 1.4 1.4h7.5v10.7h-5c-.7 0-1.4.5-1.4 1.4 0 .7.5 1.4 1.4 1.4h5V58h-7.5c-.7 0-1.4.5-1.4 1.4 0 .7.5 1.4 1.4 1.4h7.5v10.7h-5c-.7 0-1.4.5-1.4 1.4 0 .7.5 1.4 1.4 1.4h5V85h-7.5c-.7 0-1.4.5-1.4 1.4 0 .7.5 1.4 1.4 1.4h7.5v8.7h-15.5v-.7z"/><path fill="#08618D" d="M115.5 151.1h46.2c1.1 0 2.3-.9 2.3-2.3s-1.2-2.3-2.3-2.3h-46.2c-1.1 0-2.3.9-2.3 2.3-.1 1.3.9 2.3 2.3 2.3zm48.5 10.3c-.3-1.3-1.2-2.1-2.3-2.1h-46.2c-1.1 0-2.3.9-2.3 2.3 0 1.1.9 2.3 2.3 2.3h46.2c1.1 0 2.3-.9 2.3-2.5zM145 55.9h46.2c1.1 0 2.3-.9 2.3-2.3s-1.2-2.3-2.3-2.3H145c-1.1 0-2.3.9-2.3 2.3s.9 2.3 2.3 2.3zm48.6 10.3c-.3-1.3-1.2-2.1-2.3-2.1H145c-1.1 0-2.3.9-2.3 2.3 0 1.1.9 2.3 2.3 2.3h46.2c1.2 0 2.4-.8 2.4-2.5zM145 81.7h46.2c1.1 0 2.3-.9 2.3-2.3s-1.2-2.3-2.3-2.3H145c-1.1 0-2.3.9-2.3 2.3s.9 2.3 2.3 2.3zM193.6 92c-.3-1.3-1.2-2.1-2.3-2.1H145c-1.1 0-2.3.9-2.3 2.3 0 1.1.9 2.3 2.3 2.3h46.2c1.2 0 2.4-.9 2.4-2.5zm-31.9 79.9h-39.1c-1.1 0-2.3.9-2.3 2.3 0 1.1.9 2.3 2.3 2.3h39.1c1.1 0 2.3-.9 2.3-2.3v-.2c-.3-1-1.1-2.1-2.3-2.1z"/><path fill="#08618D" d="M240.3 142.7h-40v-3.2c0-.9-.6-1.8-1.5-2.1-1.4-.5-2.1.2-2.3.6L184 150.4c-.9.9-.9 2.3 0 3.2l12.5 12.5c.4.4 1 .6 1.5.6.2 0 .6 0 1-.3.8-.3 1.3-1.1 1.3-2v-3.2h10.3v23.7h-32.2c-1.1 0-2.3.9-2.3 2.3V219H66.6c-4.5 0-8.2-3.7-8.2-8.2v-52.3l32.8 32.8.7.7 18.8 7.3.9.1c.5 0 1.1-.2 1.5-.6.6-.6.8-1.5.6-2.4l-7.1-18.6c-.2-.4-.4-.6-.6-.8-.1-.2-.3-.4-.5-.5l-47.1-47.2V32.1c0-4.5 3.7-8.2 8.2-8.2h135.5c4.5 0 8.2 3.7 8.2 8.2v82.5h-24.4c-1.1 0-2.3.9-2.3 2.3v14c0 1.1.9 2.3 2.3 2.3h40v3.2c0 .9.6 1.8 1.5 2.1h.2c.1.1.4.2.7.2.5 0 1.1-.2 1.5-.6l12.4-12.4c.4-.4.6-1 .6-1.5s-.2-1.1-.6-1.5l-12.3-12.8c-.6-.6-1.5-.8-2.3-.6-.9.3-1.5 1.2-1.5 2.1v3.2h-11.4V32.1c0-6.8-5.8-12.6-12.6-12.6H66.6c-6.8 0-12.6 5.8-12.6 12.6v92.8l-15.4-15.4c-2-2-4.6-3.1-7.4-3.1-2.6 0-5.2 1.1-7.2 3.1s-3.1 4.6-3.1 7.3 1.1 5.3 3.1 7.3l30.1 30.2V211c0 6.8 5.8 12.6 12.6 12.6h112.4c.5 0 .9-.4 1.2-.6l34.1-34c.6-.6.8-1.5.6-2.2v-25.4h25.3c1.1 0 2.3-.9 2.3-2.3v-14c0-1.2-.9-2.4-2.3-2.4z"/><path fill="#1DBFF0" d="M197.6 157.8c-.7 0-1.4.5-1.4 1.4v2.1l-9.2-9.2 9.2-9.2v2.1c0 .4.2.7.4.9.2.2.5.4.9.4h40.9v11.4h-40.7v.1zm-17.8 30.8h29.4l-29.5 29.5v-29.5M33.63 128.867l9.616-9.617 3.535 3.536-9.614 9.616z"/><path fill="#FFF" d="M26.2 111.8c1.2-1.2 3-2 4.8-2 1.8 0 3.6.7 4.8 2l5.5 5.5-9.6 9.6-5.5-5.5c-2.7-2.7-2.7-7 0-9.6z"/><path fill="#1DBFF0" d="M109.4 194.8L95 189.3l8.9-8.9"/><path fill="#FFF" d="M38.993 134.104l9.617-9.617 53.74 53.74-9.617 9.617z"/><path fill="#1DBFF0" d="M229.6 132.9v-2.1c0-.4-.2-.7-.4-.9-.2-.2-.5-.4-.9-.4h-40.9v-11.4h40.9c.7 0 1.4-.5 1.4-1.4v-2.1l9.2 9.2-9.3 9.1z"/><path fill="#08618D" d="M122.8 81.9v-.2c-.5-1.6-.9-3-1.4-4.4-1.2-3.9-4.8-6.2-9.2-5.9h-1.6v-3.9c1.1-1.1 2.1-2.5 2.7-4.3 1.2-.4 2-2.1 2-4.3 0-1.6-.5-3-1.2-3.7.2-.9.2-1.8.4-2.8.4-5.3-1.2-6.2-4.1-6.9h-.5c-2-.7-4.1-.9-5.5-.9-1.4 0-3.6.2-5.5.9l-.9.1c-2.7.9-4.3 1.8-4.1 6.9 0 .9.2 1.8.4 2.8-.7.7-1.2 2.1-1.2 3.7 0 2.1.9 3.7 2 4.3.7 1.8 1.6 3.2 2.7 4.3v3.9h-1.6c-4.4-.4-8 2-9.2 5.7-.5 1.4-.9 2.8-1.4 4.4v1l.2.2.2.2.2.2.2.2h35s.2 0 .2-.2c0 0 .2 0 .2-.2l.2-.2.2-.2V82c.6.1.6-.1.6-.1zM97.5 61.8c-.2-.4-.4-.7-.7-.9-.2 0-.4-.2-.5-.2-.2-.4-.4-.9-.4-1.6 0-.9.2-1.6.4-1.8.5-.2.7-.7.9-1.2v-.6c-.2-1.1-.2-2.1-.4-3-.2-3.6.2-3.7 2.1-4.3l.5-.2c1.4-.4 3-.7 4.6-.7 1.8 0 3.4.2 4.6.7l.5.2c2 .5 2.3.7 2.1 4.3 0 1.1-.2 2.1-.4 3v.7c0 .5.4.9.9 1.1.2.2.4.9.4 1.8 0 .7-.2 1.4-.4 1.6-.2 0-.4 0-.5.2-.4.2-.5.5-.7.9-1.1 3.6-3.7 5.9-6.8 5.9-2.5 0-5.1-2.4-6.2-5.9zm-8 16.2c.9-2.7 3.4-4.1 6.6-3.9.9 0 1.8.2 2.7.2.4 0 .5 0 .7-.2.7 0 1.2-.7 1.2-1.2v-3.2c1.1.5 2.3.9 3.6.9 1.2 0 2.5-.4 3.6-.9v3.2c0 .5.4 1.1 1.1 1.2.2.2.5.2.9.2.9 0 1.8 0 2.7-.2 3.2-.2 5.7 1.2 6.6 3.9.4.9.5 1.8.9 2.7H88.8c.2-1 .5-1.8.7-2.7z"/>
</symbol>
<symbol id="resume" viewBox="0 0 121.3 121.2"><path fill="#FFF" d="M83.8 26h-45c-2.4 0-4.3 1.9-4.3 4.3v62.2c0 2.4 1.9 4.3 4.3 4.3h44.9c2.4 0 4.3-1.9 4.3-4.3V30.3c.1-2.4-1.9-4.3-4.2-4.3z"/><path fill="#C5E6EF" d="M86.4 92.5c0 1.4-1.2 2.6-2.6 2.6h-45c-1.4 0-2.6-1.2-2.6-2.6V30.3c0-1.4 1.2-2.6 2.6-2.6h44.9c1.4 0 2.6 1.2 2.6 2.6l.1 62.2z"/><path fill="#1DBFF0" d="M82 41.6H63c-.5 0-.9.4-.9.9s.4.9.9.9h19c.5 0 .9-.4.9-.9 0-.6-.4-.9-.9-.9zM63 50.2h13.8c.5 0 .9-.4.9-.9s-.4-.9-.9-.9H63c-.5 0-.9.4-.9.9.1.5.4.9.9.9zM63 32.9h13.8c.5 0 .9-.4.9-.9s-.4-.9-.9-.9H63c-.5 0-.9.4-.9.9.1.5.4.9.9.9zM80.3 45H63c-.5 0-.9.4-.9.9s.4.9.9.9h17.3c.5 0 .9-.4.9-.9s-.4-.9-.9-.9z"/><circle fill="#1DBFF0" cx="63.9" cy="38.1" r="1.7"/><circle fill="#1DBFF0" cx="79.4" cy="38.1" r="1.7"/><circle fill="#1DBFF0" cx="74.3" cy="38.1" r="1.7"/><circle fill="#1DBFF0" cx="69.1" cy="38.1" r="1.7"/><path fill="#08618D" d="M39.3 51.2h18c.5 0 .8-.4.8-.8V32.2c0-.5-.4-.8-.8-.8h-18c-.5 0-.8.3-.8.8v18.2c0 .4.3.8.8.8zm.8-18.2h16.3v16.5h-1.7c-.3-3-2.1-5.4-4.6-6.3.5-.6.8-1.3.8-2.2 0-1.7-1.2-3.1-2.7-3.1s-2.7 1.5-2.7 3.2c0 .9.3 1.6.8 2.2-2.4.9-4.3 3.3-4.6 6.3h-1.6V33z"/><path fill="#1DBFF0" d="M49.2 76.1c5.3 0 9.5-4.3 9.5-9.5s-4.3-9.5-9.5-9.5v9.5h-9.5c0 5.3 4.2 9.5 9.5 9.5z"/><path fill="#08618D" d="M47.3 64.7v-7.4c-3.7.8-6.7 3.7-7.4 7.4h7.4z"/><path fill="#1DBFF0" d="M63.9 66.6h9.5v-9.5c-5.3 0-9.5 4.3-9.5 9.5zM66.3 74.5c1.5 1 3.3 1.6 5.2 1.6v-6.8l-5.2 5.2zM73.4 76.1c5.2 0 9.5-4.3 9.5-9.5h-9.5v9.5z"/><path fill="#08618D" d="M75.3 57.3v7.4h7.4c-.8-3.7-3.7-6.6-7.4-7.4z"/><path fill="#1DBFF0" d="M82 82.2H40.6c-.5 0-.9.4-.9.9s.4.9.9.9H82c.5 0 .9-.4.9-.9s-.4-.9-.9-.9zM82 85.6H40.6c-.5 0-.9.4-.9.9s.4.9.9.9H82c.5 0 .9-.4.9-.9s-.4-.9-.9-.9zM82 89.1H40.6c-.5 0-.9.4-.9.9s.4.9.9.9H82c.5 0 .9-.4.9-.9s-.4-.9-.9-.9z"/>
</symbol>
<symbol id="schedule-call" viewBox="0 0 112.1 90.3"><path fill="#08618D" d="M3.8 0C1.7 0 0 1.7 0 3.8v82.8c0 2.1 1.7 3.8 3.8 3.8H93c.3 0 .7-.1.9-.4l17.8-17.6c.2-.2.4-.5.4-.9V3.8c0-2.1-1.7-3.8-3.8-3.8H3.8z"/><path fill="#1DBFF0" d="M3.8 2.5h104.4c.7 0 1.3.5 1.3 1.3v21.3H2.5V3.8c0-.8.6-1.3 1.3-1.3z"/><ellipse fill="#08618D" cx="26.7" cy="13.8" rx="5.1" ry="5"/><ellipse fill="#08618D" cx="85.3" cy="13.8" rx="5.1" ry="5"/><path fill="#FFF" d="M2.5 27.6h107v42.6h-14c-2.1 0-3.8 1.7-3.8 3.8v13.8H3.8c-.7 0-1.3-.5-1.3-1.3V27.6z"/><path fill="#08618D" d="M14 36.4V79h63.7V58.9h20.4V36.4z"/><path fill="#FFF" d="M16.6 38.9h17.8v17.6H16.6zM36.9 38.9h17.8v17.6H36.9zM57.3 38.9h17.8v17.6H57.3z"/><path fill="#1DBFF0" d="M77.7 38.9h17.8v17.6H77.7z"/><path fill="#FFF" d="M16.6 58.9h17.8v17.6H16.6z"/><path fill="#1DBFF0" d="M36.9 58.9h17.8v17.6H36.9z"/><path fill="#FFF" d="M57.3 58.9h17.8v17.6H57.3zM95.5 72.7h12.2L94.2 86V74c0-.7.6-1.3 1.3-1.3z"/>
</symbol>
<symbol id="subscribe" viewBox="0 0 79.5 81.5"><path fill="#08618D" d="M79.5 31.8c0-.6-.2-1.2-.8-1.6L65.5 19.9V12c0-2.2-1.8-4-4-4h-11L41 .5c-.8-.6-1.8-.6-2.4 0L28.8 8H17.9c-2.2 0-4 1.8-4 4v7.5L.8 29.6c-.6.2-.8.8-.8 1.6 0 .2 0 .4.2.6H0v47.7c0 1.2.8 2 2 2h75.5c1.2 0 2-.8 2-2V31.8z"/><path fill="#C5E6EF" d="M75.5 76.9L46.1 54.1l19.4-12.3 10-6.4zM74.1 31.6L65.5 37V24.9zM39.7 4.6L44.1 8h-8.7z"/><path fill="#FFF" d="M61.6 12v27.6L42.7 51.5l-1.8-1.4c-.8-.6-1.8-.6-2.4 0l-1.6 1.2-19-12.3V12h43.7z"/><path fill="#C5E6EF" d="M4 34.8l29.6 19.3L4 76.9zM13.9 24.5v12.1L5.4 31zM9.7 77.5l30-23.2 30 23.2z"/><path fill="#1DBFF0" d="M27.8 19.9h23.8v4H27.8zM27.8 29.8h23.8v4H27.8zM27.8 39.8h23.8v4H27.8z"/>
</symbol>
<symbol id="testimonials" viewBox="0 0 214 196.2"><path fill="#08618D" d="M191.7 196.2c-1.1 0-2.1-.4-3-1.1l-23.8-21.2H13.4c-7.4 0-13.4-6-13.4-13.4V62.4C0 55 6 49 13.4 49h187.3c7.4 0 13.4 6 13.4 13.4v98.1c0 7.4-6 13.4-13.4 13.4h-4.5v17.8c0 1.8-1 3.3-2.6 4.1-.7.2-1.3.4-1.9.4z"/><path fill="#C5E6EF" d="M13.4 58c-2.5 0-4.5 2-4.5 4.5v98.1c0 2.5 2 4.5 4.5 4.5h153.3c1.1 0 2.1.4 3 1.1l17.7 15.7v-12.4c0-2.5 2-4.5 4.5-4.5h8.9c2.5 0 4.5-2 4.5-4.5V62.4c0-2.5-2-4.5-4.5-4.5H13.4z"/><path fill="#08618D" d="M52 82.3h110c2.6 0 5.5-2.2 5.5-5.7s-2.9-5.7-5.5-5.7H52c-2.6 0-5.5 2.2-5.5 5.7s2.2 5.7 5.5 5.7zM167.8 108c-.7-3.2-2.9-5.2-5.5-5.2H52c-2.6 0-5.5 2.2-5.5 5.7 0 2.7 2.1 5.7 5.5 5.7h110c2.9 0 5.8-2 5.8-6.2zM52 146.7h110c2.6 0 5.5-2.2 5.5-5.7s-2.9-5.7-5.5-5.7H52c-2.6 0-5.5 2.2-5.5 5.7s2.2 5.7 5.5 5.7zM196.2 0H35.1c-.8 0-1.6.2-2.3.7L15.6 11.2c-.8.5-1.5 1.3-1.8 2.2H4.5c-2.5 0-4.5 2-4.5 4.5s2 4.5 4.5 4.5h9.4c.3.9 1 1.7 1.8 2.2L32.8 35c.7.4 1.5.7 2.3.7h161c9.8 0 17.8-8 17.8-17.8S206 0 196.2 0z"/><path fill="#1DBFF0" d="M22.4 18.2v-.7l14-8.6h30.5v17.9H36.4zM75.8 8.9h8.9v17.8h-8.9z"/><path fill="#C5E6EF" d="M196.2 26.8H93.6V8.9h102.5c4.9 0 8.9 4 8.9 8.9s-3.9 9-8.8 9z"/>
</symbol></svg>