<?xml version="1.0" encoding="utf-8"?>
<!-- Generator: Adobe Illustrator 20.1.0, SVG Export Plug-In . SVG Version: 6.00 Build 0)  -->
<svg version="1.1"
	 id="Слой_1" xmlns:cc="http://creativecommons.org/ns#" xmlns:dc="http://purl.org/dc/elements/1.1/" xmlns:inkscape="http://www.inkscape.org/namespaces/inkscape" xmlns:rdf="http://www.w3.org/1999/02/22-rdf-syntax-ns#" xmlns:sodipodi="http://sodipodi.sourceforge.net/DTD/sodipodi-0.dtd" xmlns:svg="http://www.w3.org/2000/svg"
	 xmlns="http://www.w3.org/2000/svg" xmlns:xlink="http://www.w3.org/1999/xlink" x="0px" y="0px" viewBox="0 0 90 74"
	 style="enable-background:new 0 0 90 74;" xml:space="preserve">
<g transform="translate(0,-952.36218)">
	<path d="M4,952.4c-2.2,0-4,1.8-4,4v66c0,2.2,1.8,4,4,4h70c0.5,0,1-0.2,1.4-0.6l14-14c0.4-0.4,0.6-0.9,0.6-1.4v-54c0-2.2-1.8-4-4-4
		L4,952.4L4,952.4z M4,956.4h82v16H4V956.4z M22,960.4c-2.2,0-4,1.8-4,4c0,2.2,1.8,4,4,4s4-1.8,4-4C26,962.2,24.2,960.4,22,960.4z
		 M68,960.4c-2.2,0-4,1.8-4,4c0,2.2,1.8,4,4,4s4-1.8,4-4C72,962.2,70.2,960.4,68,960.4z M4,976.4h82v32H76c-2.2,0-4,1.8-4,4v10H4
		V976.4z M11,981.4v36h52v-16h16v-20H11z M15,985.4h12v12H15V985.4z M31,985.4h12v12H31V985.4z M47,985.4h12v12H47V985.4z M63,985.4
		h12v12H63V985.4z M15,1001.4h12v12H15V1001.4z M31,1001.4h12v12H31V1001.4z M47,1001.4h12v12H47V1001.4z M76,1012.4h7.2l-7.2,7.2
		V1012.4z"/>
</g>
</svg>
