<?xml version="1.0" encoding="utf-8"?>
<!-- Generator: Adobe Illustrator 20.1.0, SVG Export Plug-In . SVG Version: 6.00 Build 0)  -->
<svg version="1.1" id="Слой_1" xmlns="http://www.w3.org/2000/svg" xmlns:xlink="http://www.w3.org/1999/xlink" x="0px" y="0px"
	 viewBox="0 0 67.5 67.5" enable-background="new 0 0 67.5 67.5" xml:space="preserve">
<g>
	<path d="M61.2,67.5H6.3c-3.5,0-6.3-2.8-6.3-6.3V6.3C0,2.8,2.8,0,6.3,0h54.8c3.5,0,6.3,2.8,6.3,6.3v54.8
		C67.5,64.7,64.7,67.5,61.2,67.5z M6.3,4.2c-1.2,0-2.1,0.9-2.1,2.1v54.8c0,1.2,0.9,2.1,2.1,2.1h54.8c1.2,0,2.1-0.9,2.1-2.1V6.3
		c0-1.2-0.9-2.1-2.1-2.1H6.3z M54.8,35.9H12.7c-1.2,0-2.1-0.9-2.1-2.1s0.9-2.1,2.1-2.1h42.2c1.2,0,2.1,0.9,2.1,2.1
		S56,35.9,54.8,35.9z M54.8,52.7H12.7c-1.2,0-2.1-0.9-2.1-2.1s0.9-2.1,2.1-2.1h42.2c1.2,0,2.1,0.9,2.1,2.1S56,52.7,54.8,52.7z
		 M19,23.2c-1.2,0-2.1-0.9-2.1-2.1v-8.4c0-1.2,0.9-2.1,2.1-2.1s2.1,0.9,2.1,2.1v8.4C21.1,22.3,20.1,23.2,19,23.2z M33.8,40.1
		c-1.2,0-2.1-0.9-2.1-2.1v-8.4c0-1.2,0.9-2.1,2.1-2.1s2.1,0.9,2.1,2.1V38C35.9,39.1,34.9,40.1,33.8,40.1z M48.5,57
		c-1.2,0-2.1-0.9-2.1-2.1v-8.4c0-1.2,0.9-2.1,2.1-2.1s2.1,0.9,2.1,2.1v8.4C50.6,56,49.7,57,48.5,57z M54.8,19H12.7
		c-1.2,0-2.1-0.9-2.1-2.1s0.9-2.1,2.1-2.1h42.2c1.2,0,2.1,0.9,2.1,2.1S56,19,54.8,19z"/>
</g>
</svg>
