<?xml version="1.0" encoding="utf-8"?>
<!-- Generator: Adobe Illustrator 20.1.0, SVG Export Plug-In . SVG Version: 6.00 Build 0)  -->
<svg version="1.1" id="Слой_1" xmlns="http://www.w3.org/2000/svg" xmlns:xlink="http://www.w3.org/1999/xlink" x="0px" y="0px"
	 viewBox="0 0 19.5 15.6" style="enable-background:new 0 0 19.5 15.6;" xml:space="preserve">
<g transform="translate(0,-952.36218)">
	<path d="M7.2,952.4c-0.8,0-1.5,0.7-1.5,1.5v0.7H1.5c-0.8,0-1.5,0.7-1.5,1.5v7.8c0,0.8,0.7,1.5,1.5,1.5h1.1v2c0,0.4,0.3,0.7,0.6,0.7
		c0.1,0,0.3,0,0.4-0.1l3.3-2.5h5.4c0.7,0,1.3-0.5,1.5-1.2l2,1.5c0.3,0.2,0.7,0.2,0.9-0.1c0.1-0.1,0.1-0.3,0.1-0.4v-2H18
		c0.8,0,1.5-0.7,1.5-1.5V954c0-0.8-0.7-1.5-1.5-1.5H7.2V952.4z M7.2,953.7H18c0.1,0,0.2,0.1,0.2,0.2v7.8c0,0.1-0.1,0.2-0.2,0.2h-1.7
		c-0.4,0-0.6,0.3-0.6,0.7v1.3l-1.7-1.3V956c0-0.8-0.7-1.5-1.5-1.5H6.9v-0.7C6.9,953.7,7,953.7,7.2,953.7z M1.5,955.8h10.8
		c0.1,0,0.2,0.1,0.2,0.2v7.8c0,0.1-0.1,0.2-0.2,0.2H6.7c-0.1,0-0.3,0-0.4,0.1L3.9,966v-1.3c0-0.4-0.3-0.6-0.7-0.6H1.5
		c-0.1,0-0.2-0.1-0.2-0.2V956C1.3,955.9,1.4,955.8,1.5,955.8z M3.9,959.1c-0.5,0-0.9,0.4-0.9,0.9s0.4,0.9,0.9,0.9s0.9-0.4,0.9-0.9
		S4.4,959.1,3.9,959.1z M6.9,959.1c-0.5,0-0.9,0.4-0.9,0.9s0.4,0.9,0.9,0.9s0.9-0.4,0.9-0.9S7.4,959.1,6.9,959.1z M10,959.1
		c-0.5,0-0.9,0.4-0.9,0.9s0.4,0.9,0.9,0.9s0.9-0.4,0.9-0.9S10.4,959.1,10,959.1z"/>
</g>
</svg>
