<?xml version="1.0" encoding="utf-8"?>
<!-- Generator: Adobe Illustrator 20.1.0, SVG Export Plug-In . SVG Version: 6.00 Build 0)  -->
<svg version="1.1" id="Слой_1" xmlns="http://www.w3.org/2000/svg" xmlns:xlink="http://www.w3.org/1999/xlink" x="0px" y="0px"
	 viewBox="0 0 63.5 63" enable-background="new 0 0 63.5 63" xml:space="preserve">
<g>
	<path d="M41.9,38.9c-0.4,0-0.8-0.1-1.1-0.3l-10-5c-0.8-0.4-1.4-1.3-1.4-2.2V13.9c0-1.4,1.1-2.5,2.5-2.5s2.5,1.1,2.5,2.5v16l8.6,4.3
		c1.2,0.6,1.7,2.1,1.1,3.4C43.7,38.4,42.8,38.9,41.9,38.9z M31.9,61.4c-16.5,0-30-13.5-30-30s13.5-30,30-30s30,13.5,30,30
		S48.4,61.4,31.9,61.4z M31.9,6.4c-13.8,0-25,11.2-25,25s11.2,25,25,25s25-11.2,25-25S45.7,6.4,31.9,6.4z"/>
</g>
</svg>
