<?xml version="1.0" encoding="utf-8"?>
<!-- Generator: Adobe Illustrator 20.1.0, SVG Export Plug-In . SVG Version: 6.00 Build 0)  -->
<svg version="1.1" id="Слой_1" xmlns="http://www.w3.org/2000/svg" xmlns:xlink="http://www.w3.org/1999/xlink" x="0px" y="0px"
	 viewBox="0 0 23.1 23.1" style="enable-background:new 0 0 23.1 23.1;" xml:space="preserve">
<path d="M19,0.4l-7.4,7.4L4.1,0.4c-0.6-0.6-1.5-0.6-2,0L0.4,2.1c-0.6,0.6-0.6,1.5,0,2l7.4,7.4L0.5,19c-0.6,0.6-0.6,1.5,0,2l1.6,1.6
	c0.6,0.6,1.5,0.6,2,0l7.4-7.5l7.4,7.4c0.6,0.6,1.5,0.6,2,0l1.6-1.6c0.6-0.6,0.6-1.5,0-2L15,11.5l7.4-7.4c0.6-0.6,0.6-1.5,0-2L21,0.4
	C20.5-0.1,19.6-0.1,19,0.4z"/>
</svg>
