<?xml version="1.0" encoding="utf-8"?>
<!-- Generator: Adobe Illustrator 20.1.0, SVG Export Plug-In . SVG Version: 6.00 Build 0)  -->
<svg version="1.1" id="Слой_1" xmlns="http://www.w3.org/2000/svg" xmlns:xlink="http://www.w3.org/1999/xlink" x="0px" y="0px"
	 viewBox="0 0 80 80" style="enable-background:new 0 0 80 80;" xml:space="preserve">
<g>
	<g>
		<path d="M59.5,34.3c-0.3,0.1-0.6,0.3-0.9,0.4c-0.4,0.2-0.8,0.3-1.2,0.3c-0.5,0.1-0.9-0.3-1-0.7c-0.1-0.4-0.2-0.8-0.1-1.2
			c0.1-0.8,0.3-1.5,0.4-2.3c0.4-2.3,0.9-4.7,1.3-7c0.1-0.6,0.3-1.3,0.2-1.9c0-0.8-0.5-1.1-1.3-1.1c-1,0-2.1,0-3.2,0c-1,0-2,0-3,0
			c-0.3,0-0.5,0-0.8,0.1c-0.4,0.1-0.7,0.3-0.8,0.7c0,0.3,0.2,0.6,0.6,0.8c0.3,0.1,0.7,0.2,1.1,0.2c0.9,0.1,1.1,0.4,1.1,1.3
			c0,0.2,0,0.3,0,0.4c-0.3,2-0.7,4.1-1.1,6.1c-0.2,1.2-0.3,2.4-0.5,3.5c-0.3,1.7,1.5,3.3,2.7,3.5c0.8,0.1,1.6,0.2,2.4,0.2
			c1.7,0,3.2-0.8,4.4-2c0.2-0.2,0.4-0.5,0.4-0.8C60.3,34.4,60,34,59.5,34.3z M72.6,7.4c-9.8-9.9-25.8-9.9-35.6,0
			c-9.5,9.5-9.8,24.6-1,34.5l0.2,0.2c-0.9,2-2.6,4.6-5.2,5.9c-0.9,0.4-0.7,1.7,0.3,1.9c2.9,0.4,7,0,10.8-2.9l0.1,0.1
			c9.6,5.6,22.3,4.4,30.6-3.9C82.5,33.2,82.5,17.2,72.6,7.4z M54.9,44.5c-10.7,0-19.3-8.6-19.3-19.3C35.6,14.6,44.2,6,54.9,6
			c10.7,0,19.3,8.6,19.3,19.3S65.5,44.5,54.9,44.5z M47.3,58.8c-2-2-4.5-2-6.6,0c-1.5,1.5-3.1,3.1-4.6,4.6c-0.4,0.4-0.8,0.5-1.3,0.3
			c-0.9-0.6-2-1-3-1.6c-4.4-2.8-8.2-6.4-11.5-10.5c-1.6-2-3.1-4.2-4.1-6.6c-0.2-0.5-0.2-0.8,0.3-1.2c1.6-1.5,3.1-3,4.6-4.5
			c2.1-2.1,2.1-4.6,0-6.7c-1.3-1.3-2.5-2.5-3.7-3.7c-1.3-1.3-2.5-2.6-3.8-3.8c-2-2-4.5-2-6.6,0c-1.5,1.5-3.1,3.1-4.6,4.6
			c-1.5,1.5-2.2,3.2-2.4,5.1C-0.2,38,0.6,41,1.7,44c2.3,6.2,5.8,11.6,10,16.6c5.7,6.8,12.5,12.2,20.5,16c3.6,1.7,7.3,3.1,11.2,3.3
			c2.8,0.2,5.2-0.6,7.2-2.7c1.3-1.5,2.8-2.8,4.2-4.3c2-2.1,2-4.7,0-6.7C52.2,63.8,49.7,61.3,47.3,58.8z M55.5,19.4
			c1.8,0,3.2-1.5,3.2-3.2c0-1.8-1.5-3.3-3.2-3.3c-1.8,0-3.2,1.5-3.3,3.2C52.2,17.9,53.7,19.4,55.5,19.4z"/>
	</g>
</g>
</svg>
