<?xml version="1.0" encoding="utf-8"?>
<!-- Generator: Adobe Illustrator 20.1.0, SVG Export Plug-In . SVG Version: 6.00 Build 0)  -->
<svg version="1.1" id="Слой_1" xmlns="http://www.w3.org/2000/svg" xmlns:xlink="http://www.w3.org/1999/xlink" x="0px" y="0px"
	 viewBox="0 0 63.5 54.9" style="enable-background:new 0 0 63.5 54.9;" xml:space="preserve">
<g>
	<path d="M31.8,54.9c-0.8,0-1.6-0.3-2.2-0.9L4.8,29.2c0,0,0,0-0.1-0.1c-6.5-7-6.2-17.9,0.8-24.5C8.7,1.7,12.9,0,17.3,0
		c4.8,0,9.4,2,12.6,5.5l1.9,2l1.9-2C36.9,2,41.5,0,46.3,0c4.4,0,8.6,1.7,11.8,4.7c6.9,6.5,7.3,17.5,0.8,24.5c0,0,0,0-0.1,0.1L34,54
		C33.4,54.6,32.6,54.9,31.8,54.9z M9.2,24.8l22.6,22.5l22.6-22.5c4.1-4.4,3.9-11.4-0.5-15.6c-2.1-1.9-4.7-3-7.6-3
		c-3.1,0-5.9,1.2-8,3.5l-4.2,4.4c-0.6,0.6-1.4,1-2.3,1h0c-0.9,0-1.7-0.4-2.3-1l-4.2-4.4c-2.1-2.2-5-3.5-8-3.5c-2.8,0-5.5,1.1-7.6,3
		C5.3,13.4,5.1,20.4,9.2,24.8z"/>
</g>
</svg>
