<?xml version="1.0" encoding="utf-8"?>
<!-- Generator: Adobe Illustrator 20.1.0, SVG Export Plug-In . SVG Version: 6.00 Build 0)  -->
<svg version="1.1" id="Слой_1" xmlns="http://www.w3.org/2000/svg" xmlns:xlink="http://www.w3.org/1999/xlink" x="0px" y="0px"
	 viewBox="0 0 63.2 75.6" style="enable-background:new 0 0 63.2 75.6;" xml:space="preserve">
<path d="M51.3,59.9H39.7v10.6l-0.1,0.1H5V5h46.3v16.1h5V2.5c0-1.4-1.1-2.5-2.5-2.5H2.5C1.1,0,0,1.1,0,2.5v70.6
	c0,1.4,1.1,2.5,2.5,2.5h38c0.6,0,1.2-0.2,1.7-0.6l13.2-11.8c0.5-0.5,0.8-1.1,0.8-1.8V45.7h-5L51.3,59.9L51.3,59.9z"/>
<path d="M22.1,23.5v19.9h41.1V23.5H22.1z M37.1,30.6h-3v8.8h-2.5v-8.8h-2.9v-2.1h8.4V30.6z M44.5,39.4l-1-2c-0.4-0.8-0.7-1.3-1-2h0
	c-0.2,0.6-0.5,1.2-0.8,2l-0.9,2h-2.8l3.1-5.5l-3-5.4h2.8l1,2c0.3,0.7,0.6,1.2,0.8,1.8h0c0.3-0.7,0.5-1.2,0.7-1.8l0.9-2h2.8l-3.1,5.3
	l3.2,5.6H44.5z M56.3,30.6h-3v8.8h-2.5v-8.8h-2.9v-2.1h8.4V30.6z"/>
</svg>
