<?xml version="1.0" encoding="utf-8"?>
<!-- Generator: Adobe Illustrator 20.1.0, SVG Export Plug-In . SVG Version: 6.00 Build 0)  -->
<svg version="1.1" id="Слой_1" xmlns="http://www.w3.org/2000/svg" xmlns:xlink="http://www.w3.org/1999/xlink" x="0px" y="0px"
	 viewBox="0 0 63.2 75.6" style="enable-background:new 0 0 63.2 75.6;" xml:space="preserve">
<path d="M51.9,59.8H40.3v10.6l-0.1,0.1H5.6V4.9h46.3V21h5V2.4c0-1.4-1.1-2.5-2.5-2.5H3.1C1.8-0.1,0.6,1,0.6,2.4V73
	c0,1.4,1.1,2.5,2.5,2.5h38c0.6,0,1.2-0.2,1.7-0.6l13.2-11.8c0.5-0.5,0.8-1.1,0.8-1.8V45.6h-5L51.9,59.8L51.9,59.8z"/>
<g>
	<path d="M43.2,30c-0.6,0-0.9,0-1.1,0.1v7.2c0.2,0,0.6,0,0.9,0c2.3,0,3.7-1.2,3.7-3.9C46.7,31.2,45.4,30,43.2,30z"/>
	<path d="M33.6,30c-0.5,0-0.9,0-1,0.1v3.3c0.2,0,0.5,0.1,0.8,0.1c1.3,0,2.2-0.7,2.2-1.8C35.5,30.6,34.8,30,33.6,30z"/>
	<path d="M22.8,23.4v19.9h41.1V23.4H22.8z M37,34.2c-0.9,0.8-2.1,1.2-3.6,1.2c-0.3,0-0.6,0-0.9,0v4H30V28.3c0.8-0.1,1.9-0.2,3.4-0.2
		c1.5,0,2.6,0.3,3.4,0.9c0.7,0.6,1.2,1.5,1.2,2.6C38,32.6,37.6,33.6,37,34.2z M47.5,37.9c-1.2,1-2.9,1.4-5.1,1.4
		c-1.3,0-2.2-0.1-2.8-0.2V28.3c0.9-0.1,2.1-0.2,3.4-0.2c2.1,0,3.5,0.4,4.5,1.2c1.2,0.9,1.9,2.2,1.9,4.2C49.4,35.6,48.6,37,47.5,37.9
		z M57.8,30.2h-4.3v2.5h4v2h-4v4.5H51V28.2h6.8V30.2z"/>
</g>
</svg>
