<?xml version="1.0" encoding="utf-8"?>
<!-- Generator: Adobe Illustrator 20.1.0, SVG Export Plug-In . SVG Version: 6.00 Build 0)  -->
<svg version="1.1" id="Слой_1" xmlns="http://www.w3.org/2000/svg" xmlns:xlink="http://www.w3.org/1999/xlink" x="0px" y="0px"
	 viewBox="0 0 63.2 75.6" style="enable-background:new 0 0 63.2 75.6;" xml:space="preserve">
<path d="M52.4,60.1H40.8v10.6l-0.1,0.1H6.1V5.2h46.3v16.1h5V2.7c0-1.4-1.1-2.5-2.5-2.5H3.6c-1.4,0-2.5,1.1-2.5,2.5v70.6
	c0,1.4,1.1,2.5,2.5,2.5h38c0.6,0,1.2-0.2,1.7-0.6l13.2-11.8c0.5-0.5,0.8-1.1,0.8-1.8V45.9h-5L52.4,60.1L52.4,60.1z"/>
<g>
	<path d="M23.2,23.7v19.9h41.1V23.7H23.2z M36.7,37.1c-1.1,0.9-2.8,1.3-4.8,1.3c-1.2,0-2.1-0.1-2.7-0.2V28.1c0.9-0.1,2-0.2,3.2-0.2
		c2,0,3.3,0.4,4.3,1.1c1.1,0.8,1.8,2.1,1.8,3.9C38.4,34.9,37.7,36.3,36.7,37.1z M44.4,38.6c-3.1,0-4.9-2.3-4.9-5.3
		c0-3.1,2-5.5,5.1-5.5c3.2,0,5,2.4,5,5.3C49.6,36.5,47.5,38.6,44.4,38.6z M56.5,36.6c0.7,0,1.5-0.2,2-0.3l0.4,1.8
		c-0.4,0.2-1.4,0.4-2.7,0.4c-3.6,0-5.5-2.2-5.5-5.2c0-3.6,2.5-5.6,5.7-5.6c1.2,0,2.2,0.2,2.6,0.5l-0.5,1.9c-0.5-0.2-1.1-0.4-2-0.4
		c-1.9,0-3.3,1.1-3.3,3.5C53.1,35.3,54.4,36.6,56.5,36.6z"/>
	<path d="M44.5,29.6c-1.6,0-2.5,1.5-2.5,3.6c0,2,1,3.5,2.5,3.5c1.6,0,2.5-1.5,2.5-3.6C47.1,31.3,46.2,29.6,44.5,29.6z"/>
	<path d="M32.7,29.7c-0.5,0-0.9,0-1.1,0.1v6.8c0.2,0,0.5,0,0.8,0c2.1,0,3.5-1.2,3.5-3.7C36,30.8,34.7,29.7,32.7,29.7z"/>
</g>
</svg>
