<?xml version="1.0" encoding="utf-8"?>
<!-- Generator: Adobe Illustrator 20.1.0, SVG Export Plug-In . SVG Version: 6.00 Build 0)  -->
<svg version="1.1" id="Слой_1" xmlns="http://www.w3.org/2000/svg" xmlns:xlink="http://www.w3.org/1999/xlink" x="0px" y="0px"
	 viewBox="0 0 63.2 75.6" style="enable-background:new 0 0 63.2 75.6;" xml:space="preserve">
<path d="M52.7,60.1H41.1v10.6L41,70.8H6.4V5.2h46.3v16.1h5V2.7c0-1.4-1.1-2.5-2.5-2.5H3.9c-1.4,0-2.5,1.1-2.5,2.5v70.6
	c0,1.4,1.1,2.5,2.5,2.5h38c0.6,0,1.2-0.2,1.7-0.6l13.2-11.8c0.5-0.5,0.8-1.1,0.8-1.8V45.9h-5L52.7,60.1L52.7,60.1z"/>
<g>
	<path d="M23.5,23.7v19.9h41.1V23.7H23.5z M37.1,38.5c-0.2-0.3-0.4-1.2-0.7-2.5c-0.3-1.3-0.7-1.7-1.7-1.7h-0.7v4.2h-2.4V28
		c0.8-0.1,1.9-0.2,3.2-0.2c1.6,0,2.7,0.2,3.5,0.8c0.6,0.5,1,1.3,1,2.2c0,1.4-1,2.3-1.9,2.6v0c0.7,0.3,1.2,1,1.4,2
		c0.3,1.2,0.7,2.6,0.9,3H37.1z M48.4,29.9h-2.9v8.7H43v-8.7h-2.9v-2h8.2V29.9z M56.2,29.8h-4.1v2.4H56v2h-3.8v4.3h-2.4V27.8h6.5
		V29.8z"/>
	<path d="M35,29.5c-0.6,0-0.9,0-1.1,0.1v3h1c1.2,0,1.9-0.6,1.9-1.5C36.8,30.1,36.1,29.6,35,29.5z"/>
</g>
</svg>
