<?xml version="1.0" encoding="utf-8"?>
<!-- Generator: Adobe Illustrator 20.1.0, SVG Export Plug-In . SVG Version: 6.00 Build 0)  -->
<svg version="1.1" id="Слой_1" xmlns="http://www.w3.org/2000/svg" xmlns:xlink="http://www.w3.org/1999/xlink" x="0px" y="0px"
	 viewBox="0 0 86 84" enable-background="new 0 0 86 84" xml:space="preserve">
<g transform="translate(0,-952.36218)">
	<path d="M5,952.4c-2.8,0-5,2.2-5,5s2.2,5,5,5v48c0,1.1,0.9,2,2,2h35v6.6l-14.6,15.6c-0.5,0.3-0.5,1.1-0.1,1.5
		c0.4,0.4,1.2,0.3,1.5-0.2l13.2-14v6.5c0,0.6,0.4,1,1,1s1-0.4,1-1v-6.5l13.2,14c0.3,0.5,1.1,0.6,1.5,0.2c0.4-0.4,0.4-1.2-0.1-1.5
		L44,1019v-6.6h35c1.1,0,2-0.9,2-2v-48c2.8,0,5-2.2,5-5s-2.2-5-5-5H5z M5,954.4h76c1.7,0,3,1.3,3,3s-1.3,3-3,3H5c-1.7,0-3-1.3-3-3
		S3.3,954.4,5,954.4z M7,962.4h72v48H7L7,962.4z M43,969.4c-9.4,0-17,7.6-17,17c0,9.4,7.6,17,17,17c9.4,0,17-7.6,17-17
		C60,977,52.4,969.4,43,969.4z M43,971.4c8.3,0,15,6.7,15,15c0,8.3-6.7,15-15,15c-8.3,0-15-6.7-15-15C28,978.1,34.7,971.4,43,971.4z
		 M43,975.4c-0.6,0-1,0.4-1,1v10c0,0.6,0.4,1,1,1h9c0.6,0,1-0.4,1-1s-0.4-1-1-1h-8v-9C44,975.8,43.6,975.4,43,975.4z"/>
</g>
</svg>
