<?xml version="1.0" encoding="utf-8"?>
<!-- Generator: Adobe Illustrator 20.1.0, SVG Export Plug-In . SVG Version: 6.00 Build 0)  -->
<svg version="1.1" id="Слой_1" xmlns="http://www.w3.org/2000/svg" xmlns:xlink="http://www.w3.org/1999/xlink" x="0px" y="0px"
	 viewBox="0 0 86.9 77.6" enable-background="new 0 0 86.9 77.6" xml:space="preserve">
<path d="M43.4,56.4c-2.7,0-4.9,2.2-4.9,4.9s2.2,4.9,4.9,4.9s4.9-2.2,4.9-4.9S46.1,56.4,43.4,56.4z M41.8,53h3.3c0.6,0,1-0.4,1-1
	l2-27.5c0-0.6-0.4-1-1-1h-7.3c-0.6,0-1,0.4-1,1l2,27.5C40.8,52.5,41.3,53,41.8,53z M85.4,63.6L51.2,4.5C49.6,1.7,46.6,0,43.4,0
	s-6.2,1.7-7.8,4.5L1.2,64.1c-1.6,2.8-1.6,6.2,0,9c1.6,2.8,4.6,4.5,7.8,4.5h68.8c0,0,0,0,0.1,0h0c5,0,9-4,9-9
	C86.9,66.8,86.4,65.1,85.4,63.6z M77.9,73.6H9c-1.8,0-3.4-1-4.3-2.5s-0.9-3.5,0-5L39.1,6.5C40,5,41.6,4,43.4,4s3.4,1,4.3,2.5
	l34.2,59.2c0,0,0.1,0.1,0.1,0.1c0.6,0.8,0.9,1.8,0.9,2.8C82.9,71.4,80.6,73.6,77.9,73.6z"/>
</svg>
