<?xml version="1.0" encoding="utf-8"?>
<!-- Generator: Adobe Illustrator 20.1.0, SVG Export Plug-In . SVG Version: 6.00 Build 0)  -->
<svg version="1.1" id="Слой_1" xmlns="http://www.w3.org/2000/svg" xmlns:xlink="http://www.w3.org/1999/xlink" x="0px" y="0px"
	 viewBox="0 0 12.1 26" style="enable-background:new 0 0 12.1 26;" xml:space="preserve">
<path id="XMLID_1_" d="M2.7,19.5c0-2,0-4.1,0-6.1c0-0.3-0.1-0.5-0.4-0.4c-0.6,0-1.3,0-1.9,0c-0.3,0-0.4-0.1-0.3-0.3
	c0-1.3,0-2.5,0-3.8c0-0.2,0.1-0.3,0.3-0.3c0.6,0,1.3,0,1.9,0c0.4,0,0.5-0.1,0.4-0.5c0-1,0-1.9,0-2.9C2.7,4,3,2.9,3.7,2
	c0.9-1.3,2.2-1.9,3.7-2s3,0,4.5,0c0.2,0,0.3,0.1,0.3,0.3c0,1.3,0,2.6,0,3.9c0,0.2-0.1,0.3-0.3,0.3c-0.7,0-1.4,0-2.2,0
	c-1,0-1.5,0.5-1.6,1.4c0,0.8,0,1.5,0,2.3c0,0.3,0.2,0.3,0.3,0.3c1.1,0,2.2,0,3.3,0c0.3,0,0.4,0.1,0.4,0.4c-0.1,1.3-0.3,2.6-0.4,3.8
	c0,0.3-0.2,0.3-0.4,0.3c-0.9,0-1.7,0-2.6,0c-0.6,0-0.6-0.1-0.6,0.5c0,4,0,8,0,11.9C8.1,25.9,8,26,7.6,26c-1.5,0-3,0-4.5,0
	c-0.4,0-0.5-0.1-0.5-0.5C2.7,23.5,2.7,21.5,2.7,19.5z"/>
</svg>
