<?xml version="1.0" encoding="utf-8"?>
<!-- Generator: Adobe Illustrator 20.1.0, SVG Export Plug-In . SVG Version: 6.00 Build 0)  -->
<svg version="1.1" id="Слой_1" xmlns="http://www.w3.org/2000/svg" xmlns:xlink="http://www.w3.org/1999/xlink" x="0px" y="0px"
	 viewBox="0 0 63.5 54.9" style="enable-background:new 0 0 63.5 54.9;" xml:space="preserve">
<path d="M58.1,4.7C54.9,1.7,50.7,0,46.3,0c-4.8,0-9.4,2-12.6,5.5l-1.9,2l-1.9-2C26.6,2,22,0,17.3,0C12.9,0,8.7,1.7,5.4,4.7
	c-6.9,6.5-7.3,17.5-0.8,24.5c0,0,0,0,0.1,0.1L29.6,54c0.6,0.6,1.4,0.9,2.2,0.9s1.6-0.3,2.2-0.9l24.8-24.7c0,0,0,0,0.1-0.1
	C65.4,22.2,65.1,11.2,58.1,4.7z"/>
</svg>
