<?xml version="1.0" encoding="utf-8"?>
<!-- Generator: Adobe Illustrator 20.1.0, SVG Export Plug-In . SVG Version: 6.00 Build 0)  -->
<svg version="1.1" id="Слой_1" xmlns="http://www.w3.org/2000/svg" xmlns:xlink="http://www.w3.org/1999/xlink" x="0px" y="0px"
	 viewBox="0 0 20.2 20.1" style="enable-background:new 0 0 20.2 20.1;" xml:space="preserve">
<path d="M0.3,6.7h4.2v13.4H0.3V6.7z M2.4,0c1.3,0,2.4,1.1,2.4,2.4S3.7,4.8,2.4,4.8S0,3.8,0,2.4C0,1.1,1.1,0,2.4,0"/>
<path d="M7.1,6.7h4v1.8h0.1c0.6-1.1,1.9-2.2,4-2.2c4.2,0,5,2.8,5,6.4v7.4H16v-6.5c0-1.6,0-3.6-2.2-3.6s-2.5,1.7-2.5,3.5v6.6H7.1V6.7
	z"/>
</svg>
