<?xml version="1.0" encoding="utf-8"?>
<!-- Generator: Adobe Illustrator 20.1.0, SVG Export Plug-In . SVG Version: 6.00 Build 0)  -->
<svg version="1.1" id="Слой_1" xmlns="http://www.w3.org/2000/svg" xmlns:xlink="http://www.w3.org/1999/xlink" x="0px" y="0px"
	 viewBox="0 0 17.8 11.7" style="enable-background:new 0 0 17.8 11.7;" xml:space="preserve">
<g transform="translate(0,-952.36218)">
	<path d="M1.4,952.4c-0.8,0-1.4,0.6-1.4,1.4v8.9c0,0.8,0.7,1.4,1.4,1.4h14.9c0.8,0,1.4-0.6,1.4-1.4v-8.9c0-0.8-0.7-1.4-1.4-1.4H1.4z
		 M2.2,953.6h13.4l-6.5,5.8c-0.1,0.1-0.3,0.1-0.4,0L2.2,953.6z M1.2,954.3l4.5,4.1l-4.5,3.8C1.2,962.2,1.2,954.3,1.2,954.3z
		 M16.6,954.3v7.8l-4.5-3.8L16.6,954.3z M6.7,959.2l1.2,1.1c0.6,0.5,1.5,0.5,2,0l1.2-1.1l4.4,3.7H2.2L6.7,959.2L6.7,959.2z"/>
</g>
</svg>
