<?xml version="1.0" encoding="utf-8"?>
<!-- Generator: Adobe Illustrator 20.1.0, SVG Export Plug-In . SVG Version: 6.00 Build 0)  -->
<svg version="1.1" id="Слой_1" xmlns="http://www.w3.org/2000/svg" xmlns:xlink="http://www.w3.org/1999/xlink" x="0px" y="0px"
	 viewBox="0 0 18.9 18.8" style="enable-background:new 0 0 18.9 18.8;" xml:space="preserve">
<path d="M2.5,9.4c1.7,2.7,4.1,5.1,6.8,6.8l3.3,2.1c0.5,0.3,1.1,0.5,1.6,0.5c0.3,0,0.6,0,0.8-0.1l1.2-0.3c1-0.3,1.8-1.1,2.1-2.1
	l0.5-1.8c0.2-0.6-0.1-1.3-0.8-1.6l-3.6-1.5c-0.5-0.2-1.1-0.1-1.5,0.3l-1.5,1.6c-2.3-1.6-4.4-3.7-5.9-6L7,5.7c0.4-0.4,0.5-1,0.2-1.5
	L5.6,0.7C5.3,0.1,4.6-0.2,4,0.1L2.4,0.7C1.5,1,0.9,1.7,0.6,2.5l-0.4,1C-0.1,4.4,0,5.4,0.5,6.2L2.5,9.4z M1.3,4l0.4-1.1
	C1.9,2.4,2.3,2,2.8,1.8l1.6-0.6l0,0h0.1l1.6,3.4v0.1L4.4,6.6C4.2,6.8,4.1,7.2,4.3,7.4l0,0c1.7,2.8,4.1,5.3,6.9,7.1
	c0.2,0.1,0.6,0.1,0.8-0.1l1.9-2H14l3.6,1.5c0,0,0.1,0.1,0,0.1l-0.5,1.8c-0.2,0.6-0.6,1.1-1.2,1.2l-1.2,0.3c-0.5,0.1-1,0-1.5-0.2
	L10,15.2c-2.6-1.6-4.8-3.8-6.4-6.4l-2-3.2C1.2,5.1,1.1,4.5,1.3,4z"/>
</svg>
