<?xml version="1.0" encoding="utf-8"?>
<!-- Generator: Adobe Illustrator 20.1.0, SVG Export Plug-In . SVG Version: 6.00 Build 0)  -->
<svg version="1.1" id="Слой_1" xmlns="http://www.w3.org/2000/svg" xmlns:xlink="http://www.w3.org/1999/xlink" x="0px" y="0px"
	 viewBox="0 0 70 70" style="enable-background:new 0 0 70 70;" xml:space="preserve">
<g>
	<path d="M35,0C15.7,0,0,15.7,0,35s15.7,35,35,35s35-15.7,35-35S54.3,0,35,0z M35,16.1c6.3,0,11.5,5.4,11.5,12s-5.2,12-11.5,12
		s-11.5-5.4-11.5-12S28.7,16.1,35,16.1z M35,66c-8.1,0-15.8-3.1-21.6-8.8C19.3,49.3,27,45,35,45s15.7,4.3,21.6,12.2
		C50.8,62.9,43.1,66,35,66z"/>
</g>
</svg>
