<?xml version="1.0" encoding="utf-8"?>
<!-- Generator: Adobe Illustrator 20.1.0, SVG Export Plug-In . SVG Version: 6.00 Build 0)  -->
<svg version="1.1" id="Слой_1" xmlns="http://www.w3.org/2000/svg" xmlns:xlink="http://www.w3.org/1999/xlink" x="0px" y="0px"
	 viewBox="0 0 52 64" enable-background="new 0 0 52 64" xml:space="preserve">
<path d="M34,2v6h16c1.1,0,2,0.9,2,2v4c0,1.1-0.9,2-2,2H2c-1.1,0-2-0.9-2-2v-4c0-1.1,0.9-2,2-2h16V2c0-1.1,0.9-2,2-2h12
	C33.1,0,34,0.9,34,2z M10,64h32c3.3,0,6-2.7,6-6V22H4v36C4,61.3,6.7,64,10,64z"/>
</svg>
