<?xml version="1.0" encoding="utf-8"?>
<!-- Generator: Adobe Illustrator 20.1.0, SVG Export Plug-In . SVG Version: 6.00 Build 0)  -->
<svg version="1.1" id="Слой_1" xmlns="http://www.w3.org/2000/svg" xmlns:xlink="http://www.w3.org/1999/xlink" x="0px" y="0px"
	 viewBox="0 0 86.3 66.5" enable-background="new 0 0 86.3 66.5" xml:space="preserve">
<path d="M3.6,54.9h4.3v8.6c0,3.2,1.7,3.9,3.8,1.4l8.4-10h36.9c1.9,0,3.6-1.7,3.6-3.7v-8.5H33.2c-4.2,0-7.9-3.6-7.9-7.8V12.3H3.6
	c-1.9,0-3.6,1.4-3.6,3.4v35.6C0,53.2,1.7,54.9,3.6,54.9z"/>
<path d="M84.2,0H33c-1.1,0-2,0.8-2,1.9c0,0,0,0,0,0v33.2c0,1.1,0.9,2.1,2,2.1h31.4l11,13.1c2.1,2.5,3.8,1.9,3.8-1.4V37.2h5.1
	c1.1,0,2-1,2-2.1V2C86.3,0.9,85.4,0,84.2,0C84.3,0,84.3,0,84.2,0z"/>
</svg>
