<?xml version="1.0" encoding="utf-8"?>
<!-- Generator: Adobe Illustrator 20.1.0, SVG Export Plug-In . SVG Version: 6.00 Build 0)  -->
<svg version="1.1" id="Слой_1" xmlns="http://www.w3.org/2000/svg" xmlns:xlink="http://www.w3.org/1999/xlink" x="0px" y="0px"
	 viewBox="0 0 64 88" enable-background="new 0 0 64 88" xml:space="preserve">
<g transform="translate(0,-952.36218)">
	<path d="M32,952.4c-3.7,0-6.9,2.5-7.8,6H16v10h32v-10h-8.3C38.9,954.9,35.7,952.4,32,952.4z M0,962.4v78h64v-78H50v6
		c0,1.1-0.9,2-2,2H16c-1.1,0-2-0.9-2-2v-6H0z M20,976.4c2.2,0,4,1.8,4,4c0,2.2-1.8,4-4,4s-4-1.8-4-4C16,978.2,17.8,976.4,20,976.4z
		 M35,984.4h17c1.1,0,2,0.9,2,2s-0.9,2-2,2H35c-1.1,0-2-0.9-2-2S33.9,984.4,35,984.4z M20,985.4c3.7,0,8,1.4,8,7H12
		C12,986.8,16.3,985.4,20,985.4z M12,998.4h40c1.1,0,2,0.9,2,2c0,1.1-0.9,2-2,2H12c-1.1,0-2-0.9-2-2C10,999.3,10.9,998.4,12,998.4z
		 M12,1012.4h40c1.1,0,2,0.9,2,2s-0.9,2-2,2H12c-1.1,0-2-0.9-2-2S10.9,1012.4,12,1012.4z M12,1026.4h40c1.1,0,2,0.9,2,2s-0.9,2-2,2
		H12c-1.1,0-2-0.9-2-2S10.9,1026.4,12,1026.4z"/>
</g>
</svg>
