<?xml version="1.0" encoding="utf-8"?>
<!-- Generator: Adobe Illustrator 20.1.0, SVG Export Plug-In . SVG Version: 6.00 Build 0)  -->
<svg version="1.1" id="Слой_1" xmlns="http://www.w3.org/2000/svg" xmlns:xlink="http://www.w3.org/1999/xlink" x="0px" y="0px"
	 viewBox="0 0 55 54.5" enable-background="new 0 0 55 54.5" xml:space="preserve">
<path d="M39.3,11.6c1.2,0,2.2-1,2.2-2.2V2.2c0-1.2-1-2.2-2.2-2.2c-1.2,0-2.2,1-2.2,2.2v7.2C37.1,10.7,38.1,11.6,39.3,11.6z
	 M15.7,11.6c1.2,0,2.2-1,2.2-2.2V2.2c0-1.2-1-2.2-2.2-2.2c-1.2,0-2.2,1-2.2,2.2v7.2C13.5,10.7,14.4,11.6,15.7,11.6z M52.1,5.4h-7.9
	v4.1c0,2.7-2.2,4.8-4.8,4.8c-2.7,0-4.8-2.2-4.8-4.8V5.4h-14v4.1c0,2.7-2.2,4.8-4.8,4.8s-4.8-2.2-4.8-4.8V5.4H2.9
	C1.3,5.4,0,6.7,0,8.3v12h55v-12C55,6.7,53.7,5.4,52.1,5.4z M0,51.6c0,1.6,1.3,2.9,2.9,2.9h49.1c1.6,0,2.9-1.3,2.9-2.9V22.7H0V51.6z
	 M40.6,29.7h7.5v7.5h-7.5V29.7z M40.6,40.4h7.5v7.5h-7.5V40.4z M29.4,29.7h7.5v7.5h-7.5V29.7z M29.4,40.4h7.5v7.5h-7.5V40.4z
	 M18.1,29.7h7.5v7.5h-7.5V29.7z M18.1,40.4h7.5v7.5h-7.5V40.4z M6.8,29.7h7.5v7.5H6.8V29.7z M6.8,40.4h7.5v7.5H6.8V40.4z"/>
</svg>
