<?xml version="1.0" encoding="utf-8"?>
<!-- Generator: Adobe Illustrator 20.1.0, SVG Export Plug-In . SVG Version: 6.00 Build 0)  -->
<svg version="1.1" id="Слой_1" xmlns="http://www.w3.org/2000/svg" xmlns:xlink="http://www.w3.org/1999/xlink" x="0px" y="0px"
	 viewBox="0 0 82 76.8" enable-background="new 0 0 82 76.8" xml:space="preserve">
<g>
	<path d="M50.6,56.6H31.4V49h-27v19.8c0,4.4,3.6,8,8,8h57.1c4.4,0,8-3.6,8-8V49H50.6V56.6z"/>
	<rect x="35.4" y="41.4" width="11.2" height="11.2"/>
	<path d="M25,10.5H8c-4.4,0-8,3.6-8,8v26.3h31.4v-7.4h19.2v7.4H82V18.5c0-4.4-3.6-8-8-8H57V7c0-0.2,0-0.3,0-0.5
		C56.7,2.9,53.7,0,50,0H32c-3.7,0-6.7,2.9-7,6.5c0,0.2,0,0.3,0,0.5V10.5z M32,4h18c1.7,0,3,1.3,3,3v5.5H29V7C29,5.3,30.3,4,32,4z"/>
</g>
</svg>
