<?xml version="1.0" encoding="utf-8"?>
<!-- Generator: Adobe Illustrator 20.1.0, SVG Export Plug-In . SVG Version: 6.00 Build 0)  -->
<svg version="1.1" id="Слой_1" xmlns="http://www.w3.org/2000/svg" xmlns:xlink="http://www.w3.org/1999/xlink" x="0px" y="0px"
	 viewBox="0 0 81.7 96.5" enable-background="new 0 0 81.7 96.5" xml:space="preserve">
<path fill="#08618D" d="M79.4,72.7c-1.1-7.2-5.2-11.8-12.1-13.8c-5.4-1.7-14.2-4.5-15-4.9c-0.5-0.3-0.8-2.2-0.7-4.1
	c2.8-2.8,4.8-6.5,5.4-10.3c1.3-0.3,2.6-1.7,3.4-3.6c0.6-1.5,0.7-2.9,0.4-4c1-2.1,7.6-18.4-8.1-28.5c-5.4-3.5-12.3-4.5-18.4-2.7
	c-5.1,1.5-9.1,4.6-11.2,9c-4.7,3.1-5.7,13.4-2.2,21.7c-0.5,1.2-0.5,2.8,0.2,4.6c0.7,1.9,2,3.2,3.4,3.6c0.6,3.9,2.7,7.7,5.6,10.5
	c0,1.8-0.3,3.6-0.7,3.9c-0.8,0.5-9.6,3.3-15,4.9c-7,2-11.1,6.6-12.2,13.9L0,89.8c-0.1,1.8,0.4,3.4,1.6,4.7c1.2,1.3,2.8,2,4.6,2h39.3
	h1.3h28.6c1.8,0,3.4-0.7,4.6-2c1.2-1.3,1.7-2.9,1.6-4.8L79.4,72.7z"/>
<polygon fill="#1DBFF0" points="36.8,86.4 26.4,71.8 29.8,66.5 25.3,61.7 27.8,58.3 "/>
<path fill="#FFFFFF" d="M32,51.9c2.6,1.9,5.6,3.2,8.5,3.2h0.4c3,0,6-1.3,8.7-3.3c0.1,0.9,0.2,1.9,0.6,2.8l-8,8.8h-2.8l-8-8.8
	C31.8,53.7,32,52.7,32,51.9z"/>
<polygon fill="#C5E6EF" points="45.3,78.6 44.4,67.5 47.8,70.8 "/>
<polygon fill="#C5E6EF" points="34,70.7 37.4,67.3 36.5,78.6 "/>
<polygon fill="#08618D" points="38.1,83.7 39.6,65.3 42.2,65.3 43.7,83.7 40.9,92.4 "/>
<polygon fill="#1DBFF0" points="54,58.2 56.6,61.7 52.1,66.5 55.5,71.8 44.9,86.6 "/>
<path fill="#C5E6EF" d="M52.5,56.3l-4,12.4l-4.4-4.3l0-0.2l7.5-8.3C51.9,56,52.1,56.1,52.5,56.3z"/>
<path fill="#08618D" d="M24.4,11.4l0.3-0.2l0.1-0.3c1.9-3.9,5.4-6.8,10.1-8.2c5.6-1.6,11.8-0.7,16.7,2.5c12.9,8.3,9.3,20.9,7.8,24.8
	c0,0-0.1-0.1-0.1-0.1c-0.6-0.3-1.4-0.2-2.1,0.1v-1.2c0-6.9-9.2-7.1-15.3-7.3l-1.9,0c-8.3-0.2-11-0.4-11.8-3.5L28,17.1l-1,0.2
	c-0.9,0.2-1.7,0.7-2.2,1.6c-2,3.1-0.8,10-0.5,11.2c-0.6-0.3-1.2-0.3-1.8-0.1C19.5,22.2,20.9,13.5,24.4,11.4z"/>
<path fill="#FFFFFF" d="M26.2,37.4l-1.1,0.3c-0.5,0-1.5-0.7-2.1-2.3c-0.7-1.8-0.4-3.2,0.1-3.4c0.3,0,0.8,0.3,1.3,1l1.8,2.5V30l0-0.2
	c-0.4-2-1.2-7.6,0.2-9.8c0.1-0.1,0.1-0.2,0.2-0.2c1.7,3.6,6,3.7,13.3,3.9l1.8,0c8.4,0.2,13.3,1.2,13.3,5.2v6.4l1.8-2.4
	c0.5-0.7,1-1,1.5-1c0.4,0.2,0.7,1.6,0,3.4c-0.6,1.6-1.6,2.4-2.2,2.3l-1.1-0.3l-0.1,1.2C54.4,46,47.5,53,40.9,53h-0.4
	c-6.6,0-13.4-7-14.1-14.4L26.2,37.4z"/>
<path fill="#C5E6EF" d="M30,55.9l7.6,8.3l-4.3,4.2l-3.9-12.3C29.6,56.1,29.8,56,30,55.9z"/>
<path fill="#C5E6EF" d="M3.1,93.1c-0.8-0.8-1.2-2-1.1-3.1l2.2-17c1-6.4,4.5-10.4,10.7-12.2c2.1-0.7,7.2-2.2,11-3.5l-3.4,4.5l4.6,4.9
	l-3.3,5.1l15,20.9l0.5,1.7H6.2C5,94.5,3.9,94,3.1,93.1z"/>
<path fill="#C5E6EF" d="M78.5,93.1c-0.8,0.8-1.9,1.3-3.1,1.3H46.9h-1.3h-3.1l0.5-1.6l0,0l15.1-21l-3.3-5.1l4.6-4.9L56,57.5
	c3.8,1.2,8.7,2.8,10.7,3.4c6.2,1.8,9.7,5.8,10.7,12.1l2.2,17C79.7,91.2,79.3,92.3,78.5,93.1z"/>
<path fill="#08618D" d="M64.6,83L62,86.1l-1.8-1.5l-4,4.4H55v2h15.6v-2h-0.8L64.6,83z M64.6,86.1l2.5,2.8h-4.8L64.6,86.1z
	 M60.3,87.4l1.7,1.5h-3.1L60.3,87.4z"/>
</svg>
