<?xml version="1.0" encoding="utf-8"?>
<!-- Generator: Adobe Illustrator 20.1.0, SVG Export Plug-In . SVG Version: 6.00 Build 0)  -->
<svg version="1.1" id="Слой_1" xmlns="http://www.w3.org/2000/svg" xmlns:xlink="http://www.w3.org/1999/xlink" x="0px" y="0px"
	 viewBox="0 0 121.3 121.2" enable-background="new 0 0 121.3 121.2" xml:space="preserve">
<path fill="#FFFFFF" d="M89,30.4h-4.8v-2.6c0-1.4-1.2-2.6-2.6-2.6H42.2c-1.4,0-2.6,1.2-2.6,2.6v29.7c-6.1,2.2-10.4,8-10.4,14.7
	s4.3,12.6,10.4,14.7v3.6c0,1.4,1.2,2.6,2.6,2.6h39.4c1.4,0,2.6-1.2,2.6-2.6v-1.9H86c2.3,0,4.1-1.8,4.1-4.1V56.1l2.6-2.5
	c0.2-0.2,0.4-0.5,0.4-0.8V34.5C93.1,32.3,91.3,30.4,89,30.4z"/>
<path fill="#08618D" d="M31.4,72.2c0-7.4,6-13.4,13.4-13.4s13.4,6,13.4,13.4s-6,13.4-13.4,13.4S31.4,79.6,31.4,72.2z"/>
<path fill="#C5E6EF" d="M81.9,90.6c0,0.2-0.2,0.4-0.4,0.4H42.2c-0.2,0-0.4-0.2-0.4-0.4v-3c1,0.2,2,0.3,3,0.3c8.6,0,15.6-7,15.6-15.6
	s-7-15.6-15.6-15.6c-1,0-2,0.1-3,0.3V27.8c0-0.2,0.2-0.4,0.4-0.4h39.4c0.2,0,0.4,0.2,0.4,0.4L81.9,90.6L81.9,90.6z"/>
<path fill="#1DBFF0" d="M90.9,52.4l-2.7,2.4c-0.2,0.2-0.4,0.5-0.4,0.8v29c0,1-0.8,1.9-1.9,1.9h-1.7V32.7H89c1,0,1.9,0.8,1.9,1.9
	V52.4z"/>
<path fill="#1DBFF0" d="M74.6,34.5H49.2c-0.6,0-1.1,0.5-1.1,1.1s0.5,1.1,1.1,1.1h25.4c0.6,0,1.1-0.5,1.1-1.1S75.2,34.5,74.6,34.5z"
	/>
<path fill="#1DBFF0" d="M74.6,40.2H58.9c-0.6,0-1.1,0.5-1.1,1.1s0.5,1.1,1.1,1.1h15.7c0.6,0,1.1-0.5,1.1-1.1S75.2,40.2,74.6,40.2z"
	/>
<path fill="#FFFFFF" d="M52.7,66.4c-0.5-0.4-1.2-0.3-1.6,0.1l-7.8,9.2l-5-3.9c-0.5-0.4-1.2-0.3-1.6,0.2c-0.4,0.5-0.3,1.2,0.2,1.6
	l5.8,4.6c0.2,0.2,0.5,0.2,0.7,0.2c0.3,0,0.6-0.1,0.9-0.4l8.5-10C53.2,67.5,53.2,66.8,52.7,66.4z"/>
</svg>
