<?xml version="1.0" encoding="utf-8"?>
<!-- Generator: Adobe Illustrator 20.1.0, SVG Export Plug-In . SVG Version: 6.00 Build 0)  -->
<svg version="1.1" id="Слой_1" xmlns="http://www.w3.org/2000/svg" xmlns:xlink="http://www.w3.org/1999/xlink" x="0px" y="0px"
	 viewBox="0 0 121.3 121.2" enable-background="new 0 0 121.3 121.2" xml:space="preserve">
<path fill="#FFFFFF" d="M89,54h-6.7V34c0-3.3-2.7-6.1-6.1-6.1H47.9c-3.4,0-6.1,2.7-6.1,6.1v59.9c0,3.3,2.7,6,6.1,6h28.4
	c3.3,0,6.1-2.7,6.1-6.1V75.2h6.7c1.3,0,2.4-1.2,2.4-2.6v-16C91.4,55.2,90.3,54,89,54z"/>
<path fill="#C5E6EF" d="M44.1,34c0-2.1,1.7-3.8,3.8-3.8h28.4c2.1,0,3.8,1.7,3.8,3.8v3.4h-36V34z"/>
<path fill="#C5E6EF" d="M80,93.8c0,2.1-1.7,3.8-3.8,3.8H47.9c-2.1,0-3.8-1.7-3.8-3.8v-4.2H80V93.8z"/>
<path fill="#1DBFF0" d="M80,87.3H44.1V39.7H80V54H61.1c-1.3,0-2.4,1.2-2.4,2.6v16c0,1.4,1.1,2.6,2.4,2.6h2.8l1.2,6.7l6.7-6.7h8.3
	L80,87.3z"/>
<path fill="#C5E6EF" d="M89.3,72.6c0,0.1-0.1,0.3-0.4,0.3h-18l-4.5,4.6l-0.8-4.6h-4.5c-0.2,0-0.4-0.1-0.4-0.3v-16
	c0-0.1,0.1-0.3,0.4-0.3H89c0.2,0,0.4,0.1,0.4,0.3L89.3,72.6z"/>
<path fill="#08618D" d="M75.1,70.6c-1.7,0.8-3.7-1.7-3.7-1.7l2.4-2.3c0,0,1.3,1.4,1.8,1.2c0,0,1.7-1,3-3.8c0.2-0.5-1.6-1.5-1.6-1.5
	l1.7-2.8c0,0,2.7,1.3,2.4,2.9C81.1,64.1,79.8,68.3,75.1,70.6z"/>
<path fill="#08618D" d="M74.9,58.4c-1.7,0.1-3.3,0.8-4.4,2.1s-1.7,2.9-1.6,4.6c0,0.3,0.3,0.5,0.6,0.5c0.1,0,0.3-0.1,0.4-0.1
	c0.1-0.1,0.1-0.2,0.1-0.4c-0.1-1.4,0.4-2.7,1.3-3.8c1-1,2.2-1.7,3.6-1.8c0.1,0,0.3-0.1,0.4-0.1c0.1-0.1,0.1-0.2,0.1-0.4
	C75.4,58.6,75.1,58.4,74.9,58.4z"/>
<path fill="#08618D" d="M72.6,62.4c-0.6,0.7-0.9,1.5-0.8,2.4c0,0.1,0.1,0.3,0.1,0.4c0.1,0.1,0.2,0.1,0.4,0.1c0.2,0,0.3-0.1,0.4-0.1
	c0.1-0.1,0.1-0.2,0.1-0.4c0-0.6,0.1-1.2,0.6-1.6c0.4-0.4,1-0.7,1.6-0.7c0.1,0,0.3-0.1,0.4-0.1c0.1-0.1,0.1-0.2,0.1-0.4
	s-0.1-0.3-0.1-0.4c-0.1-0.1-0.2-0.1-0.4-0.1C74,61.3,73.2,61.8,72.6,62.4z"/>
<circle fill="#1DBFF0" cx="62.1" cy="93.5" r="2.4"/>
<path fill="#1DBFF0" d="M57.7,33c-0.5,0-1,0.4-1,1s0.4,1,1,1h8.7c0.5,0,1-0.4,1-1s-0.4-1-1-1H57.7z"/>
</svg>
