<?xml version="1.0" encoding="utf-8"?>
<!-- Generator: Adobe Illustrator 20.1.0, SVG Export Plug-In . SVG Version: 6.00 Build 0)  -->
<svg version="1.1" id="Слой_1" xmlns="http://www.w3.org/2000/svg" xmlns:xlink="http://www.w3.org/1999/xlink" x="0px" y="0px"
	 viewBox="0 0 173.5 173.5" enable-background="new 0 0 173.5 173.5" xml:space="preserve">
<g>
	<path d="M32.4,65.9c-3,0-5.4,2.4-5.4,5.4v51.6c0,3,2.4,5.4,5.4,5.4h32.2V139h-4.3c-0.6,0-1.1,0.5-1.1,1.1c0,0.6,0.5,1.1,1.1,1.1
		h25.8c0.6,0,1.1-0.5,1.1-1.1c0-0.6-0.5-1.1-1.1-1.1h-4.3v-10.8H114c3,0,5.4-2.4,5.4-5.4V71.3c0-3-2.4-5.4-5.4-5.4H32.4z"/>
	<path fill="#FFFFFF" d="M32.4,68H114c1.8,0,3.2,1.4,3.2,3.2v41.9H29.1V71.3C29.1,69.5,30.6,68,32.4,68z"/>
	<path fill="#FFFFFF" d="M29.1,115.3h88.1v7.5c0,1.8-1.4,3.2-3.2,3.2H32.4c-1.8,0-3.2-1.4-3.2-3.2L29.1,115.3z"/>
	<circle cx="73.2" cy="120.7" r="2.1"/>
	<rect x="66.8" y="128.2" fill="#FFFFFF" width="12.9" height="10.7"/>
	<rect x="69.1" y="32.8" fill="none" width="77" height="77"/>
	<path d="M139.8,69.3L139.8,69.3v-1.8c0-4.3-0.9-8.6-2.5-12.5c-1.6-3.8-3.9-7.3-6.9-10.2c-3-3-6.4-5.3-10.2-6.9
		c-4-1.7-8.2-2.5-12.5-2.5c-4.4-0.1-8.7,0.7-12.6,2.4c-3.8,1.6-7.3,3.9-10.2,6.9c-3,3-5.3,6.4-6.9,10.2c-1.7,4-2.5,8.2-2.5,12.5v0.2
		h2v-0.2l0,0c0-1.7,0.1-3.3,0.4-4.9c0.1,0,0.1,0,0.2,0c0.8,0,1.5-0.2,2.3-0.5c1.1-0.6,1.9-1.5,2.4-2.7c0-0.1,0.1-0.2,0.1-0.3
		c3.4-10.6,13.4-17.8,24.7-17.8s21.3,7.2,24.9,18l0,0c0.5,1.4,1.6,2.6,3,3.1c0.6,0.2,1.1,0.3,1.7,0.3c0.1,0,0.1,0,0.2,0
		c0.3,1.6,0.4,3.2,0.4,4.9v1.8v3.6V77c-1-1.4-2.4-2.4-4-3.1v-3c0-0.6-0.5-1-1-1h-5.5c-0.6,0-1,0.5-1,1v24.2c0,0.6,0.5,1,1,1h5.5
		c0.6,0,1-0.5,1-1v-3c1.4-0.6,2.7-1.5,3.6-2.6c-1.9,11.5-12,20.4-24,20.4h-2.1c0.4-0.7,0.6-1.4,0.6-2.3c0-2.4-1.9-4.3-4.3-4.3
		s-4.3,1.9-4.3,4.3s1.9,4.3,4.3,4.3h5.8c7.1,0,13.7-2.7,18.7-7.7c5-5,7.7-11.6,7.7-18.7c0-0.2,0-0.3-0.1-0.5c0.1-0.6,0.2-1.3,0.2-2
		c0-0.1,0-0.3,0-0.4v-0.1L139.8,69.3L139.8,69.3z"/>
	<path fill="#FFFFFF" d="M136.2,60.4c-0.9-0.3-1.6-1.1-1.8-2c0-0.1-0.1-0.2-0.1-0.3c-0.9-2.6-2.2-5.1-3.9-7.3
		c-1.7-2.3-3.8-4.4-6.1-6.1c-4.9-3.6-10.7-5.5-16.7-5.5c-6.1,0-11.9,1.9-16.8,5.6c-2.4,1.7-4.4,3.8-6.1,6.2c-1.7,2.4-3.1,5.1-4,7.9
		V59c-0.5,1-1.4,1.6-2.4,1.6c3-13.4,15-23.3,29.3-23.3s26.2,9.9,29.4,23.3C136.7,60.5,136.5,60.5,136.2,60.4z"/>
	<path fill="#FFFFFF" d="M131.7,91.2c0,0.1,0,0.1,0,0.2v2.7h-3.4V71.9h3.4v2.7c0,0.1,0,0.1,0,0.2V91.2z"/>
	<circle fill="#FFFFFF" cx="107.6" cy="107.6" r="2.3"/>
	<path fill="#FFFFFF" d="M132.9,90.2V75.7c2.9,1.2,4.8,4.1,4.8,7.3C137.8,86.2,135.9,89,132.9,90.2z"/>
	<g transform="translate(0,-952.36218)">
		<path d="M68.5,1032.2c-1.4,0-2.6,1.2-2.6,2.6v1.1h-7c-1.4,0-2.6,1.2-2.6,2.6v13.2c0,1.4,1.2,2.6,2.6,2.6h1.8v3.3
			c0,0.6,0.5,1.1,1.1,1.1c0.2,0,0.5-0.1,0.7-0.2l5.6-4.2h9.2c1.2,0,2.3-0.9,2.5-2.1l3.4,2.6c0.5,0.4,1.2,0.3,1.5-0.2
			c0.1-0.2,0.2-0.4,0.2-0.7v-3.3h1.8c1.4,0,2.6-1.2,2.6-2.6v-13.2c0-1.4-1.2-2.6-2.6-2.6H68.5z M68.5,1034.4h18.4
			c0.2,0,0.4,0.1,0.4,0.4v13.2c0,0.2-0.1,0.4-0.4,0.4H84c-0.6,0-1.1,0.5-1.1,1.1v2.2l-2.9-2.2v-11c0-1.4-1.2-2.6-2.6-2.6h-9.2v-1.1
			C68.2,1034.5,68.3,1034.4,68.5,1034.4z M59,1038.1h18.4c0.2,0,0.4,0.1,0.4,0.4v13.2c0,0.2-0.1,0.4-0.4,0.4h-9.6
			c-0.2,0-0.5,0.1-0.7,0.2l-4.1,3.1v-2.2c0-0.6-0.5-1.1-1.1-1.1H59c-0.2,0-0.4-0.1-0.4-0.4v-13.2C58.6,1038.2,58.7,1038.1,59,1038.1
			z M63,1043.6c-0.8,0-1.5,0.7-1.5,1.5c0,0.8,0.7,1.5,1.5,1.5s1.5-0.7,1.5-1.5C64.5,1044.3,63.8,1043.6,63,1043.6z M68.2,1043.6
			c-0.8,0-1.5,0.7-1.5,1.5c0,0.8,0.7,1.5,1.5,1.5c0.8,0,1.5-0.7,1.5-1.5C69.7,1044.3,69,1043.6,68.2,1043.6z M73.3,1043.6
			c-0.8,0-1.5,0.7-1.5,1.5c0,0.8,0.7,1.5,1.5,1.5c0.8,0,1.5-0.7,1.5-1.5C74.8,1044.3,74.1,1043.6,73.3,1043.6z"/>
	</g>
</g>
</svg>
