<?xml version="1.0" encoding="utf-8"?>
<!-- Generator: Adobe Illustrator 20.1.0, SVG Export Plug-In . SVG Version: 6.00 Build 0)  -->
<svg version="1.1" id="Слой_1" xmlns="http://www.w3.org/2000/svg" xmlns:xlink="http://www.w3.org/1999/xlink" x="0px" y="0px"
	 viewBox="0 0 173.5 173.5" enable-background="new 0 0 173.5 173.5" xml:space="preserve">
<g>
	<path fill="#FFFFFF" stroke="#1D1D1B" stroke-width="2" stroke-miterlimit="10" d="M86.6,120.7h50.1c5.7,0,10.3-4.6,10.3-10.3V55
		c0-5.7-4.6-10.3-10.3-10.3H86.6c-5.7,0-10.3,4.6-10.3,10.3v55.5C76.3,116.1,80.9,120.7,86.6,120.7z"/>
	<path fill="#FFFFFF" stroke="#1D1D1B" stroke-width="2" stroke-miterlimit="10" d="M106.7,111.6h20.1c5.7,0,10.3-4.6,10.3-10.2
		V67.9c0-5.7-4.6-10.3-10.3-10.3h-20.1c-5.7,0-10.3,4.6-10.3,10.3v33.5C96.5,107,101.1,111.6,106.7,111.6z"/>
	<path d="M111.8,84.7h4v12.9h-4V84.7z M113.8,78.3c1.3,0,2.3,1,2.3,2.3c0,1.3-1,2.3-2.3,2.3s-2.3-1-2.3-2.3
		C111.4,79.4,112.5,78.3,113.8,78.3"/>
	<path d="M118.3,84.7h3.8v1.8h0.1c0.5-1,1.8-2.1,3.8-2.1c4.1,0,4.8,2.7,4.8,6.1v7.1h-4v-6.3c0-1.5,0-3.4-2.1-3.4
		c-2.1,0-2.4,1.6-2.4,3.3v6.4h-4C118.3,97.6,118.3,84.7,118.3,84.7z"/>
	<path d="M27.5,119.6c1.1,1.6,2.8,2.5,4.8,2.5h36.3c3.9,2.5,8.4,4.1,13.3,4.1c13.7-0.1,24.7-11.5,24.7-25.4c0-10.2-5.9-19.2-15-23.2
		v-14h1.7c0.6,0,1-0.4,1-1c0-0.6-0.4-1-1-1H70.6c-0.6,0-1,0.4-1,1c0,0.6,0.4,1,1,1h1.7v14c-0.9,0.4-1.8,0.9-2.7,1.4l-3.2-9.4
		c-0.8-2.2-1.1-4.6-1.1-6.9V49.4h2.2c0.6,0,1-0.4,1-1s-0.4-1-1-1H41c-0.6,0-1,0.4-1,1s0.4,1,1,1h2.1v13.5c0,2.3-0.4,4.7-1.1,6.9
		L26.7,114"/>
	<path fill="#FFFFFF" d="M28.6,114.6l15.3-44.2c0.8-2.4,1.2-5,1.2-7.5v-0.4h5.6c0.6,0,1-0.4,1-1c0-0.6-0.4-1-1-1h-5.6V56h5.6
		c0.6,0,1-0.4,1-1c0-0.6-0.4-1-1-1h-5.6v-4.6H63v13.3c0,2.5,0.4,5.1,1.2,7.5l3.5,10c-1.2,0.8-2.2,1.7-3.2,2.8L63,78.4
		c-0.1-0.4-0.5-0.7-0.9-0.7H46.5l0,0c-0.1,0-0.2,0-0.2,0c-0.1,0-0.1,0-0.2,0s-0.1,0.1-0.2,0.1s-0.1,0.1-0.1,0.1l-0.1,0.2
		c0,0.1-0.1,0.1-0.1,0.2l0,0L34,111.5c-0.3,0.9-0.2,2,0.4,2.8s1.5,1.3,2.4,1.3h25.1c1.1,1.6,2.5,3.1,4,4.5H32.3V120
		c-1.2,0-2.4-0.6-3.1-1.6"/>
	<path fill="#FFFFFF" d="M47.2,79.8h14l1.7,5c-3.6,4.5-5.7,10.1-5.7,16.1c0,4.7,1.2,8.9,3.4,12.7H37c-0.3,0-0.6-0.2-0.8-0.4
		c-0.2-0.3-0.3-0.6-0.1-1L47.2,79.8z"/>
	<path fill="#FFFFFF" d="M81.9,124.1c-12.5,0-22.6-10.5-22.6-23.3c0-9.6,5.6-18.1,14.3-21.6c0.4-0.2,0.6-0.5,0.6-0.9v-3.4h5.2
		c0.6,0,1-0.4,1-1c0-0.6-0.4-1-1-1h-5.2v-3.6h5.2c0.6,0,1-0.4,1-1s-0.4-1-1-1h-5.2v-3.8h15.2v14.7c0,0.4,0.2,0.8,0.6,0.9
		c8.8,3.6,14.5,12.1,14.5,21.6C104.6,113.6,94.4,124.1,81.9,124.1z"/>
	<path d="M63.8,94.2c-0.8,2.2-1.2,4.6-1.2,6.9c0,11,8.7,19.8,19.4,19.8s19.4-8.9,19.4-19.8c0-2.3-0.4-4.7-1.2-6.9
		c-0.1-0.4-0.5-0.7-0.9-0.7H64.7C64.3,93.5,64,93.8,63.8,94.2z M98.4,95.5c0.6,1.8,0.9,3.7,0.9,5.6c0,9.9-7.8,17.8-17.4,17.8
		c-9.6,0-17.4-8-17.4-17.8c0-1.8,0.3-3.8,0.9-5.6H98.4z"/>
</g>
</svg>
