<?xml version="1.0" encoding="utf-8"?>
<!-- Generator: Adobe Illustrator 20.1.0, SVG Export Plug-In . SVG Version: 6.00 Build 0)  -->
<svg version="1.1" id="Слой_1" xmlns="http://www.w3.org/2000/svg" xmlns:xlink="http://www.w3.org/1999/xlink" x="0px" y="0px"
	 viewBox="0 0 173.5 173.5" enable-background="new 0 0 173.5 173.5" xml:space="preserve">
<g>
	<path fill="#FFFFFF" d="M54.6,52.8l0.3-0.2l0.1-0.3c1.9-4,5.6-7,10.3-8.3c5.7-1.6,12.1-0.7,17.1,2.5c13.2,8.5,9.5,21.3,7.9,25.4
		l-0.1-0.1c-0.6-0.3-1.4-0.2-2.1,0.1v-1.2c0-7-9.4-7.3-15.6-7.4h-1.9c-8.5-0.2-11.2-0.4-12-3.6l-0.2-1l-1,0.2
		c-1,0.2-1.7,0.7-2.3,1.6c-2.2,3.1-0.9,10.1-0.6,11.4c-0.6-0.3-1.3-0.3-1.9-0.1C49.5,63.8,51,54.8,54.6,52.8z"/>
	<path fill="#FFFFFF" d="M56.3,79.6l-1.2,0.3c-0.5,0-1.5-0.8-2.2-2.4c-0.7-1.9-0.4-3.3,0.2-3.5c0.3,0,0.9,0.3,1.4,1l1.9,2.5V72v-0.2
		c-0.4-2.1-1.3-7.9,0.2-10.1c0.1-0.1,0.1-0.2,0.2-0.2c1.7,3.7,6.2,3.8,13.8,4l1.9,0.1c8.7,0.2,13.7,1.2,13.7,5.4v6.6l1.9-2.5
		c0.5-0.7,1-1.1,1.5-1c0.4,0.2,0.8,1.7,0,3.5c-0.6,1.6-1.7,2.5-2.2,2.4l-1.2-0.4l-0.1,1.2c-0.7,7.7-7.8,14.9-14.6,14.9h-0.4
		c-6.8,0-13.9-7.2-14.6-14.9L56.3,79.6z"/>
	<polygon fill="#FFFFFF" points="144.6,106.2 142,111.4 136.7,113.1 109.8,80.4 113.9,77.3 	"/>
	<path d="M29.5,133.6c-0.1,1.8,0.5,3.6,1.7,4.9c1.2,1.3,2.9,2,4.8,2h71.1c1.8,0,3.5-0.7,4.8-2c1.2-1.3,1.8-3.1,1.7-5l-2.3-17.6
		c-1.1-7.4-5.4-12.3-12.6-14.3c-4.2-1.3-10.5-3.3-13.6-4.4l0,0l0,0c-0.9-0.3-1.6-0.6-1.8-0.7c-0.4-0.2-0.7-2.1-0.7-4
		c1.7-1.7,5-6.7,5.7-9.5c-0.7-0.2-1.8-0.1-2.5-0.4c-1.8,6.8-9.1,12.8-14.3,12.8h-0.4c-3.1,0-6.2-1.5-8.7-3.8l-0.1-0.1
		c-3-2.8-5.2-6.7-5.6-10.8l-0.2-1.3l-1.3,0.3c-0.5,0-1.5-0.8-2.1-2.3c-0.7-1.9-0.3-3.2,0.1-3.4c0.3,0,0.8,0.3,1.3,1l2.1,2.8V72v-0.2
		c-0.6-2.8-1.1-8,0.2-10c0,0,0-0.1,0.1-0.1c0.8,3.9,9.1,3.8,14.6,4c-0.2-0.7,1.2-1.7,1.1-2.5c0-0.1-5.5-0.2-5.5-0.2
		c-5.6-0.3-7.8-0.7-8.4-3.3l-0.4-1.1l-1.1,0.2c-1,0.2-1.8,0.8-2.4,1.7c-2,3.1-0.9,9.8-0.6,11.4c-0.6-0.2-1.1-0.2-1.7-0.1
		c-3-8-1.6-16.9,2-18.9l0.3-0.2l0.2-0.3c1.9-4,5.6-7,10.3-8.4c1.8-0.5,3.7-0.8,5.6-0.8c0.5-0.8,1-1.5,1.6-2.3
		c-2.6-0.2-5.3,0.1-7.8,0.8c-5.2,1.5-9.3,4.8-11.6,9.3c-4.8,3.2-5.9,13.8-2.3,22.4c-0.5,1.2-0.5,3,0.2,4.7c0.8,1.9,2.1,3.3,3.5,3.7
		c0.6,4.1,2.9,8,5.9,10.9c0,1.4-0.2,3-0.6,3.7c-0.1,0-0.6,0.3-1.8,0.7l0,0l0,0l0,0l0,0c-0.2,0-0.3,0.1-0.5,0.2
		c-4.5,1.6-13,4.3-13.1,4.3c-7.2,2-11.5,6.9-12.6,14.3L29.5,133.6"/>
	<path fill="#FFFFFF" d="M82.7,98.8c0.2,0.1,0.4,0.1,0.6,0.2l-3.8,12.6l-4.4-4.3L82.7,98.8z"/>
	<polygon fill="#FFFFFF" points="78.8,114.1 76.3,122.3 75.4,110.8 	"/>
	<path fill="#FFFFFF" d="M62.7,94.8c2.6,1.9,5.6,3,8.5,3h0.4c3,0,6.1-1.3,8.8-3.3c0,0.4,0.1,0.7,0.1,1.1c-3.8,3.4-8.2,3.5-8.3,3.5
		c-0.3,0-0.5,0.2-0.5,0.5s0.2,0.5,0.5,0.5c0.2,0,4.6-0.1,8.6-3.4c0.1,0.2,0.1,0.4,0.2,0.6l-8.1,8.9h-2.7l-8.1-9.1
		C62.4,96.3,62.6,95.5,62.7,94.8z"/>
	<path fill="#FFFFFF" d="M60.6,98.7l7.6,8.5l-4.5,4.4l-3.9-12.5C60.1,99,60.3,98.8,60.6,98.7z"/>
	<polygon fill="#FFFFFF" points="68,110.6 67.1,122.5 64.5,114.1 	"/>
	<path fill="#FFFFFF" d="M36,138.2c-1.2,0-2.3-0.5-3.1-1.3s-1.2-2-1.1-3.1l2.3-17.5c1-6.6,4.6-10.6,11-12.4c0.1,0,5.2-1.6,9.6-3.1
		l-3.7,4.6l5.5,7l-4.3,5l15.7,20.9L36,138.2L36,138.2z"/>
	<path fill="#FFFFFF" d="M55.1,117.4l4.3-5l-5.5-7l3.9-4.8l8.9,28.4l0,0l2,6.5L55.1,117.4z"/>
	<g>
		<polygon fill="#FFFFFF" points="71.7,137.3 68.9,128.5 70.5,108.5 72.9,108.5 74.4,128.4 		"/>
		<path d="M71.7,138.2l-3-9.7l0,0l1.6-20.3h2.9v0.2l1.5,20L71.7,138.2z M69.2,128.4l2.5,8l2.5-8.1l-1.5-19.7h-1.9L69.2,128.4z"/>
	</g>
	<polygon fill="#FFFFFF" points="85.3,100.4 89.3,105.4 83.8,112.4 88.1,117.4 74.7,135.4 	"/>
	<path fill="#FFFFFF" d="M110.2,136.9c-0.8,0.8-1.9,1.3-3.1,1.3H75.5l15.6-20.9l-4.3-5l5.5-7l-3.6-4.5c3.6,1.2,7.6,2.4,9.4,3
		c6.3,1.8,9.9,5.9,10.9,12.4l2.3,17.5C111.4,134.9,111,136.1,110.2,136.9z"/>
	<path d="M145.1,104.8L114.2,76c-0.5,0.5-1,1.1-1.6,1.6l30.9,28.8c0.2,0.4-0.9,2.9-2,3.9c-1.1,1.1-3.5,1.9-4,1.8l-27.4-32.5
		c-0.6,0.4-1.2,0.8-1.9,1.2l27.8,32.8c0.4,0.4,1,0.6,1.7,0.6c0.2,0,0.4,0,0.7-0.1c1.8-0.3,3.9-1.5,4.7-2.3c0.6-0.6,1.5-1.9,2.1-3.2
		C145.9,107,145.9,105.6,145.1,104.8z"/>
	<path d="M121.6,54.7c-2.2-14.3-15.6-24-29.8-21.8s-24,15.6-21.7,29.8c2.3,14.2,15.6,24,29.8,21.7C114.1,82.1,123.8,68.9,121.6,54.7
		z"/>
	<g>
		<path fill="#FFFFFF" d="M99.6,82.9c-13.3,2.1-25.9-7.1-28-20.4s7.1-25.9,20.4-28c13.3-2.1,25.9,7.1,28,20.4
			C122.1,68.3,112.9,80.8,99.6,82.9z"/>
		<path d="M95.8,83.4c-5.2,0-10.2-1.6-14.5-4.8c-5.3-3.9-8.9-9.6-9.9-16.1C69.3,49.1,78.5,36.4,92,34.3c6.5-1,13,0.6,18.4,4.5
			c5.3,3.9,8.9,9.6,9.9,16.1s-0.6,13-4.5,18.4c-3.9,5.3-9.6,8.9-16.1,9.9C98.3,83.3,97.1,83.4,95.8,83.4z M95.8,34.5
			c-1.3,0-2.5,0.1-3.8,0.3c-13.1,2-22.2,14.5-20.1,27.7s14.5,22.3,27.7,20.2c6.4-1,12-4.4,15.8-9.7c3.8-5.2,5.4-11.6,4.4-18
			s-4.4-12-9.7-15.8C105.9,36.1,100.9,34.5,95.8,34.5z"/>
	</g>
	<g>
		<path d="M116.4,55.5c-1.8-11.3-12.5-19.1-23.8-17.3c-11.4,1.7-19.1,12.4-17.4,23.7C77,73.2,87.6,81,99,79.2S118.1,66.8,116.4,55.5
			z"/>
		<path d="M95.8,79.8c-4.4,0-8.7-1.4-12.4-4.1c-4.6-3.3-7.5-8.2-8.4-13.7s0.5-11.1,3.8-15.7c3.3-4.6,8.2-7.5,13.7-8.4
			c5.6-0.9,11.1,0.5,15.7,3.8c4.6,3.3,7.5,8.2,8.4,13.7s-0.5,11.1-3.8,15.7s-8.2,7.5-13.7,8.4C98,79.7,96.9,79.8,95.8,79.8z
			 M95.8,38.2c-1.1,0-2.1,0.1-3.2,0.3c-5.4,0.8-10.2,3.7-13.4,8.1c-3.2,4.4-4.6,9.9-3.7,15.3c0.8,5.4,3.8,10.2,8.2,13.4
			S93.6,79.9,99,79c5.4-0.8,10.2-3.8,13.4-8.2c3.2-4.4,4.6-9.9,3.7-15.3s-3.8-10.2-8.2-13.4C104.3,39.5,100.2,38.2,95.8,38.2z"/>
	</g>
	<g>
		<path fill="#FFFFFF" d="M98.8,77.7c-10.4,1.6-20.3-5.5-21.9-16c-1.6-10.4,5.5-20.3,16-21.9c10.5-1.6,20.3,5.5,21.9,16
			C116.4,66.2,109.2,76,98.8,77.7z"/>
		<path d="M95.8,78.1c-4.1,0-8-1.3-11.4-3.7c-4.2-3.1-7-7.6-7.8-12.7c-0.8-5.1,0.4-10.2,3.5-14.4s7.6-7,12.7-7.8
			c10.6-1.7,20.5,5.6,22.2,16.2s-5.6,20.5-16.2,22.2l0,0C97.8,78.1,96.8,78.1,95.8,78.1z M95.8,39.8c-1,0-2,0.1-2.9,0.2
			c-5,0.8-9.4,3.5-12.4,7.6s-4.2,9.1-3.4,14.1c0.8,5,3.5,9.4,7.6,12.4s9.1,4.2,14.1,3.4l0,0c10.2-1.7,17.3-11.4,15.7-21.7
			C113,46.5,105,39.8,95.8,39.8z"/>
	</g>
</g>
</svg>
