<?xml version="1.0" encoding="utf-8"?>
<!-- Generator: Adobe Illustrator 20.1.0, SVG Export Plug-In . SVG Version: 6.00 Build 0)  -->
<svg version="1.1" id="Слой_1" xmlns="http://www.w3.org/2000/svg" xmlns:xlink="http://www.w3.org/1999/xlink" x="0px" y="0px"
	 viewBox="0 0 173.5 173.5" enable-background="new 0 0 173.5 173.5" xml:space="preserve">
<g>
	<polygon fill="#FFFFFF" points="49.3,42.3 53.5,38.8 121.4,39.5 124.4,41.5 124.7,119 108.9,133.8 53.3,135.3 49.8,132 	"/>
	<path d="M86.8,90.2V49.4c0-1.9-1.5-3.5-3.5-3.5H61.8c-1.9,0-3.5,1.5-3.5,3.5v40.8c0,1.9,1.5,3.5,3.5,3.5h21.4
		C85.2,93.7,86.8,92.1,86.8,90.2z"/>
	<path fill="#FFFFFF" d="M59.7,90.2V49.4c0-1.2,0.9-2.1,2.2-2.1h21.4c1.2,0,2.2,0.9,2.2,2.1v40.8c0,1.2-0.9,2.1-2.2,2.1H61.8
		C60.5,92.3,59.7,91.4,59.7,90.2z"/>
	<path d="M80.3,75.3H64.7c-0.3,0-0.7,0.3-0.7,0.7c0,0.3,0.3,0.7,0.7,0.7h15.6c0.3,0,0.7-0.3,0.7-0.7S80.8,75.3,80.3,75.3z"/>
	<path d="M80.3,80.3H64.7c-0.3,0-0.7,0.3-0.7,0.7s0.3,0.7,0.7,0.7h15.6c0.3,0,0.7-0.3,0.7-0.7S80.8,80.3,80.3,80.3z"/>
	<path d="M80.3,85.3H64.7c-0.3,0-0.7,0.3-0.7,0.7c0,0.3,0.3,0.7,0.7,0.7h15.6c0.3,0,0.7-0.3,0.7-0.7S80.8,85.3,80.3,85.3z"/>
	<path d="M140.8,38.6c-0.1-0.5-0.5-1-1.1-1H131c-0.5,0-1.1,0.4-1.1,1.1v36.6c0,0.5,0.4,1.1,1.1,1.1h8.7c0.5,0,1.1-0.4,1.1-1.1V38.6
		L140.8,38.6z"/>
	<path fill="#FFFFFF" d="M131.4,74.7V39.3h7.5v4.2h-3.6c-0.3,0-0.7,0.3-0.7,0.7c0,0.3,0.3,0.7,0.7,0.7h3.6V50h-2.4
		c-0.3,0-0.7,0.3-0.7,0.7c0,0.3,0.3,0.7,0.7,0.7h2.4v5.2h-3.6c-0.3,0-0.7,0.3-0.7,0.7c0,0.3,0.3,0.7,0.7,0.7h3.6v5.1h-2.4
		c-0.3,0-0.7,0.3-0.7,0.7c0,0.3,0.3,0.7,0.7,0.7h2.4v5.1h-3.6c-0.3,0-0.7,0.3-0.7,0.7c0,0.3,0.3,0.7,0.7,0.7h3.6v4.2h-7.5V74.7z"/>
	<path d="M77.9,101.4h22.3c0.5,0,1.1-0.4,1.1-1.1s-0.6-1.1-1.1-1.1H77.9c-0.5,0-1.1,0.4-1.1,1.1C76.8,101,77.3,101.4,77.9,101.4z"/>
	<path d="M101.3,106.4c-0.1-0.6-0.6-1-1.1-1H77.9c-0.5,0-1.1,0.4-1.1,1.1c0,0.5,0.4,1.1,1.1,1.1h22.3
		C100.8,107.6,101.3,107.2,101.3,106.4z"/>
	<path d="M92.3,55.5h22.3c0.5,0,1.1-0.4,1.1-1.1s-0.6-1.1-1.1-1.1H92.3c-0.5,0-1.1,0.4-1.1,1.1S91.6,55.5,92.3,55.5z"/>
	<path d="M115.7,60.5c-0.1-0.6-0.6-1-1.1-1H92.3c-0.5,0-1.1,0.4-1.1,1.1c0,0.5,0.4,1.1,1.1,1.1h22.3
		C115.1,61.7,115.7,61.3,115.7,60.5z"/>
	<path d="M92.3,68h22.3c0.5,0,1.1-0.4,1.1-1.1c0-0.7-0.6-1.1-1.1-1.1H92.3c-0.5,0-1.1,0.4-1.1,1.1C91.2,67.5,91.6,68,92.3,68z"/>
	<path d="M115.7,72.9c-0.1-0.6-0.6-1-1.1-1H92.3c-0.5,0-1.1,0.4-1.1,1.1c0,0.5,0.4,1.1,1.1,1.1h22.3
		C115.1,74.1,115.7,73.7,115.7,72.9z"/>
	<path d="M100.3,111.5H81.3c-0.5,0-1.1,0.4-1.1,1.1c0,0.5,0.4,1.1,1.1,1.1h18.9c0.5,0,1.1-0.4,1.1-1.1v-0.1
		C101.3,112,100.8,111.5,100.3,111.5z"/>
	<path d="M138.1,97.4h-19.3v-1.5c0-0.5-0.3-0.9-0.7-1c-0.7-0.2-1,0.1-1.1,0.3l-6,6c-0.4,0.4-0.4,1.1,0,1.6l6,6
		c0.2,0.2,0.5,0.3,0.7,0.3c0.1,0,0.3,0,0.5-0.1c0.4-0.2,0.6-0.6,0.6-1v-1.5h5v11.4h-15.5c-0.5,0-1.1,0.4-1.1,1.1v15.4H54.3
		c-2.2,0-3.9-1.8-3.9-3.9V105l15.8,15.8l0.3,0.3l9.1,3.5h0.4c0.3,0,0.6-0.1,0.7-0.3c0.3-0.3,0.4-0.7,0.3-1.1l-3.4-9
		c-0.1-0.2-0.2-0.3-0.3-0.4c0-0.1-0.1-0.2-0.2-0.2L50.5,91V44c0-2.2,1.8-3.9,3.9-3.9h65.4c2.2,0,3.9,1.8,3.9,3.9v39.8h-11.7
		c-0.5,0-1.1,0.4-1.1,1.1v6.8c0,0.5,0.4,1.1,1.1,1.1h19.3v1.5c0,0.5,0.3,0.9,0.7,1h0.1c0.1,0,0.2,0.1,0.3,0.1c0.3,0,0.6-0.1,0.7-0.3
		l6-6c0.2-0.2,0.3-0.5,0.3-0.7c0-0.3-0.1-0.6-0.3-0.7l-5.9-6.2c-0.3-0.3-0.7-0.4-1.1-0.3c-0.4,0.1-0.7,0.6-0.7,1v1.5h-5.5V44
		c0-3.3-2.8-6.1-6.1-6.1H54.3c-3.3,0-6.1,2.8-6.1,6.1v44.8l-7.4-7.4c-1-1-2.2-1.5-3.6-1.5c-1.3,0-2.5,0.5-3.5,1.5s-1.5,2.2-1.5,3.5
		c0,1.3,0.5,2.6,1.5,3.5L48.3,103v27.4c0,3.3,2.8,6.1,6.1,6.1h54.2c0.3,0,0.4-0.2,0.6-0.3l16.5-16.4c0.3-0.3,0.4-0.7,0.3-1.1l0,0
		c0-0.1,0-0.2,0-0.3v-12h12.2c0.5,0,1.1-0.4,1.1-1.1v-6.8C139.3,98,138.9,97.4,138.1,97.4z"/>
	<path fill="#FFFFFF" d="M117.6,104.7c-0.3,0-0.7,0.3-0.7,0.7v1l-4.5-4.5l4.5-4.5v1c0,0.2,0.1,0.3,0.2,0.4c0.1,0.1,0.3,0.2,0.4,0.2
		h19.7v5.6L117.6,104.7L117.6,104.7z"/>
	<polygon fill="#FFFFFF" points="109.1,119.5 123.2,119.5 108.9,133.8 108.9,119.5 	"/>
	
		<rect x="38.5" y="88" transform="matrix(0.7071 -0.7071 0.7071 0.7071 -50.8665 55.6865)" fill="#FFFFFF" width="6.6" height="2.4"/>
	<path fill="#FFFFFF" d="M35,82.5c0.6-0.6,1.5-0.9,2.3-0.9l0,0c0.9,0,1.7,0.3,2.3,0.9l2.7,2.7l-4.6,4.6L35,87.1
		C33.7,85.8,33.7,83.8,35,82.5z"/>
	<polygon fill="#FFFFFF" points="75.1,122.5 68.2,119.9 72.3,115.6 	"/>
	
		<rect x="53.1" y="85.6" transform="matrix(0.7071 -0.7071 0.7071 0.7071 -56.9954 70.2921)" fill="#FFFFFF" width="6.6" height="36.6"/>
	<path fill="#FFFFFF" d="M133.1,92.7v-1c0-0.2-0.1-0.3-0.2-0.4s-0.3-0.2-0.4-0.2h-19.7v-5.5h19.7c0.3,0,0.7-0.3,0.7-0.7v-1l4.5,4.5
		L133.1,92.7z"/>
	<path d="M81.4,68.1L81.4,68.1c-0.3-0.9-0.4-1.5-0.7-2.2c-0.6-1.9-2.3-3-4.5-2.8c-0.3,0-0.5,0-0.8,0v-1.9c0.5-0.5,1-1.2,1.3-2.1
		c0.6-0.2,0.9-1,0.9-2.1c0-0.8-0.3-1.5-0.6-1.8c0.1-0.4,0.1-0.9,0.2-1.4c0.2-2.6-0.6-3-2-3.3H75c-0.9-0.3-2-0.4-2.7-0.4
		c-0.7,0-1.7,0.1-2.7,0.4v0.1c-1.3,0.4-2.1,0.9-2,3.3c0,0.4,0.1,0.9,0.2,1.4c-0.3,0.3-0.6,1-0.6,1.8c0,1,0.4,1.8,0.9,2.1
		c0.3,0.9,0.8,1.5,1.3,2.1v1.9c-0.3,0-0.5,0-0.8,0c-2.1-0.2-3.9,0.9-4.5,2.7c-0.3,0.7-0.4,1.4-0.7,2.1v0.1v0.1l0,0
		c0,0.1,0,0.1,0,0.2v0.1l0.1,0.1l0.1,0.1l0.1,0.1l0.1,0.1l0,0c0.1,0,0.1,0,0.2,0l0,0h16.6l0,0c0.1,0,0.1,0,0.2,0l0,0
		c0,0,0.1,0,0.1-0.1c0,0,0.1,0,0.1-0.1l0.1-0.1l0.1-0.1v-0.1c0-0.1,0-0.1,0-0.2l0,0C81.4,68.1,81.4,68.1,81.4,68.1z M69.3,58.4
		c-0.1-0.2-0.2-0.3-0.3-0.4c-0.1,0-0.2-0.1-0.3-0.1l0,0c-0.1-0.2-0.2-0.4-0.2-0.8c0-0.4,0.1-0.8,0.2-0.9c0.3-0.1,0.3-0.3,0.4-0.6
		c0-0.1,0-0.1,0-0.2v-0.1c-0.1-0.5-0.1-1-0.2-1.5c-0.1-1.7,0.1-1.8,1-2.1l0.3-0.1c0.7-0.2,1.5-0.3,2.2-0.3c0.9,0,1.6,0.1,2.2,0.3
		l0.3,0.1c0.9,0.3,1.1,0.3,1,2.1c0,0.5-0.1,1-0.2,1.5v0.1c0,0.1,0,0.2,0,0.3c0,0.3,0.2,0.4,0.4,0.5c0.1,0.1,0.2,0.4,0.2,0.9
		c0,0.3-0.1,0.7-0.2,0.8c-0.1,0-0.2,0-0.3,0.1c-0.2,0.1-0.3,0.3-0.3,0.4c-0.5,1.7-1.8,2.8-3.3,2.8C71.2,61.2,69.8,60.1,69.3,58.4z
		 M65.4,66.2c0.4-1.3,1.6-2,3.2-1.9c0.4,0,0.9,0.1,1.3,0.1c0.2,0,0.3,0,0.3-0.1c0.3,0,0.6-0.3,0.6-0.6v-1.5c0.5,0.3,1.1,0.4,1.7,0.4
		c0.6,0,1.2-0.2,1.7-0.4v1.5c0,0.3,0.2,0.5,0.5,0.6c0.1,0.1,0.3,0.1,0.4,0.1c0.4,0,0.9,0,1.3-0.1c1.5-0.1,2.7,0.6,3.2,1.9
		c0.2,0.4,0.3,0.9,0.4,1.3h-15C65.2,67,65.3,66.6,65.4,66.2z"/>
</g>
</svg>
