<?xml version="1.0" encoding="utf-8"?>
<!-- Generator: Adobe Illustrator 20.1.0, SVG Export Plug-In . SVG Version: 6.00 Build 0)  -->
<svg version="1.1" id="Слой_1" xmlns="http://www.w3.org/2000/svg" xmlns:xlink="http://www.w3.org/1999/xlink" x="0px" y="0px"
	 viewBox="0 0 173.5 173.5" enable-background="new 0 0 173.5 173.5" xml:space="preserve">
<g>
	<g>
		<path fill="#FFFFFF" d="M118.1,144.6h-73c-3,0-5.4-2.4-5.4-5.4V104l41.9,14.9l41.9-14.9v35.2C123.5,142.2,121.1,144.6,118.1,144.6
			z"/>
		<path d="M118.1,145.5h-73c-3.5,0-6.3-2.8-6.3-6.3V104c0-0.3,0.1-0.6,0.4-0.7c0.2-0.2,0.5-0.2,0.8-0.1L81.6,118l41.6-14.8
			c0.3-0.1,0.6-0.1,0.8,0.1c0.2,0.2,0.4,0.4,0.4,0.7v35.2C124.4,142.7,121.6,145.5,118.1,145.5z M40.6,105.3v33.9
			c0,2.5,2,4.5,4.5,4.5h73c2.5,0,4.5-2,4.5-4.5v-33.9l-40.7,14.4c-0.2,0.1-0.4,0.1-0.6,0L40.6,105.3z"/>
	</g>
	<rect x="119.9" y="96.3" transform="matrix(0.7809 -0.6247 0.6247 0.7809 -36.4187 97.5346)" width="1.8" height="8.7"/>
	<rect x="115.9" y="136.5" width="1.8" height="2.7"/>
	<rect x="110.5" y="136.5" width="1.8" height="2.7"/>
	<rect x="105.1" y="136.5" width="1.8" height="2.7"/>
	<g>
		<path fill="#FFFFFF" d="M114.7,61.2c-3.3,5.4-7,11.3-7,11.3c-10-2-17.6,0.4-21.1,1.9c1,1.4,0.8,3.4-0.6,4.6
			c-1.5,1.3-3.9,1.2-5.3-0.2l-1-1c-1.4-1.5-1.3-3.7,0.2-5.1c1.3-1.2,3.4-1.2,4.8-0.2c1.3-2.2,3.1-6.3,3.7-11.7H50.5
			c-3,0-5.4,2.4-5.4,5.4v39.2l36.4,14l36.7-14V66.2C118.1,63.9,116.7,62,114.7,61.2z"/>
		<path d="M81.5,120.3c-0.1,0-0.2,0-0.3-0.1l-36.4-14c-0.3-0.1-0.6-0.5-0.6-0.8V66.2c0-3.5,2.8-6.3,6.3-6.3h37.9
			c0.3,0,0.5,0.1,0.7,0.3c0.2,0.2,0.2,0.4,0.2,0.7c-0.6,5.5-2.4,9.5-3.8,12c-0.1,0.2-0.3,0.4-0.6,0.4c-0.2,0.1-0.5,0-0.7-0.2
			c-1.1-0.8-2.6-0.7-3.7,0.2c-0.5,0.5-0.9,1.1-0.9,1.9c0,0.7,0.2,1.4,0.7,1.9l1,1c1.1,1.1,2.9,1.2,4,0.2c1-0.9,1.2-2.3,0.4-3.4
			c-0.1-0.2-0.2-0.5-0.1-0.8c0.1-0.3,0.3-0.5,0.5-0.6c3.7-1.6,11.2-3.9,21-2.1c1-1.5,4-6.3,6.7-10.8c0.2-0.4,0.7-0.5,1.1-0.4
			c2.4,1,4,3.3,4,5.8v39.2c0,0.4-0.2,0.7-0.6,0.8l-36.5,14.2C81.7,120.3,81.6,120.3,81.5,120.3z M46,104.8l35.5,13.7l35.7-13.7V66.2
			c0-1.6-0.8-3-2.2-3.9c-3.2,5.2-6.6,10.6-6.6,10.6c-0.2,0.3-0.6,0.5-0.9,0.4c-8.9-1.7-15.9,0-19.7,1.5c0.6,1.7,0.2,3.5-1.2,4.8
			c-1.9,1.7-4.8,1.5-6.5-0.3l-1-1c-0.8-0.9-1.3-2-1.2-3.2c0-1.2,0.6-2.3,1.5-3.1c1.4-1.2,3.4-1.5,5-0.8c1.1-2.2,2.4-5.4,3-9.6H50.5
			c-2.5,0-4.5,2-4.5,4.5V104.8z"/>
	</g>
	<g>
		<polygon fill="#FFFFFF" points="133.7,44.1 119.9,29.7 107,41.1 120.9,55.5 		"/>
		<path d="M120.9,56.4c-0.2,0-0.5-0.1-0.6-0.3l-13.9-14.4c-0.2-0.2-0.3-0.4-0.2-0.7c0-0.2,0.1-0.5,0.3-0.6L119.3,29
			c0.4-0.3,0.9-0.3,1.2,0l13.8,14.4c0.2,0.2,0.3,0.4,0.2,0.7c0,0.2-0.1,0.5-0.3,0.6l-12.7,11.5C121.3,56.3,121.1,56.4,120.9,56.4z
			 M108.3,41.2l12.6,13.1l11.5-10.2l-12.6-13.2L108.3,41.2z"/>
	</g>
	<g>
		<line fill="none" x1="39.7" y1="104" x2="45.1" y2="97.3"/>
		<rect x="38.1" y="99.7" transform="matrix(0.6249 -0.7807 0.7807 0.6249 -62.6531 70.8974)" width="8.7" height="1.8"/>
	</g>
	<rect x="57.3" y="91" width="48.7" height="1.8"/>
	<rect x="57.3" y="96.4" width="48.7" height="1.8"/>
	<rect x="57.3" y="101.8" width="48.7" height="1.8"/>
	<g>
		<line fill="none" x1="68.1" y1="108.1" x2="95.1" y2="108.1"/>
		<rect x="68.1" y="107.2" width="27" height="1.8"/>
	</g>
	<g>
		<path fill="#FFFFFF" d="M116.6,51.5l-2.4-2.5l-0.9-1l-3.1-3.2l-1.7-1.8c-5.3,2.3-20.1,9.4-20.1,9.4c1.2,9.7-1.8,16.8-3.6,20.1
			c-1.4-1-3.4-1-4.8,0.2c-1.5,1.3-1.6,3.6-0.2,5.1l1,1c1.4,1.5,3.8,1.6,5.3,0.2c1.3-1.2,1.6-3.1,0.6-4.6c3.5-1.5,11.1-3.9,21.1-1.9
			c0,0,8.6-13.6,11.4-18.5L116.6,51.5z M100.4,63.7c-2.4-0.2-4.3-2.2-4.1-4.5c0.2-2.3,2.3-4.1,4.7-3.9c2.4,0.2,4.3,2.2,4.1,4.5
			C104.9,62.1,102.8,63.9,100.4,63.7z"/>
		<path d="M83.5,80.8c-1.2,0-2.5-0.5-3.4-1.4l-1-1c-0.8-0.9-1.3-2-1.2-3.2c0-1.2,0.6-2.3,1.5-3.1c1.4-1.2,3.4-1.5,5-0.8
			c1.8-3.5,4.2-10.1,3.1-18.8c0-0.4,0.2-0.7,0.5-0.9c0.1-0.1,14.8-7.2,20.1-9.5c0.3-0.1,0.7-0.1,1,0.2l8.2,8.6l0,0l2.4,2.5
			c0.3,0.3,0.3,0.7,0.1,1.1c-2.8,4.8-11.3,18.3-11.4,18.4c-0.2,0.3-0.6,0.5-0.9,0.4c-8.9-1.7-15.9,0-19.7,1.5
			c0.6,1.7,0.2,3.5-1.2,4.8C85.7,80.4,84.6,80.8,83.5,80.8z M82.4,72.6c-0.7,0-1.4,0.2-1.9,0.7s-0.9,1.1-0.9,1.9
			c0,0.7,0.2,1.4,0.7,1.9l1,1c1.1,1.1,2.9,1.2,4,0.2c1-0.9,1.2-2.3,0.4-3.4c-0.1-0.2-0.2-0.5-0.1-0.8c0.1-0.3,0.3-0.5,0.5-0.6
			c3.7-1.6,11.2-3.9,21-2.1c1.5-2.4,8-12.7,10.7-17.4l-9.7-10.1c-5,2.2-16.2,7.6-18.9,8.9c1.1,9.6-1.9,16.6-3.8,20
			c-0.1,0.2-0.3,0.4-0.6,0.4c-0.2,0.1-0.5,0-0.7-0.2C83.7,72.8,83,72.6,82.4,72.6z M100.7,64.6c-0.1,0-0.3,0-0.4,0l0,0
			c-1.4-0.1-2.7-0.7-3.6-1.8c-0.9-1-1.4-2.4-1.3-3.7c0.2-2.8,2.7-4.9,5.6-4.7c1.4,0.1,2.7,0.7,3.6,1.8c0.9,1,1.4,2.4,1.3,3.7
			C105.8,62.5,103.5,64.6,100.7,64.6z M100.5,62.8c1.9,0.1,3.6-1.3,3.7-3.1c0.1-0.9-0.2-1.7-0.8-2.4c-0.6-0.7-1.5-1.1-2.4-1.2
			c-1.9-0.1-3.6,1.2-3.7,3.1c-0.1,0.9,0.2,1.7,0.8,2.4C98.7,62.3,99.5,62.7,100.5,62.8L100.5,62.8z"/>
	</g>
</g>
</svg>
