<?xml version="1.0" encoding="utf-8"?>
<!-- Generator: Adobe Illustrator 20.1.0, SVG Export Plug-In . SVG Version: 6.00 Build 0)  -->
<svg version="1.1" id="Слой_1" xmlns="http://www.w3.org/2000/svg" xmlns:xlink="http://www.w3.org/1999/xlink" x="0px" y="0px"
	 viewBox="0 0 122.1 113.4" enable-background="new 0 0 122.1 113.4" xml:space="preserve">
<polygon fill="#1DBFF0" points="121,77.4 118.2,82.8 112.7,84.6 84.4,50.2 88.7,46.9 "/>
<path fill="#08618D" d="M86,87.6c-1.2-7.8-5.6-12.9-13.2-15c-4.4-1.4-11.1-3.5-14.3-4.6l0,0l0,0c-1-0.3-1.7-0.6-1.9-0.7
	c-0.4-0.3-0.8-2.2-0.7-4.2c1.8-1.8,3.3-4,4.3-6.3c-0.8-0.2-1.5-0.5-2.3-0.8c-2.6,5.7-8.3,10.2-13.7,10.2h-0.4c-3.2,0-6.5-1.6-9.2-4
	l-0.1-0.1c-3.2-2.9-5.5-7.1-5.9-11.3l-0.2-1.4l-1.3,0.3c-0.5,0-1.5-0.9-2.2-2.5c-0.8-2-0.3-3.4,0.1-3.5c0.3,0,0.8,0.3,1.4,1.1
	l2.2,2.9v-6.1v-0.3c-0.6-3-1.1-8.5,0.2-10.5l0.1-0.1c1.6,3.2,5.2,3.8,11,4c-0.2-0.8-0.3-1.5-0.5-2.3c0-0.1,0-0.1,0-0.2
	c-5.9-0.3-8-0.9-8.7-3.6l-0.3-1.1l-1.1,0.2c-1,0.2-1.9,0.8-2.5,1.8c-2.1,3.3-0.9,10.3-0.6,12c-0.6-0.2-1.2-0.2-1.8-0.1
	c-3.2-8.4-1.7-17.7,2.1-19.9l0.3-0.2L27,21c2-4.2,5.8-7.4,10.8-8.8c1.9-0.5,3.9-0.8,5.9-0.8c0.5-0.8,1.1-1.6,1.6-2.4
	c-2.8-0.2-5.6,0.1-8.2,0.9c-5.5,1.6-9.8,5-12.2,9.8C19.7,22.8,18.6,34,22.4,43c-0.5,1.3-0.5,3.1,0.2,5c0.8,2,2.2,3.5,3.7,3.9
	c0.7,4.3,3,8.4,6.2,11.5c0,1.5-0.2,3.2-0.7,3.9c-0.1,0-0.6,0.3-1.9,0.7l0,0l0,0l0,0l0,0c-0.2,0-0.4,0.1-0.5,0.2
	c-4.6,1.6-13.7,4.4-13.7,4.4c-7.6,2.2-12,7.2-13.2,15.1L0,106.1c-0.1,1.9,0.5,3.8,1.8,5.2c1.3,1.4,3.1,2.1,5,2.1h74.7
	c1.9,0,3.7-0.8,5-2.1c1.3-1.4,1.9-3.2,1.8-5.2L86,87.6z"/>
<path fill="#FFFFFF" d="M55.9,69.6c0.2,0.1,0.4,0.1,0.6,0.2l-4,13.2l-4.7-4.6L55.9,69.6z"/>
<polygon fill="#FFFFFF" points="51.8,85.6 49.2,94.3 48.2,82.2 "/>
<path fill="#FFFFFF" d="M34.9,65.3c2.7,2,5.8,3.2,8.9,3.2h0.4c3.2,0,6.4-1.3,9.3-3.4c0,0.4,0.1,0.7,0.2,1.1c-4,3.6-8.6,3.6-8.7,3.6
	c-0.3,0-0.6,0.2-0.6,0.6c0,0.3,0.2,0.6,0.6,0.6c0.2,0,4.8-0.1,9-3.6c0.1,0.2,0.1,0.4,0.2,0.6l-8.5,9.3h-2.9l-8.5-9.6
	C34.6,67,34.8,66.1,34.9,65.3z"/>
<path fill="#FFFFFF" d="M32.7,69.5l7.9,8.9L35.9,83l-4.1-13.2C32.1,69.7,32.4,69.6,32.7,69.5z"/>
<polygon fill="#FFFFFF" points="40.5,82 39.5,94.5 36.7,85.6 "/>
<path fill="#C5E6EF" d="M6.8,111c-1.3,0-2.4-0.5-3.2-1.4s-1.2-2.1-1.2-3.3l2.4-18.4c1.1-6.9,4.8-11.1,11.5-13
	c0.1,0,5.5-1.7,10.1-3.2l-3.9,4.8l5.8,7.3L23.8,89l16.5,22H6.8z"/>
<path fill="#C5E6EF" d="M26.9,89.1l4.6-5.3l-5.8-7.4l4.1-5.1l9.3,29.9l0,0l2.1,6.8L26.9,89.1z"/>
<polygon fill="#1DBFF0" points="44.4,110 41.5,100.8 43.1,79.7 45.6,79.7 47.2,100.7 "/>
<polygon fill="#C5E6EF" points="58.7,71.2 62.9,76.5 57.1,83.9 61.6,89.1 47.5,108.1 "/>
<path fill="#C5E6EF" d="M84.8,109.6c-0.8,0.9-2,1.4-3.2,1.4H48.3l16.4-22l-4.5-5.2l5.8-7.3l-3.8-4.7c3.7,1.2,8,2.5,9.9,3.1
	c6.7,1.9,10.4,6.2,11.5,13l2.4,18.4C86,107.5,85.6,108.7,84.8,109.6z"/>
<path fill="#08618D" d="M121.5,75.9L89.1,45.6c-0.5,0.6-1.1,1.1-1.7,1.6l32.5,30.3c0.2,0.4-0.9,3-2.1,4.1s-3.7,2-4.2,1.9L84.7,49.4
	c-0.6,0.4-1.3,0.9-2,1.2l29.2,34.5c0.4,0.5,1,0.7,1.8,0.7c0.2,0,0.5,0,0.7-0.1c1.9-0.3,4.1-1.6,5-2.4c0.6-0.6,1.6-2,2.2-3.4
	C122.4,78.2,122.3,76.8,121.5,75.9z"/>
<path fill="#08618D" d="M96.8,23.2C94.5,8.2,80.4-2,65.4,0.3S40.2,16.7,42.6,31.7C44.9,46.6,59,56.9,73.9,54.6
	C88.9,52.2,99.1,38.1,96.8,23.2z"/>
<path fill="#1DBFF0" d="M73.7,52.9c-14,2.2-27.2-7.4-29.4-21.4C42.1,17.4,51.7,4.2,65.7,2s27.2,7.4,29.4,21.4
	C97.3,37.5,87.7,50.7,73.7,52.9z"/>
<path fill="#08618D" d="M91.3,24.1c-1.9-12-13.1-20.1-25-18.3c-11.9,1.9-20.1,13.1-18.2,25C50,42.7,61.2,50.9,73.1,49
	C85,47.2,93.2,36,91.3,24.1z"/>
<path fill="#FFFFFF" d="M72.8,47.4c-11,1.7-21.3-5.8-23-16.8s5.8-21.3,16.8-23s21.3,5.8,23,16.8C91.3,35.3,83.8,45.6,72.8,47.4z"/>
</svg>
