<svg xmlns="http://www.w3.org/2000/svg" viewBox="0 0 266.5 242.4">
  <path fill="#1DBFF0" d="M241.7 158.6l-5.1 9.8-10 3.2-51.1-62.2 7.7-5.9"/>
  <path fill="#08618D" d="M178.3 177c-2.2-14.2-10.2-23.3-23.9-27.2-8-2.5-20-6.3-25.9-8.3-1.8-.6-3-1.1-3.4-1.3-.7-.5-1.4-3.9-1.3-7.7 3.2-3.3 5.9-7.2 7.8-11.4-1.4-.5-2.8-.9-4.1-1.5-4.7 10.3-14.9 18.5-24.8 18.5h-.7c-5.8 0-11.7-2.8-16.6-7.3l-.2-.2c-5.7-5.3-9.9-12.8-10.6-20.5l-.3-2.5-2.4.5c-.9 0-2.8-1.5-3.9-4.5-1.4-3.6-.6-6.1.1-6.4.5 0 1.5.6 2.5 1.9l3.9 5.2V92.8c-1.2-5.4-2.1-15.3.3-19 0-.1.1-.1.1-.2 2.8 5.8 9.3 6.8 19.9 7.2-.3-1.4-.6-2.7-.8-4.1v-.3C83.2 76.1 79.4 75 78.1 70l-.5-2-2 .4c-1.9.4-3.4 1.5-4.5 3.2-3.9 5.9-1.7 18.6-1.1 21.7-1.1-.4-2.2-.4-3.2-.1-5.8-15.1-3.1-32.1 3.7-36l.6-.3.3-.6C75 48.6 82 42.9 90.9 40.4c3.5-1 7.1-1.4 10.7-1.4.9-1.5 1.9-2.9 3-4.3-5-.3-10 .2-14.9 1.6-10 2.9-17.8 9.1-22 17.6-9.2 6.1-11.3 26.2-4.4 42.6-1 2.3-.9 5.6.4 9 1.4 3.7 4 6.4 6.6 7.1 1.2 7.8 5.5 15.3 11.2 20.8 0 2.7-.3 5.8-1.2 7-.2.1-1.2.5-3.4 1.3-.3 0-.7.1-1 .3-8.4 2.8-24.7 7.9-24.8 8-13.7 3.9-21.8 13-24 27.2l-4.3 33.5c-.3 3.5.9 6.8 3.2 9.4 2.3 2.5 5.5 3.9 9 3.9h135.2c3.5 0 6.7-1.4 9.1-3.9 2.3-2.5 3.5-5.8 3.2-9.5l-4.2-33.6z"/>
  <path fill="#FFF" d="M124 144.5c.3.1.7.3 1.1.4l-7.2 23.8-8.4-8.3 14.5-15.9zm-7.6 29l-4.7 15.6-1.7-21.9m-24.1-30.4c5 3.6 10.6 5.8 16.1 5.8h.8c5.8 0 11.6-2.4 16.7-6.2.1.7.2 1.4.3 2-7.2 6.4-15.6 6.6-15.7 6.6-.6 0-1 .4-1 1s.4 1 1 1c.4 0 8.7-.2 16.3-6.5.1.4.2.7.4 1.1l-15.3 16.9h-5.2l-15.4-17.3c.5-1.4.8-3 1-4.4zm-4 7.5l14.4 16.1-8.5 8.3-7.4-23.8 1.5-.6zM96 166.9l-1.7 22.6-5.1-16"/>
  <path fill="#C5E6EF" d="M35.1 219.4c-2.3 0-4.3-.9-5.8-2.5s-2.2-3.8-2.1-5.9l4.3-33.3c1.9-12.5 8.7-20.2 20.9-23.6.1 0 9.9-3.1 18.2-5.8l-7 8.7L74 170.3l-8.2 9.5 29.9 39.7H35.1z"/>
  <path fill="#C5E6EF" d="M71.5 179.8l8.2-9.5-10.5-13.4 7.4-9.2 16.9 54v.1l3.9 12.4-25.9-34.4z"/>
  <path fill="#1DBFF0" d="M103 217.7l-5.2-16.8 2.9-38.1h4.6l2.9 37.9"/>
  <path fill="#C5E6EF" d="M128.9 147.5l7.6 9.4-10.5 13.4 8.3 9.5-25.6 34.3"/>
  <path fill="#C5E6EF" d="M176.2 216.9c-1.5 1.6-3.6 2.5-5.8 2.5h-60.1l29.7-39.8-8.2-9.5 10.4-13.3-6.8-8.5c6.8 2.2 14.4 4.6 17.9 5.7 12.1 3.4 18.9 11.2 20.8 23.6l4.3 33.2c0 2.3-.7 4.5-2.2 6.1z"/>
  <path fill="#08618D" d="M242.6 155.9l-58.7-54.8c-1 1-2 2-3 2.9l58.7 54.7c.3.8-1.6 5.5-3.7 7.5s-6.7 3.6-7.6 3.5L175.9 108c-1.2.8-2.4 1.5-3.6 2.2l52.9 62.4c.8.8 1.9 1.2 3.2 1.2.4 0 .9 0 1.3-.1 3.4-.5 7.4-2.9 9-4.4 1.2-1.1 2.9-3.5 4-6.1 1.4-3.2 1.4-5.7-.1-7.3z"/>
  <path fill="#08618D" d="M197.9 60.6c-4.2-27-29.7-45.6-56.7-41.3S95.6 48.9 99.8 75.9c4.2 27 29.7 45.6 56.7 41.3 27.1-4.2 45.6-29.6 41.4-56.6z"/>
  <path fill="#1DBFF0" d="M156.1 114.2c-25.3 4-49.2-13.4-53.2-38.8-4-25.3 13.4-49.2 38.8-53.2 25.3-4 49.2 13.4 53.2 38.8 3.9 25.4-13.5 49.2-38.8 53.2z"/>
  <path fill="#08618D" d="M187.9 62.1c-3.4-21.5-23.7-36.3-45.2-32.9-21.5 3.4-36.3 23.7-32.9 45.2 3.4 21.5 23.7 36.3 45.2 32.9 21.5-3.4 36.3-23.6 32.9-45.2z"/>
  <path fill="#FFF" d="M154.5 104.3c-19.9 3.1-38.5-10.5-41.7-30.4-3.1-19.9 10.5-38.5 30.4-41.7 19.9-3.1 38.5 10.5 41.7 30.4 3.1 19.9-10.6 38.5-30.4 41.7z"/>
</svg>
