<?xml version="1.0" encoding="utf-8"?>
<!-- Generator: Adobe Illustrator 20.1.0, SVG Export Plug-In . SVG Version: 6.00 Build 0)  -->
<svg version="1.1" id="Слой_1" xmlns="http://www.w3.org/2000/svg" xmlns:xlink="http://www.w3.org/1999/xlink" x="0px" y="0px"
	 viewBox="0 0 65.4 55.2" enable-background="new 0 0 65.4 55.2" xml:space="preserve">
<g>
	<g>
		<path fill="#FFFFFF" d="M26.2,5.6c-0.7,0-16.3,16.6-16.3,17.2l11.6,12.1c0,0.6,0.7-0.8,1.4-0.8h27.6c0.6,0,1.1-0.5,1.1-1.1
			l0.5-15.4c0-0.6-7-2.6-7.6-2.6l0.5-2.9L32,0.3L26.2,5.6z"/>
		<path fill="#08618D" d="M50.5,14.6H22.9c-2,0-3.6,1.6-3.6,3.6V33c0,2,1.6,3.6,3.6,3.6h27.6c2,0,3.6-1.6,3.6-3.6V18.2
			C54.1,16.2,52.5,14.6,50.5,14.6z M51.6,33c0,0.6-0.5,1.1-1.1,1.1H22.9c-0.6,0-1.1-0.5-1.1-1.1V18.2c0-0.6,0.5-1.1,1.1-1.1h27.6
			c0.6,0,1.1,0.5,1.1,1.1L51.6,33L51.6,33z"/>
		<g>
			<g>
				<polygon fill="#08618D" points="29.8,14.7 38.7,5.9 35.5,2.7 23.7,14.7 				"/>
				<polygon fill="#08618D" points="19.5,19 12.6,25.8 15.7,28.8 19.5,25.1 				"/>
			</g>
		</g>
		<g>
			<g>
				<polygon fill="#1DBFF0" points="35.8,14.7 37.5,12.9 36.7,12 34.1,14.7 				"/>
			</g>
		</g>
		<path fill="#08618D" d="M19.5,33v-1.1l-8.2-8.1c-0.7-0.7-0.7-1.8,0-2.4L30.7,1.8c0.3-0.3,0.8-0.5,1.2-0.5c0.5,0,0.8,0.2,1.2,0.5
			l10.4,10.4c0.3,0.3,0.5,0.8,0.5,1.2c0,0.5-0.2,0.9-0.5,1.2v0.1h1.4c0.2-0.6,0.3-0.8,0.3-1.3c0-0.8-0.3-1.5-0.8-2.1L34.2,0.8
			C33.6,0.3,32.9,0,32.1,0c-0.8,0-1.5,0.3-2.1,0.8L10.4,20.3c-1.1,1.1-1.1,3,0,4.2l9.1,9.1C19.5,33.3,19.5,33.2,19.5,33z"/>
		<path fill="#1DBFF0" d="M49,22.7c0,0.5-0.3,0.8-0.8,0.8h-4.5c-0.5,0-0.8-0.3-0.8-0.8v-2.6c0-0.5,0.4-0.8,0.8-0.8h4.5
			c0.5,0,0.8,0.4,0.8,0.8V22.7z"/>
		<path fill="#1DBFF0" d="M28.8,24.7c0,0.3-0.2,0.5-0.5,0.5h-3.3c-0.3,0-0.5-0.2-0.5-0.5v-2c0-0.3,0.2-0.5,0.5-0.5h3.3
			c0.3,0,0.5,0.2,0.5,0.5L28.8,24.7L28.8,24.7z"/>
		<rect x="24.4" y="27.3" fill="#1DBFF0" width="4.3" height="1.2"/>
		<rect x="29.9" y="27.3" fill="#1DBFF0" width="4.3" height="1.2"/>
		<rect x="35.5" y="27.3" fill="#1DBFF0" width="4.2" height="1.2"/>
		<rect x="41" y="27.3" fill="#1DBFF0" width="4.3" height="1.2"/>
	</g>
	<g>
		<path fill="#FFFFFF" d="M1.4,49.9V51c0,1,0.2,1.8,0.6,2.2S3,54,3.7,54c0.7,0,1.1-0.2,1.5-0.5c0.4-0.4,0.5-0.8,0.5-1.3h1.4v0.1
			c0,0.3-0.1,0.5-0.2,0.8s-0.2,0.5-0.4,0.8c-0.2,0.2-0.4,0.5-0.7,0.7c-0.2,0.2-0.6,0.4-1,0.5c-0.4,0.2-0.8,0.2-1.2,0.2
			c-1.1,0-2.1-0.4-2.7-1.1c-0.6-0.7-1-1.8-1-3v-1.1c0-1.3,0.3-2.4,1-3c0.7-0.8,1.5-1.1,2.7-1.1c0.5,0,1,0.1,1.4,0.2
			c0.5,0.2,0.8,0.4,1.1,0.7c0.3,0.3,0.5,0.6,0.6,1C6.9,48.1,7,48.5,7,48.9v0.1H5.6c0-0.2-0.1-0.5-0.2-0.7c-0.1-0.2-0.2-0.5-0.4-0.6
			s-0.4-0.3-0.7-0.5C4.1,47.1,3.9,47,3.5,47c-0.7,0-1.2,0.2-1.7,0.8C1.4,48.3,1.4,48.9,1.4,49.9z"/>
		<path fill="#FFFFFF" d="M15.8,55h-1.4v-4.1H10V55H8.7v-9.1H10v3.8h4.3v-3.8h1.4V55z"/>
		<path fill="#FFFFFF" d="M23.4,53.8V55h-5.6v-9.1h5.6V47h-4.2v2.7h4v1.1h-4v2.9H23.4z"/>
		<path fill="#FFFFFF" d="M26.3,49.9V51c0,1,0.2,1.8,0.6,2.2c0.4,0.5,1,0.8,1.7,0.8c0.7,0,1.1-0.2,1.5-0.5c0.4-0.4,0.5-0.8,0.5-1.3
			H32v0.1c0,0.3-0.1,0.5-0.2,0.8c-0.1,0.3-0.2,0.5-0.4,0.8c-0.2,0.2-0.4,0.5-0.7,0.7c-0.2,0.2-0.6,0.4-1,0.5
			c-0.4,0.2-0.8,0.2-1.2,0.2c-1.1,0-2.1-0.4-2.7-1.1c-0.6-0.7-1-1.8-1-3v-1.1c0-1.3,0.3-2.4,1-3c0.7-0.8,1.5-1.1,2.7-1.1
			c0.5,0,1,0.1,1.4,0.2s0.8,0.4,1.1,0.7c0.3,0.3,0.5,0.6,0.6,1s0.2,0.8,0.2,1.1v0.1h-1.4c0-0.2-0.1-0.5-0.2-0.7
			c-0.1-0.2-0.2-0.5-0.4-0.6s-0.4-0.3-0.7-0.5C29,47.1,28.8,47,28.4,47c-0.7,0-1.2,0.2-1.7,0.8C26.5,48.2,26.3,48.9,26.3,49.9z"/>
		<path fill="#FFFFFF" d="M40.4,45.9l-3.3,3.9l3.5,5.2h-1.8L36,50.7l-1.1,1.1V55h-1.4v-9.1h1.4v4.3H35l3.8-4.3H40.4z"/>
		<path fill="#FFFFFF" d="M41.3,51.1v-1.3c0-1.3,0.3-2.3,1-3c0.7-0.8,1.6-1.1,2.7-1.1c1.1,0,2.1,0.4,2.7,1.1c0.7,0.7,1,1.8,1,3V51
			c0,1.3-0.3,2.3-1,3S46.1,55,45,55c-1.1,0-2.1-0.4-2.7-1.1C41.6,53.4,41.3,52.4,41.3,51.1z M42.6,49.8v1.3c0,0.9,0.2,1.7,0.6,2.1
			c0.5,0.5,1,0.8,1.7,0.8c0.7,0,1.3-0.2,1.7-0.8c0.5-0.5,0.6-1.2,0.6-2.1v-1.3c0-0.9-0.2-1.7-0.7-2.1c-0.5-0.5-1-0.8-1.7-0.8
			c-0.7,0-1.2,0.2-1.7,0.8C42.9,48.2,42.6,48.9,42.6,49.8z"/>
		<path fill="#FFFFFF" d="M51.7,45.9v5.9c0,0.7,0.2,1.2,0.6,1.6c0.4,0.4,0.9,0.6,1.6,0.6c0.7,0,1.2-0.2,1.6-0.6s0.6-0.9,0.6-1.6
			v-5.9h1.4v6c0,1-0.3,1.8-0.9,2.4c-0.6,0.6-1.5,0.9-2.6,0.9s-1.9-0.3-2.6-0.9c-0.6-0.6-0.9-1.4-0.9-2.4v-6H51.7z"/>
		<path fill="#FFFFFF" d="M62.6,55h-1.4V47h-2.7v-1.1h6.8v1.2h-2.7V55z"/>
	</g>
</g>
</svg>
