<?xml version="1.0" encoding="utf-8"?>
<!-- Generator: Adobe Illustrator 20.1.0, SVG Export Plug-In . SVG Version: 6.00 Build 0)  -->
<svg version="1.1" id="Слой_1" xmlns="http://www.w3.org/2000/svg" xmlns:xlink="http://www.w3.org/1999/xlink" x="0px" y="0px"
	 viewBox="0 0 86.6 64.5" enable-background="new 0 0 86.6 64.5" xml:space="preserve">
<path fill="#EAEAEA" d="M34,16.1c-0.9,0-21.4,21.8-21.4,22.6l15.3,15.9c0,0.8,0.9-1.1,1.8-1.1H66c0.8,0,1.5-0.6,1.5-1.5l0.6-20.2
	c0-0.8-9.2-3.4-10-3.4l0.6-3.8l-17-15.5L34,16.1z"/>
<path fill="#C6C6C6" d="M66,27.9H29.7c-2.6,0-4.7,2.1-4.7,4.7V52c0,2.6,2.1,4.7,4.7,4.7H66c2.6,0,4.7-2.1,4.7-4.7V32.6
	C70.7,30,68.6,27.9,66,27.9z M67.4,52c0,0.8-0.6,1.5-1.5,1.5H29.7c-0.8,0-1.5-0.6-1.5-1.5V32.6c0-0.8,0.6-1.5,1.5-1.5H66
	c0.8,0,1.5,0.6,1.5,1.5L67.4,52L67.4,52z"/>
<g>
	<g>
		<polygon fill="#C6C6C6" points="38.7,28 50.4,16.4 46.3,12.3 30.7,28 		"/>
		<polygon fill="#C6C6C6" points="25.2,33.7 16.1,42.6 20.2,46.6 25.2,41.7 		"/>
	</g>
</g>
<g>
	<g>
		<polygon fill="#C6C6C6" points="46.7,28 48.9,25.7 47.8,24.5 44.4,28 		"/>
	</g>
</g>
<path fill="#C6C6C6" d="M25.2,52v-1.5L14.4,39.8c-0.9-0.9-0.9-2.3,0-3.2L40,11c0.4-0.4,1-0.6,1.6-0.6s1.1,0.2,1.6,0.6l13.7,13.7
	c0.4,0.4,0.6,1,0.6,1.6s-0.2,1.2-0.6,1.6V28h1.9c0.2-0.8,0.4-1.1,0.4-1.7c0-1.1-0.4-2-1.1-2.7L44.5,9.8c-0.7-0.7-1.7-1.1-2.7-1.1
	c-1.1,0-2,0.4-2.7,1.1L13.2,35.4c-1.5,1.5-1.5,4,0,5.5l12,11.9C25.2,52.5,25.2,52.3,25.2,52z"/>
<path fill="#C6C6C6" d="M64,38.5c0,0.6-0.4,1-1,1h-5.9c-0.6,0-1-0.4-1-1v-3.4c0-0.6,0.5-1,1-1H63c0.6,0,1,0.5,1,1V38.5z"/>
<path fill="#C6C6C6" d="M37.4,41.2c0,0.4-0.3,0.7-0.7,0.7h-4.4c-0.4,0-0.7-0.3-0.7-0.7v-2.6c0-0.4,0.3-0.7,0.7-0.7h4.3
	c0.4,0,0.7,0.3,0.7,0.7L37.4,41.2L37.4,41.2z"/>
<rect x="31.6" y="44.6" fill="#C6C6C6" width="5.7" height="1.6"/>
<rect x="38.9" y="44.6" fill="#C6C6C6" width="5.7" height="1.6"/>
<rect x="46.3" y="44.6" fill="#C6C6C6" width="5.5" height="1.6"/>
<rect x="53.5" y="44.6" fill="#C6C6C6" width="5.7" height="1.6"/>
<path fill="#C6C6C6" d="M6.2,62.3c-2.9-5.7-4.6-12.2-4.6-19c0-23,18.7-41.7,41.7-41.7S85,20.3,85,43.3c0,6.8-1.7,13.3-4.6,19h1.8
	c2.8-5.7,4.4-12.2,4.4-19C86.6,19.4,67.2,0,43.3,0S0,19.4,0,43.3c0,6.8,1.6,13.3,4.4,19H6.2z"/>
<path fill="#C6C6C6" d="M82.3,64.5H4.6c-0.9,0-1.5-0.7-1.5-1.5v0c0-0.9,0.7-1.5,1.5-1.5h77.8c0.9,0,1.5,0.7,1.5,1.5v0
	C83.9,63.8,83.2,64.5,82.3,64.5z"/>
</svg>
