<?xml version="1.0" encoding="utf-8"?>
<!-- Generator: Adobe Illustrator 20.1.0, SVG Export Plug-In . SVG Version: 6.00 Build 0)  -->
<svg version="1.1" id="Слой_1" xmlns="http://www.w3.org/2000/svg" xmlns:xlink="http://www.w3.org/1999/xlink" x="0px" y="0px"
	 viewBox="0 0 112.3 88.3" enable-background="new 0 0 112.3 88.3" xml:space="preserve">
<circle fill="#1DBFF0" cx="56.7" cy="43.3" r="43.3"/>
<circle fill="#C5E6EF" cx="56.7" cy="43.3" r="41.7"/>
<g>
	<path fill="#FFFFFF" d="M47.4,16.1C46.5,16.1,26,37.9,26,38.7l15.3,15.9c0,0.8,0.9-1.1,1.8-1.1h36.3c0.8,0,1.5-0.6,1.5-1.5
		l0.6-20.2c0-0.8-9.2-3.4-10-3.4l0.6-3.8l-17-15.5L47.4,16.1z"/>
	<path fill="#08618D" d="M79.4,27.9H43.1c-2.6,0-4.7,2.1-4.7,4.7V52c0,2.6,2.1,4.7,4.7,4.7h36.3c2.6,0,4.7-2.1,4.7-4.7V32.6
		C84.1,30,82,27.9,79.4,27.9z M80.8,52c0,0.8-0.6,1.5-1.5,1.5H43.1c-0.8,0-1.5-0.6-1.5-1.5V32.6c0-0.8,0.6-1.5,1.5-1.5h36.3
		c0.8,0,1.5,0.6,1.5,1.5L80.8,52L80.8,52z"/>
	<g>
		<g>
			<polygon fill="#08618D" points="52.1,28 63.8,16.4 59.7,12.3 44.1,28 			"/>
			<polygon fill="#08618D" points="38.6,33.7 29.5,42.6 33.6,46.6 38.6,41.7 			"/>
		</g>
	</g>
	<g>
		<g>
			<polygon fill="#1DBFF0" points="60.1,28 62.3,25.7 61.2,24.5 57.8,28 			"/>
		</g>
	</g>
	<path fill="#08618D" d="M38.6,52v-1.5L27.8,39.8c-0.9-0.9-0.9-2.3,0-3.2L53.4,11c0.4-0.4,1-0.6,1.6-0.6s1.1,0.2,1.6,0.6l13.7,13.7
		c0.4,0.4,0.6,1,0.6,1.6s-0.2,1.2-0.6,1.6V28h1.9c0.2-0.8,0.4-1.1,0.4-1.7c0-1.1-0.4-2-1.1-2.7L57.9,9.8c-0.7-0.7-1.7-1.1-2.7-1.1
		c-1.1,0-2,0.4-2.7,1.1L26.6,35.4c-1.5,1.5-1.5,4,0,5.5l12,11.9C38.6,52.5,38.6,52.3,38.6,52z"/>
	<path fill="#1DBFF0" d="M77.4,38.5c0,0.6-0.4,1-1,1h-5.9c-0.6,0-1-0.4-1-1v-3.4c0-0.6,0.5-1,1-1h5.9c0.6,0,1,0.5,1,1V38.5z"/>
	<path fill="#1DBFF0" d="M50.8,41.2c0,0.4-0.3,0.7-0.7,0.7h-4.4c-0.4,0-0.7-0.3-0.7-0.7v-2.6c0-0.4,0.3-0.7,0.7-0.7H50
		c0.4,0,0.7,0.3,0.7,0.7L50.8,41.2L50.8,41.2z"/>
	<rect x="45" y="44.6" fill="#1DBFF0" width="5.7" height="1.6"/>
	<rect x="52.3" y="44.6" fill="#1DBFF0" width="5.7" height="1.6"/>
	<rect x="59.7" y="44.6" fill="#1DBFF0" width="5.5" height="1.6"/>
	<rect x="66.9" y="44.6" fill="#1DBFF0" width="5.7" height="1.6"/>
</g>
<path fill="#1DBFF0" d="M13.5,87.3h85.3c6.9,0,12.5-5.6,12.5-12.5l0,0c0-6.9-5.6-12.5-12.5-12.5H13.5C6.6,62.3,1,68,1,74.8l0,0
	C1,81.7,6.6,87.3,13.5,87.3z"/>
<g>
	<path fill="#FFFFFF" d="M14.8,74.2v1.5c0,1.3,0.3,2.3,0.8,2.9s1.3,1,2.2,1c0.9,0,1.5-0.2,2-0.7s0.7-1,0.7-1.7h1.8v0.1
		c0,0.4-0.1,0.7-0.2,1.1s-0.3,0.7-0.5,1.1c-0.2,0.3-0.5,0.6-0.9,0.9c-0.3,0.3-0.8,0.5-1.3,0.6c-0.5,0.2-1,0.2-1.6,0.2
		c-1.5,0-2.7-0.5-3.5-1.4s-1.3-2.3-1.3-4v-1.5c0-1.7,0.4-3.1,1.3-4c0.9-1,2-1.4,3.5-1.4c0.7,0,1.3,0.1,1.9,0.3s1.1,0.5,1.4,0.9
		c0.4,0.4,0.6,0.8,0.8,1.3c0.2,0.5,0.3,1,0.3,1.5V73h-1.8c0-0.3-0.1-0.6-0.2-0.9s-0.3-0.6-0.5-0.8c-0.2-0.2-0.5-0.4-0.9-0.6
		c-0.4-0.1-0.7-0.2-1.2-0.2c-0.9,0-1.6,0.3-2.2,1S14.8,72.9,14.8,74.2z"/>
	<path fill="#FFFFFF" d="M33.7,80.9h-1.8v-5.4h-5.7v5.4h-1.8V69h1.8v5h5.7v-5h1.8V80.9z"/>
	<path fill="#FFFFFF" d="M43.8,79.4v1.5h-7.3V69h7.3v1.5h-5.5v3.6h5.2v1.5h-5.2v3.8H43.8z"/>
	<path fill="#FFFFFF" d="M47.5,74.2v1.5c0,1.3,0.3,2.3,0.8,2.9s1.3,1,2.2,1s1.5-0.2,2-0.7s0.7-1,0.7-1.7H55v0.1
		c0,0.4-0.1,0.7-0.2,1.1c-0.1,0.4-0.3,0.7-0.5,1.1c-0.2,0.3-0.5,0.6-0.9,0.9c-0.3,0.3-0.8,0.5-1.3,0.6c-0.5,0.2-1,0.2-1.6,0.2
		c-1.5,0-2.7-0.5-3.5-1.4s-1.3-2.3-1.3-4v-1.5c0-1.7,0.4-3.1,1.3-4c0.9-1,2-1.4,3.5-1.4c0.7,0,1.3,0.1,1.9,0.3s1.1,0.5,1.4,0.9
		c0.4,0.4,0.6,0.8,0.8,1.3s0.3,1,0.3,1.5V73h-1.8c0-0.3-0.1-0.6-0.2-0.9c-0.1-0.3-0.3-0.6-0.5-0.8c-0.2-0.2-0.5-0.4-0.9-0.6
		c-0.4-0.1-0.7-0.2-1.2-0.2c-0.9,0-1.6,0.3-2.2,1C47.8,72,47.5,72.9,47.5,74.2z"/>
	<path fill="#FFFFFF" d="M66.1,69l-4.4,5.1l4.6,6.8H64l-3.7-5.6l-1.4,1.5v4.1h-1.8V69h1.8v5.6H59l5-5.6H66.1z"/>
	<path fill="#FFFFFF" d="M67.2,75.8v-1.7c0-1.7,0.4-3,1.3-4s2.1-1.5,3.6-1.5s2.7,0.5,3.6,1.4s1.3,2.3,1.3,4v1.7c0,1.7-0.4,3-1.3,3.9
		S73.6,81,72.1,81s-2.7-0.5-3.6-1.4C67.6,78.8,67.2,77.5,67.2,75.8z M69,74.1v1.7c0,1.2,0.3,2.2,0.8,2.8c0.6,0.6,1.3,1,2.2,1
		c0.9,0,1.7-0.3,2.2-1C74.8,78,75,77,75,75.8v-1.7c0-1.2-0.3-2.2-0.9-2.8c-0.6-0.7-1.3-1-2.2-1c-0.9,0-1.6,0.3-2.2,1
		C69.3,72,69,72.9,69,74.1z"/>
	<path fill="#FFFFFF" d="M80.9,69v7.7c0,0.9,0.3,1.6,0.8,2.1s1.2,0.8,2.1,0.8s1.6-0.3,2.1-0.8s0.8-1.2,0.8-2.1V69h1.8v7.9
		c0,1.3-0.4,2.3-1.2,3.1c-0.8,0.8-2,1.2-3.4,1.2s-2.5-0.4-3.4-1.2c-0.8-0.8-1.2-1.8-1.2-3.1V69H80.9z"/>
	<path fill="#FFFFFF" d="M95.3,80.9h-1.8V70.5H90V69h8.9v1.6h-3.6V80.9z"/>
</g>
</svg>
