<svg xmlns="http://www.w3.org/2000/svg" viewBox="0 0 266.5 242.4">
  <path fill="#C5E6EF" d="M193.8 232.8H52.3c-5.8 0-10.5-4.7-10.5-10.5v-68.1L123 183l81.2-28.8v68.1c0 5.9-4.7 10.5-10.4 10.5z"/>
  <path fill="#08618D" d="M193.8 234.6H52.3c-6.7 0-12.2-5.5-12.2-12.2v-70.6l83 29.4 83-29.4v70.6c-.1 6.7-5.6 12.2-12.3 12.2zM43.5 156.7v65.7c0 4.8 3.9 8.8 8.8 8.8h141.5c4.8 0 8.8-3.9 8.8-8.8v-65.7L123 184.9l-.6-.2-78.9-28z"/>
  <path fill="#FFF" d="M191.1 217.1v5.3"/>
  <path fill="#08618D" d="M189.4 217.1h3.5v5.2h-3.5z"/>
  <path fill="#FFF" d="M180.7 217.1v5.3"/>
  <path fill="#08618D" d="M178.9 217.1h3.5v5.2h-3.5z"/>
  <path fill="#FFF" d="M170.2 217.1v5.3"/>
  <path fill="#08618D" d="M168.4 217.1h3.5v5.2h-3.5z"/>
  <path fill="#FFF" d="M187.2 71.2c-6.5 10.5-13.6 21.9-13.6 21.9-19.4-3.8-34.1.8-40.9 3.7 1.9 2.8 1.5 6.5-1.1 8.8-2.9 2.6-7.5 2.4-10.2-.4l-1.9-2c-2.7-2.8-2.5-7.2.4-9.8 2.6-2.3 6.5-2.4 9.3-.4 2.4-4.3 5.9-12.1 7.2-22.6H62.7c-5.8 0-10.5 4.7-10.5 10.5v76l70.5 27.2 71-27.2v-76c.1-4.4-2.7-8.2-6.5-9.7z"/>
  <path fill="#08618D" d="M122.7 185.9L50.5 158V80.9c0-6.7 5.5-12.2 12.2-12.2h75.4l-.2 1.9c-1.2 10.6-4.7 18.5-7.4 23.3l-1 1.7-1.6-1.2c-2.1-1.6-5.1-1.4-7.1.3-1.1.9-1.7 2.2-1.7 3.6-.1 1.4.5 2.7 1.4 3.7l1.9 2c2.1 2.2 5.6 2.3 7.8.3 1.9-1.7 2.3-4.5.9-6.6L130 96l1.9-.8c7.1-3 21.7-7.5 40.8-4 1.9-3 7.7-12.3 13-20.9l.8-1.2 1.4.5c4.7 1.9 7.7 6.3 7.7 11.3V158l-72.9 27.9zM54 155.7l68.7 26.5 69.3-26.5V80.9c0-3.1-1.6-5.9-4.2-7.5-6.2 10-12.8 20.5-12.8 20.6l-.6 1-1.2-.2c-17.3-3.4-30.9.1-38.2 2.9 1.2 3.2.3 6.8-2.4 9.2-3.6 3.2-9.2 3-12.6-.5l-1.9-2c-1.6-1.7-2.5-3.9-2.4-6.3.1-2.3 1.1-4.5 2.9-6 2.7-2.4 6.5-2.9 9.7-1.5 2.2-4.3 4.7-10.5 5.9-18.5H62.7c-4.8 0-8.8 3.9-8.8 8.8v74.8z"/>
  <path fill="#1DBFF0" d="M224 38.1l-26.8-27.9-24.9 22.1 26.8 27.9"/>
  <path fill="#08618D" d="M199 62.6l-29.2-30.4 27.5-24.4 29.2 30.4L199 62.6zm-24.2-30.2l24.4 25.4L221.5 38l-24.4-25.4-22.3 19.8z"/>
  <path fill="#FFF" d="M75.8 130.7h94.4"/>
  <path fill="#08618D" d="M75.8 128.9h94.3v3.5H75.8z"/>
  <path fill="#FFF" d="M75.8 141.1h94.4"/>
  <path fill="#08618D" d="M75.8 139.4h94.3v3.5H75.8z"/>
  <path fill="#FFF" d="M75.8 151.6h94.4"/>
  <path fill="#08618D" d="M75.8 149.9h94.3v3.5H75.8z"/>
  <path fill="#FFF" stroke="#08618D" stroke-width="2" stroke-miterlimit="10" d="M96.8 162.1h52.4"/>
  <path fill="#FFF" d="M190.9 52.4l-4.7-4.9-1.8-1.9-6-6.3-3.4-3.5c-10.3 4.5-38.9 18.3-38.9 18.3 2.4 18.9-3.5 32.6-7.1 39-2.7-2-6.6-1.9-9.3.4-2.9 2.6-3.1 7-.4 9.8l1.9 2c2.7 2.8 7.3 3 10.2.4 2.6-2.3 3-6.1 1.1-8.8 6.8-2.9 21.6-7.5 40.9-3.7 0 0 16.6-26.3 22-35.8l-4.5-5zM159.4 76c-4.7-.3-8.3-4.3-7.9-8.8.3-4.5 4.4-7.9 9.1-7.6 4.7.3 8.3 4.3 7.9 8.8-.3 4.6-4.4 8-9.1 7.6z"/>
  <path fill="#08618D" d="M126.6 109.2c-2.4 0-4.8-.9-6.6-2.8l-1.9-2c-1.6-1.7-2.5-3.9-2.4-6.3.1-2.3 1.1-4.5 2.9-6 2.7-2.4 6.5-2.9 9.7-1.5 3.5-6.8 8.2-19.5 6-36.4l-.2-1.2 1.1-.5c.3-.1 28.7-13.9 38.9-18.3l1.1-.5L197.7 57l-.6 1.1c-5.4 9.4-21.9 35.6-22.1 35.9l-.6 1-1.2-.2c-17.3-3.4-30.9.1-38.2 2.9 1.2 3.2.3 6.8-2.4 9.2-1.7 1.5-3.9 2.3-6 2.3zm-2-15.9c-1.3 0-2.7.5-3.7 1.4-1.1.9-1.7 2.2-1.7 3.6-.1 1.4.5 2.7 1.4 3.7l1.9 2c2.1 2.2 5.6 2.3 7.8.3 1.9-1.7 2.3-4.5.9-6.6L130 96l1.9-.8c7.1-3 21.7-7.5 40.8-4 2.9-4.7 15.5-24.7 20.7-33.7l-18.9-19.6c-9.7 4.3-31.4 14.8-36.6 17.2 2 18.6-3.7 32.2-7.4 38.8l-1 1.7-1.6-1.2c-.9-.7-2.1-1.1-3.3-1.1zm35.5-15.5h-.8c-5.6-.4-9.9-5.2-9.5-10.6.4-5.5 5.3-9.6 10.9-9.2 5.6.4 9.9 5.2 9.5 10.6-.3 5.2-4.8 9.2-10.1 9.2zm-.1-16.4c-3.5 0-6.5 2.6-6.7 6-.3 3.6 2.6 6.7 6.3 7 3.7.3 7-2.4 7.3-6 .3-3.6-2.6-6.7-6.3-7h-.6z"/>
</svg>
