<?xml version="1.0" encoding="utf-8"?>
<!-- Generator: Adobe Illustrator 20.1.0, SVG Export Plug-In . SVG Version: 6.00 Build 0)  -->
<svg version="1.1" id="Слой_1" xmlns="http://www.w3.org/2000/svg" xmlns:xlink="http://www.w3.org/1999/xlink" x="0px" y="0px"
	 viewBox="0 0 121.3 121.2" enable-background="new 0 0 121.3 121.2" xml:space="preserve">
<path fill="#FFFFFF" d="M91,76.5c-0.8-5.4-3.9-8.9-9.1-10.4c-4-1.2-10.7-3.4-11.3-3.7c-0.3-0.2-0.6-1.7-0.5-3.1
	c2.1-2.1,3.6-4.9,4-7.8c1-0.2,2-1.3,2.5-2.7c0.4-1.1,0.5-2.2,0.3-3c0.7-1.6,5.8-13.8-6.1-21.4c-4.1-2.6-9.2-3.4-13.9-2.1
	c-3.7,1.2-6.7,3.6-8.3,6.9c-3.5,2.3-4.3,10.1-1.7,16.3c-0.4,0.9-0.3,2.1,0.2,3.4c0.6,1.4,1.5,2.4,2.5,2.7c0.4,3,2,5.8,4.2,7.9
	c0,1.4-0.2,2.7-0.5,2.9c-0.6,0.3-7.3,2.4-11.3,3.7c-5.2,1.5-8.3,5-9.2,10.4l-1.6,12.9c-0.1,1.3,0.3,2.6,1.2,3.5
	c0.9,1,2.1,1.5,3.4,1.5h29.6h1h21.5c1.3,0,2.6-0.5,3.4-1.5c0.9-1,1.3-2.2,1.2-3.6L91,76.5z"/>
<polygon fill="#1DBFF0" points="58.9,86.9 51,75.9 53.6,71.9 50.2,68.3 52.2,65.7 "/>
<path fill="#C5E6EF" d="M55.3,60.8c1.9,1.5,4.2,2.4,6.4,2.4H62c2.3,0,4.5-0.9,6.5-2.5c0.1,0.7,0.2,1.5,0.5,2.1l-6,6.6h-2.1l-6-6.6
	C55.1,62.2,55.3,61.5,55.3,60.8z"/>
<polygon fill="#C5E6EF" points="65.3,81 64.6,72.6 67.2,75.1 "/>
<polygon fill="#C5E6EF" points="56.8,75 59.4,72.5 58.7,81 "/>
<polygon fill="#08618D" points="59.9,84.9 61,71 63,71 64.1,84.8 62,91.4 "/>
<polygon fill="#1DBFF0" points="71.9,65.6 73.8,68.3 70.4,71.9 73,75.9 65,87 "/>
<path fill="#C5E6EF" d="M70.7,64.2l-3,9.3l-3.3-3.2v-0.1l5.7-6.2C70.2,64,70.5,64.1,70.7,64.2z"/>
<path fill="#08618D" d="M49.6,30.4l0.2-0.1l0.1-0.2c1.4-3,4.1-5.2,7.6-6.1c4.2-1.2,8.9-0.5,12.6,1.9c9.7,6.2,7,15.7,5.8,18.7
	c0,0-0.1,0-0.1-0.1c-0.5-0.2-1-0.2-1.6,0.1v-0.9c0-5.2-6.9-5.4-11.5-5.5h-1.4C55,38,53,37.9,52.4,35.5l-0.2-0.7h-0.6
	c-0.7,0.1-1.3,0.5-1.7,1.2c-1.5,2.4-0.6,7.5-0.4,8.4c-0.5-0.2-0.9-0.2-1.4-0.1C45.9,38.5,46.9,31.9,49.6,30.4z"/>
<path fill="#C5E6EF" d="M51,50l-0.9,0.2c-0.4,0-1.1-0.6-1.6-1.8c-0.5-1.3-0.3-2.4,0.1-2.6c0.2,0,0.6,0.2,1,0.8l1.4,1.8v-4v-0.2
	c-0.3-1.5-0.9-5.7,0.1-7.4c0-0.1,0.1-0.1,0.1-0.2c1.2,2.7,4.5,2.8,10,2.9h1.4c6.3,0.2,10,0.9,10,3.9v4.8l1.4-1.8
	c0.4-0.5,0.8-0.8,1.1-0.7c0.3,0.1,0.6,1.2,0,2.6c-0.5,1.2-1.2,1.8-1.6,1.8l-0.9-0.2v0.9c-0.5,5.6-5.7,10.8-10.6,10.8h-0.3
	c-5,0-10.1-5.3-10.6-10.8L51,50z"/>
<path fill="#C5E6EF" d="M53.8,63.9l5.7,6.3l-3.3,3.2l-3-9.3C53.5,64,53.6,64,53.8,63.9z"/>
<path fill="#C5E6EF" d="M33.6,91.9c-0.6-0.6-0.9-1.5-0.8-2.3l1.6-12.8c0.7-4.8,3.4-7.8,8.1-9.2c1.6-0.5,5.4-1.7,8.3-2.6l-2.6,3.4
	l3.5,3.7l-2.5,3.8l11.3,15.7l0.4,1.3h-25C35,92.9,34.1,92.6,33.6,91.9z"/>
<path fill="#C5E6EF" d="M90.3,91.9c-0.6,0.6-1.4,1-2.3,1H66.5h-1h-2.4l0.4-1.2l0,0l11.3-15.8l-2.5-3.8l3.5-3.7l-2.5-3.3
	c2.8,0.9,6.5,2.1,8.1,2.6c4.7,1.3,7.3,4.3,8.1,9.1l1.6,12.8C91.2,90.4,90.9,91.3,90.3,91.9z"/>
<path fill="#08618D" d="M79.8,84.3l-2,2.3l-1.3-1.2l-3,3.3h-0.8v1.5h11.8v-1.5h-0.6L79.8,84.3z M79.9,86.6l1.9,2.1h-3.6L79.9,86.6z
	 M76.6,87.6l1.3,1.1h-2.4L76.6,87.6z"/>
</svg>
