<svg xmlns="http://www.w3.org/2000/svg" viewBox="0 0 266.5 242.4">
  <path fill="#08618D" d="M17 72.6c-6.6 0-12 5.4-12 12V200c0 6.6 5.4 12 12 12h72.1v24h-9.6c-1.3 0-2.4 1.1-2.4 2.4 0 1.3 1.1 2.4 2.4 2.4h57.7c1.3 0 2.4-1.1 2.4-2.4 0-1.3-1.1-2.4-2.4-2.4h-9.6v-24h72.1c6.6 0 12-5.4 12-12V84.6c0-6.6-5.4-12-12-12H17z"/>
  <path fill="#FFF" d="M17 77.4h182.7c4 0 7.2 3.2 7.2 7.2v93.8H9.8V84.6c0-4.1 3.2-7.2 7.2-7.2z"/>
  <path fill="#C5E6EF" d="M9.8 183.2H207V200c0 4-3.2 7.2-7.2 7.2H17c-4 0-7.2-3.2-7.2-7.2v-16.8z"/>
  <circle cx="108.4" cy="195.2" r="4.8" fill="#08618D"/>
  <path fill="#C5E6EF" d="M94 212h28.9v24H94z"/>
  <path fill="none" d="M99.2-1.5h172.4v172.4H99.2z"/>
  <path fill="#08618D" d="M257.4 80.1v-4c0-9.7-1.9-19.2-5.7-28.1-3.6-8.6-8.8-16.3-15.4-22.9-6.6-6.6-14.3-11.8-22.9-15.4-8.9-3.8-18.3-5.7-28.1-5.7-9.7 0-19.2 1.9-28.1 5.7-8.6 3.6-16.3 8.8-22.9 15.4S122.6 39.4 119 48c-3.8 8.9-5.7 18.3-5.7 28.1v.4h4.5v-.4c0-3.7.3-7.4.9-10.9h.4c1.7 0 3.5-.4 5-1.2 2.5-1.3 4.3-3.4 5.3-6 .1-.2.1-.4.1-.6 8.1-24 30.4-40.1 55.7-40.1 25.3 0 47.8 16.2 55.8 40.2v.1c1 3.2 3.5 5.7 6.7 6.9 1.2.5 2.5.7 3.8.7h.3c.6 3.5.9 7.2.9 10.9v21.2c-2.3-3-5.4-5.5-9.1-7v-6.7c0-1.3-1-2.3-2.3-2.3h-12.2c-1.2 0-2.3 1-2.3 2.3v54.2c0 1.3 1 2.3 2.3 2.3h12.2c1.2 0 2.3-1 2.3-2.3v-6.7c3.2-1.3 6-3.4 8.1-5.9-4.3 25.8-26.8 45.6-53.8 45.6h-4.8c.9-1.5 1.5-3.2 1.5-5.1 0-5.3-4.3-9.6-9.6-9.6s-9.6 4.3-9.6 9.6 4.3 9.6 9.6 9.6h12.9c15.8 0 30.6-6.1 41.8-17.3 11.2-11.2 17.3-26 17.3-41.8 0-.4-.1-.8-.3-1.1.3-1.5.5-3 .5-4.5V80.1z"/>
  <path fill="#FFF" d="M249.4 60.2c-2-.8-3.6-2.5-4.1-4.6 0-.2-.1-.4-.2-.6-2.1-5.9-5-11.4-8.7-16.4-3.8-5.2-8.5-9.9-13.7-13.7-10.9-8-23.8-12.2-37.4-12.2-13.7 0-26.7 4.3-37.6 12.4-5.3 3.9-9.9 8.6-13.7 13.9-3.9 5.4-6.9 11.3-8.9 17.6 0 .1 0 .2-.1.2-1 2.1-3.1 3.5-5.4 3.7 7-29.8 33.8-52.1 65.7-52.1 31.9 0 58.7 22.3 65.7 52.1-.5.1-1.1-.1-1.6-.3zm-10.1 69v6.4h-7.7V86h7.7v43.2z"/>
  <ellipse cx="185.2" cy="165.8" fill="#FFF" rx="5.1" ry="5.1"/>
  <path fill="#FFF" d="M242 127V94.5c6.5 2.7 10.8 9.1 10.8 16.2s-4.2 13.6-10.8 16.3z"/>
  <path fill="#08618D" d="M97.9 103.7c-3.1 0-5.8 2.6-5.8 5.8v2.5H76.5c-3.1 0-5.8 2.6-5.8 5.8v29.6c0 3.1 2.6 5.8 5.8 5.8h4.1v7.4c0 1.4 1.1 2.5 2.5 2.5.5 0 1.1-.2 1.5-.5l12.5-9.4h20.5c2.8 0 5.1-2 5.6-4.6l7.7 5.8c1.1.8 2.6.6 3.5-.5.3-.4.5-1 .5-1.5V145h4.1c3.1 0 5.8-2.6 5.8-5.8v-29.6c0-3.1-2.6-5.8-5.8-5.8H97.9z"/>
  <path fill="#1DBFF0" d="M97.9 108.6H139c.5 0 .8.3.8.8V139c0 .5-.3.8-.8.8h-6.6c-1.4 0-2.5 1.1-2.5 2.5v4.9l-6.6-4.9v-24.7c0-3.1-2.6-5.8-5.8-5.8H97.1v-2.5c0-.3.3-.7.8-.7z"/>
  <path fill="#1DBFF0" d="M76.5 116.9h41.1c.5 0 .8.3.8.8v29.6c0 .5-.3.8-.8.8H96.3c-.5 0-1.1.2-1.5.5l-9.2 6.9v-4.9c0-1.4-1.1-2.5-2.5-2.5h-6.6c-.5 0-.8-.3-.8-.8v-29.6c0-.5.3-.8.8-.8z"/>
  <circle cx="85.6" cy="132.5" r="3.3" fill="#08618D"/>
  <circle cx="97.1" cy="132.5" r="3.3" fill="#08618D"/>
  <circle cx="108.6" cy="132.5" r="3.3" fill="#08618D"/>
</svg>
