<?xml version="1.0" encoding="utf-8"?>
<!-- Generator: Adobe Illustrator 20.1.0, SVG Export Plug-In . SVG Version: 6.00 Build 0)  -->
<svg version="1.1" id="Слой_1" xmlns="http://www.w3.org/2000/svg" xmlns:xlink="http://www.w3.org/1999/xlink" x="0px" y="0px"
	 viewBox="0 0 102 102" enable-background="new 0 0 102 102" xml:space="preserve">
<path fill="#FFFFFF" d="M22.5,102h57c12.4,0,22.5-10.1,22.5-22.5v-57C102,10.1,91.9,0,79.5,0h-57C10.1,0,0,10.1,0,22.5v57
	C0,91.9,10.1,102,22.5,102z"/>
<path fill="#08618D" d="M20.2,38.7h13.2v42.4H20.2V38.7z M26.8,17.7c4.2,0,7.6,3.4,7.6,7.6s-3.4,7.6-7.6,7.6s-7.6-3.4-7.6-7.6
	C19.1,21.1,22.5,17.7,26.8,17.7"/>
<path fill="#08618D" d="M41.6,38.7h12.6v5.8h0.2c1.8-3.3,6.1-6.8,12.5-6.8c13.3,0,15.8,8.8,15.8,20.2v23.2H69.5V60.5
	c0-4.9-0.1-11.2-6.8-11.2c-6.9,0-7.9,5.4-7.9,10.9v21H41.6V38.7z"/>
</svg>
