<?xml version="1.0" encoding="utf-8"?>
<!-- Generator: Adobe Illustrator 20.1.0, SVG Export Plug-In . SVG Version: 6.00 Build 0)  -->
<svg version="1.1" id="Слой_1" xmlns="http://www.w3.org/2000/svg" xmlns:xlink="http://www.w3.org/1999/xlink" x="0px" y="0px"
	 viewBox="0 0 67.8 67.8" enable-background="new 0 0 67.8 67.8" xml:space="preserve">
<path fill="#FFFFFF" d="M33.9,1.8C16.2,1.8,1.8,16.2,1.8,33.9S16.2,66,33.9,66S66,51.6,66,33.9S51.6,1.8,33.9,1.8z"/>
<path fill="#08618D" d="M33.9,15c6.3,0,11.5,5.4,11.5,12s-5.2,12-11.5,12s-11.5-5.4-11.5-12S27.6,15,33.9,15z"/>
<path fill="#08618D" d="M33.9,64.9c-8.1,0-15.8-3.1-21.6-8.8c5.9-7.9,13.6-12.2,21.6-12.2s15.7,4.3,21.6,12.2
	C49.7,61.8,42,64.9,33.9,64.9z"/>
<path fill="#FFFFFF" d="M33.9,67.8C15.2,67.8,0,52.6,0,33.9S15.2,0,33.9,0c18.7,0,33.9,15.2,33.9,33.9S52.6,67.8,33.9,67.8z
	 M33.9,2.9c-17.1,0-31,13.9-31,31s13.9,31,31,31c17.1,0,31-13.9,31-31S51,2.9,33.9,2.9z"/>
</svg>
