<?xml version="1.0" encoding="utf-8"?>
<!-- Generator: Adobe Illustrator 20.1.0, SVG Export Plug-In . SVG Version: 6.00 Build 0)  -->
<svg version="1.1" id="Слой_1" xmlns="http://www.w3.org/2000/svg" xmlns:xlink="http://www.w3.org/1999/xlink" x="0px" y="0px"
	 viewBox="0 0 90.6 74.2" enable-background="new 0 0 90.6 74.2" xml:space="preserve">
<g>
	<path fill="#FFFFFF" d="M33.8,11.5c-1.2,0-33,33.6-33,34.8l23.7,24.6c0,1.2,1.5-1.7,2.7-1.7h56.1c1.2,0,2.2-1,2.2-2.2l0.9-31.3
		c0-1.2-14.1-5.2-15.4-5.2l0.9-5.9l-26.1-24L33.8,11.5z"/>
	<path fill="#08618D" d="M83.3,29.7h-56c-4,0-7.2,3.2-7.2,7.2v30c0,4,3.2,7.2,7.2,7.2h56.1c4,0,7.2-3.2,7.2-7.2V37
		C90.6,33,87.3,29.7,83.3,29.7z M85.6,66.9c0,1.2-1,2.2-2.2,2.2H27.3c-1.2,0-2.2-1-2.2-2.2V37c0-1.2,1-2.2,2.2-2.2h56.1
		c1.2,0,2.2,1,2.2,2.2C85.6,37,85.6,66.9,85.6,66.9z"/>
	<g>
		<g>
			<polygon fill="#08618D" points="41.2,29.8 59.2,11.9 53,5.6 28.9,29.8 			"/>
			<polygon fill="#08618D" points="20.3,38.6 6.3,52.4 12.5,58.6 20.3,50.9 			"/>
		</g>
	</g>
	<g>
		<g>
			<polygon fill="#1DBFF0" points="53.5,29.8 57,26.2 55.2,24.5 50,29.8 			"/>
		</g>
	</g>
	<path fill="#08618D" d="M20.3,66.9v-2.4L3.7,48.1c-1.4-1.4-1.4-3.6,0-5L43.2,3.5c0.6-0.6,1.5-1,2.5-1c0.9,0,1.7,0.4,2.5,1
		l21.2,21.2c0.6,0.6,1,1.5,1,2.5c0,0.9-0.4,1.9-1,2.5v0.1h3c0.4-1.2,0.6-1.7,0.6-2.6c0-1.6-0.6-3.1-1.7-4.2L50.1,1.7
		C49,0.6,47.5,0,45.9,0s-3.1,0.6-4.2,1.7L1.8,41.3c-2.4,2.4-2.4,6.1,0,8.5l18.5,18.4C20.3,67.7,20.3,67.3,20.3,66.9z"/>
	<path fill="#1DBFF0" d="M80.2,46.1c0,0.9-0.6,1.5-1.5,1.5h-9.1c-0.9,0-1.5-0.6-1.5-1.5v-5.2c0-0.9,0.7-1.5,1.5-1.5h9.1
		c0.9,0,1.5,0.7,1.5,1.5V46.1z"/>
	<path fill="#1DBFF0" d="M39.1,50.2c0,0.6-0.5,1.1-1.1,1.1h-6.9c-0.6,0-1.1-0.5-1.1-1.1v-4c0-0.6,0.5-1.1,1.1-1.1H38
		c0.6,0,1.1,0.5,1.1,1.1V50.2z"/>
	<rect x="30.2" y="55.4" fill="#1DBFF0" width="8.7" height="2.5"/>
	<rect x="41.5" y="55.4" fill="#1DBFF0" width="8.7" height="2.5"/>
	<rect x="52.8" y="55.4" fill="#1DBFF0" width="8.5" height="2.5"/>
	<rect x="64" y="55.4" fill="#1DBFF0" width="8.7" height="2.5"/>
</g>
</svg>
