<?xml version="1.0" encoding="utf-8"?>
<!-- Generator: Adobe Illustrator 20.1.0, SVG Export Plug-In . SVG Version: 6.00 Build 0)  -->
<svg version="1.1" id="Слой_1" xmlns="http://www.w3.org/2000/svg" xmlns:xlink="http://www.w3.org/1999/xlink" x="0px" y="0px"
	 viewBox="0 0 121.3 121.2" enable-background="new 0 0 121.3 121.2" xml:space="preserve">
<path fill="#FFFFFF" d="M83.8,26h-45c-2.4,0-4.3,1.9-4.3,4.3v62.2c0,2.4,1.9,4.3,4.3,4.3h44.9c2.4,0,4.3-1.9,4.3-4.3V30.3
	C88.1,27.9,86.1,26,83.8,26z"/>
<path fill="#C5E6EF" d="M86.4,92.5c0,1.4-1.2,2.6-2.6,2.6h-45c-1.4,0-2.6-1.2-2.6-2.6V30.3c0-1.4,1.2-2.6,2.6-2.6h44.9
	c1.4,0,2.6,1.2,2.6,2.6L86.4,92.5L86.4,92.5z"/>
<path fill="#1DBFF0" d="M82,41.6H63c-0.5,0-0.9,0.4-0.9,0.9s0.4,0.9,0.9,0.9h19c0.5,0,0.9-0.4,0.9-0.9C82.9,41.9,82.5,41.6,82,41.6z
	"/>
<path fill="#1DBFF0" d="M63,50.2h13.8c0.5,0,0.9-0.4,0.9-0.9s-0.4-0.9-0.9-0.9H63c-0.5,0-0.9,0.4-0.9,0.9
	C62.2,49.8,62.5,50.2,63,50.2z"/>
<path fill="#1DBFF0" d="M63,32.9h13.8c0.5,0,0.9-0.4,0.9-0.9s-0.4-0.9-0.9-0.9H63c-0.5,0-0.9,0.4-0.9,0.9
	C62.2,32.5,62.5,32.9,63,32.9z"/>
<path fill="#1DBFF0" d="M80.3,45H63c-0.5,0-0.9,0.4-0.9,0.9s0.4,0.9,0.9,0.9h17.3c0.5,0,0.9-0.4,0.9-0.9S80.8,45,80.3,45z"/>
<circle fill="#1DBFF0" cx="63.9" cy="38.1" r="1.7"/>
<circle fill="#1DBFF0" cx="79.4" cy="38.1" r="1.7"/>
<circle fill="#1DBFF0" cx="74.3" cy="38.1" r="1.7"/>
<circle fill="#1DBFF0" cx="69.1" cy="38.1" r="1.7"/>
<path fill="#08618D" d="M39.3,51.2h18c0.5,0,0.8-0.4,0.8-0.8V32.2c0-0.5-0.4-0.8-0.8-0.8h-18c-0.5,0-0.8,0.3-0.8,0.8v18.2
	C38.5,50.8,38.8,51.2,39.3,51.2z M40.1,33h16.3v16.5h-1.7c-0.3-3-2.1-5.4-4.6-6.3c0.5-0.6,0.8-1.3,0.8-2.2c0-1.7-1.2-3.1-2.7-3.1
	s-2.7,1.5-2.7,3.2c0,0.9,0.3,1.6,0.8,2.2c-2.4,0.9-4.3,3.3-4.6,6.3h-1.6V33z"/>
<path fill="#1DBFF0" d="M49.2,76.1c5.3,0,9.5-4.3,9.5-9.5s-4.3-9.5-9.5-9.5v7.6v1.9h-9.5C39.7,71.9,43.9,76.1,49.2,76.1z"/>
<path fill="#08618D" d="M47.3,64.7v-7.4c-3.7,0.8-6.7,3.7-7.4,7.4H47.3z"/>
<path fill="#1DBFF0" d="M63.9,66.6h9.5v-9.5C68.1,57.1,63.9,61.4,63.9,66.6z"/>
<path fill="#1DBFF0" d="M66.3,74.5c1.5,1,3.3,1.6,5.2,1.6v-6.8L66.3,74.5z"/>
<path fill="#1DBFF0" d="M73.4,76.1c5.2,0,9.5-4.3,9.5-9.5h-9.5V76.1z"/>
<path fill="#08618D" d="M75.3,57.3v7.4h7.4C81.9,61,79,58.1,75.3,57.3z"/>
<path fill="#1DBFF0" d="M82,82.2H40.6c-0.5,0-0.9,0.4-0.9,0.9s0.4,0.9,0.9,0.9H82c0.5,0,0.9-0.4,0.9-0.9S82.5,82.2,82,82.2z"/>
<path fill="#1DBFF0" d="M82,85.6H40.6c-0.5,0-0.9,0.4-0.9,0.9s0.4,0.9,0.9,0.9H82c0.5,0,0.9-0.4,0.9-0.9S82.5,85.6,82,85.6z"/>
<path fill="#1DBFF0" d="M82,89.1H40.6c-0.5,0-0.9,0.4-0.9,0.9s0.4,0.9,0.9,0.9H82c0.5,0,0.9-0.4,0.9-0.9S82.5,89.1,82,89.1z"/>
</svg>
