<svg xmlns="http://www.w3.org/2000/svg" viewBox="0 0 266.5 242.4">
  <path fill="#08618D" d="M133.6 127.8V43.1c0-3.9-3.2-7.3-7.3-7.3H81.8c-3.9 0-7.3 3.2-7.3 7.3v84.7c0 3.9 3.2 7.3 7.3 7.3h44.5c4.1 0 7.3-3.4 7.3-7.3z"/>
  <path fill="#C5E6EF" d="M77.4 127.8V43.1c0-2.5 2-4.4 4.6-4.4h44.5c2.5 0 4.6 2 4.6 4.4v84.7c0 2.5-2 4.4-4.6 4.4H82c-2.6 0-4.6-1.9-4.6-4.4z"/>
  <path fill="#08618D" d="M120.3 97H87.9c-.7 0-1.4.5-1.4 1.4 0 .7.5 1.4 1.4 1.4h32.4c.7 0 1.4-.5 1.4-1.4 0-.9-.5-1.4-1.4-1.4zm0 10.3H87.9c-.7 0-1.4.5-1.4 1.4 0 .9.5 1.4 1.4 1.4h32.4c.7 0 1.4-.5 1.4-1.4 0-.9-.5-1.4-1.4-1.4zm0 10.3H87.9c-.7 0-1.4.5-1.4 1.4 0 .7.5 1.4 1.4 1.4h32.4c.7 0 1.4-.5 1.4-1.4s-.5-1.4-1.4-1.4zm125.3-96.8c-.3-1-1.1-2.1-2.3-2.1h-18.1c-1.1 0-2.3.9-2.3 2.3v76c0 1.1.9 2.3 2.3 2.3h18.1c1.1 0 2.3-.9 2.3-2.3V20.8z"/>
  <path fill="#C5E6EF" d="M226.4 95.8V22.3h15.5V31h-7.5c-.7 0-1.4.5-1.4 1.4 0 .7.5 1.4 1.4 1.4h7.5v10.7h-5c-.7 0-1.4.5-1.4 1.4 0 .7.5 1.4 1.4 1.4h5V58h-7.5c-.7 0-1.4.5-1.4 1.4 0 .7.5 1.4 1.4 1.4h7.5v10.7h-5c-.7 0-1.4.5-1.4 1.4 0 .7.5 1.4 1.4 1.4h5V85h-7.5c-.7 0-1.4.5-1.4 1.4 0 .7.5 1.4 1.4 1.4h7.5v8.7h-15.5v-.7z"/>
  <path fill="#08618D" d="M115.5 151.1h46.2c1.1 0 2.3-.9 2.3-2.3s-1.2-2.3-2.3-2.3h-46.2c-1.1 0-2.3.9-2.3 2.3-.1 1.3.9 2.3 2.3 2.3zm48.5 10.3c-.3-1.3-1.2-2.1-2.3-2.1h-46.2c-1.1 0-2.3.9-2.3 2.3 0 1.1.9 2.3 2.3 2.3h46.2c1.1 0 2.3-.9 2.3-2.5zM145 55.9h46.2c1.1 0 2.3-.9 2.3-2.3s-1.2-2.3-2.3-2.3H145c-1.1 0-2.3.9-2.3 2.3s.9 2.3 2.3 2.3zm48.6 10.3c-.3-1.3-1.2-2.1-2.3-2.1H145c-1.1 0-2.3.9-2.3 2.3 0 1.1.9 2.3 2.3 2.3h46.2c1.2 0 2.4-.8 2.4-2.5zM145 81.7h46.2c1.1 0 2.3-.9 2.3-2.3s-1.2-2.3-2.3-2.3H145c-1.1 0-2.3.9-2.3 2.3s.9 2.3 2.3 2.3zM193.6 92c-.3-1.3-1.2-2.1-2.3-2.1H145c-1.1 0-2.3.9-2.3 2.3 0 1.1.9 2.3 2.3 2.3h46.2c1.2 0 2.4-.9 2.4-2.5zm-31.9 79.9h-39.1c-1.1 0-2.3.9-2.3 2.3 0 1.1.9 2.3 2.3 2.3h39.1c1.1 0 2.3-.9 2.3-2.3v-.2c-.3-1-1.1-2.1-2.3-2.1z"/>
  <path fill="#08618D" d="M240.3 142.7h-40v-3.2c0-.9-.6-1.8-1.5-2.1-1.4-.5-2.1.2-2.3.6L184 150.4c-.9.9-.9 2.3 0 3.2l12.5 12.5c.4.4 1 .6 1.5.6.2 0 .6 0 1-.3.8-.3 1.3-1.1 1.3-2v-3.2h10.3v23.7h-32.2c-1.1 0-2.3.9-2.3 2.3V219H66.6c-4.5 0-8.2-3.7-8.2-8.2v-52.3l32.8 32.8.7.7 18.8 7.3.9.1c.5 0 1.1-.2 1.5-.6.6-.6.8-1.5.6-2.4l-7.1-18.6c-.2-.4-.4-.6-.6-.8-.1-.2-.3-.4-.5-.5l-47.1-47.2V32.1c0-4.5 3.7-8.2 8.2-8.2h135.5c4.5 0 8.2 3.7 8.2 8.2v82.5h-24.4c-1.1 0-2.3.9-2.3 2.3v14c0 1.1.9 2.3 2.3 2.3h40v3.2c0 .9.6 1.8 1.5 2.1h.2c.1.1.4.2.7.2.5 0 1.1-.2 1.5-.6l12.4-12.4c.4-.4.6-1 .6-1.5s-.2-1.1-.6-1.5l-12.3-12.8c-.6-.6-1.5-.8-2.3-.6-.9.3-1.5 1.2-1.5 2.1v3.2h-11.4V32.1c0-6.8-5.8-12.6-12.6-12.6H66.6c-6.8 0-12.6 5.8-12.6 12.6v92.8l-15.4-15.4c-2-2-4.6-3.1-7.4-3.1-2.6 0-5.2 1.1-7.2 3.1s-3.1 4.6-3.1 7.3 1.1 5.3 3.1 7.3l30.1 30.2V211c0 6.8 5.8 12.6 12.6 12.6h112.4c.5 0 .9-.4 1.2-.6l34.1-34c.6-.6.8-1.5.6-2.2v-25.4h25.3c1.1 0 2.3-.9 2.3-2.3v-14c0-1.2-.9-2.4-2.3-2.4z"/>
  <path fill="#1DBFF0" d="M197.6 157.8c-.7 0-1.4.5-1.4 1.4v2.1l-9.2-9.2 9.2-9.2v2.1c0 .4.2.7.4.9.2.2.5.4.9.4h40.9v11.4h-40.7v.1zm-17.8 30.8h29.4l-29.5 29.5v-29.5M33.63 128.867l9.616-9.617 3.535 3.536-9.614 9.616z"/>
  <path fill="#FFF" d="M26.2 111.8c1.2-1.2 3-2 4.8-2 1.8 0 3.6.7 4.8 2l5.5 5.5-9.6 9.6-5.5-5.5c-2.7-2.7-2.7-7 0-9.6z"/>
  <path fill="#1DBFF0" d="M109.4 194.8L95 189.3l8.9-8.9"/>
  <path fill="#FFF" d="M38.993 134.104l9.617-9.617 53.74 53.74-9.617 9.617z"/>
  <path fill="#1DBFF0" d="M229.6 132.9v-2.1c0-.4-.2-.7-.4-.9-.2-.2-.5-.4-.9-.4h-40.9v-11.4h40.9c.7 0 1.4-.5 1.4-1.4v-2.1l9.2 9.2-9.3 9.1z"/>
  <path fill="#08618D" d="M122.8 81.9v-.2c-.5-1.6-.9-3-1.4-4.4-1.2-3.9-4.8-6.2-9.2-5.9h-1.6v-3.9c1.1-1.1 2.1-2.5 2.7-4.3 1.2-.4 2-2.1 2-4.3 0-1.6-.5-3-1.2-3.7.2-.9.2-1.8.4-2.8.4-5.3-1.2-6.2-4.1-6.9h-.5c-2-.7-4.1-.9-5.5-.9-1.4 0-3.6.2-5.5.9l-.9.1c-2.7.9-4.3 1.8-4.1 6.9 0 .9.2 1.8.4 2.8-.7.7-1.2 2.1-1.2 3.7 0 2.1.9 3.7 2 4.3.7 1.8 1.6 3.2 2.7 4.3v3.9h-1.6c-4.4-.4-8 2-9.2 5.7-.5 1.4-.9 2.8-1.4 4.4v1l.2.2.2.2.2.2.2.2h35s.2 0 .2-.2c0 0 .2 0 .2-.2l.2-.2.2-.2V82c.6.1.6-.1.6-.1zM97.5 61.8c-.2-.4-.4-.7-.7-.9-.2 0-.4-.2-.5-.2-.2-.4-.4-.9-.4-1.6 0-.9.2-1.6.4-1.8.5-.2.7-.7.9-1.2v-.6c-.2-1.1-.2-2.1-.4-3-.2-3.6.2-3.7 2.1-4.3l.5-.2c1.4-.4 3-.7 4.6-.7 1.8 0 3.4.2 4.6.7l.5.2c2 .5 2.3.7 2.1 4.3 0 1.1-.2 2.1-.4 3v.7c0 .5.4.9.9 1.1.2.2.4.9.4 1.8 0 .7-.2 1.4-.4 1.6-.2 0-.4 0-.5.2-.4.2-.5.5-.7.9-1.1 3.6-3.7 5.9-6.8 5.9-2.5 0-5.1-2.4-6.2-5.9zm-8 16.2c.9-2.7 3.4-4.1 6.6-3.9.9 0 1.8.2 2.7.2.4 0 .5 0 .7-.2.7 0 1.2-.7 1.2-1.2v-3.2c1.1.5 2.3.9 3.6.9 1.2 0 2.5-.4 3.6-.9v3.2c0 .5.4 1.1 1.1 1.2.2.2.5.2.9.2.9 0 1.8 0 2.7-.2 3.2-.2 5.7 1.2 6.6 3.9.4.9.5 1.8.9 2.7H88.8c.2-1 .5-1.8.7-2.7z"/>
</svg>
