<?xml version="1.0" encoding="utf-8"?>
<!-- Generator: Adobe Illustrator 20.1.0, SVG Export Plug-In . SVG Version: 6.00 Build 0)  -->
<svg version="1.1" id="Слой_1" xmlns="http://www.w3.org/2000/svg" xmlns:xlink="http://www.w3.org/1999/xlink" x="0px" y="0px"
	 viewBox="0 0 112.1 90.3" enable-background="new 0 0 112.1 90.3" xml:space="preserve">
<path fill="#08618D" d="M3.8,0C1.7,0,0,1.7,0,3.8v82.8c0,2.1,1.7,3.8,3.8,3.8H93c0.3,0,0.7-0.1,0.9-0.4l17.8-17.6
	c0.2-0.2,0.4-0.5,0.4-0.9V3.8c0-2.1-1.7-3.8-3.8-3.8H3.8z"/>
<path fill="#1DBFF0" d="M3.8,2.5h104.4c0.7,0,1.3,0.5,1.3,1.3v21.3H2.5V3.8C2.5,3,3.1,2.5,3.8,2.5z"/>
<ellipse fill="#08618D" cx="26.7" cy="13.8" rx="5.1" ry="5"/>
<ellipse fill="#08618D" cx="85.3" cy="13.8" rx="5.1" ry="5"/>
<path fill="#FFFFFF" d="M2.5,27.6h107v42.6h-14c-2.1,0-3.8,1.7-3.8,3.8v13.8H3.8c-0.7,0-1.3-0.5-1.3-1.3V27.6z"/>
<polygon fill="#08618D" points="14,36.4 14,79 77.7,79 77.7,58.9 98.1,58.9 98.1,36.4 "/>
<rect x="16.6" y="38.9" fill="#FFFFFF" width="17.8" height="17.6"/>
<rect x="36.9" y="38.9" fill="#FFFFFF" width="17.8" height="17.6"/>
<rect x="57.3" y="38.9" fill="#FFFFFF" width="17.8" height="17.6"/>
<rect x="77.7" y="38.9" fill="#1DBFF0" width="17.8" height="17.6"/>
<rect x="16.6" y="58.9" fill="#FFFFFF" width="17.8" height="17.6"/>
<rect x="36.9" y="58.9" fill="#1DBFF0" width="17.8" height="17.6"/>
<rect x="57.3" y="58.9" fill="#FFFFFF" width="17.8" height="17.6"/>
<path fill="#FFFFFF" d="M95.5,72.7h12.2L94.2,86V74C94.2,73.3,94.8,72.7,95.5,72.7z"/>
</svg>
