<?xml version="1.0" encoding="utf-8"?>
<!-- Generator: Adobe Illustrator 20.1.0, SVG Export Plug-In . SVG Version: 6.00 Build 0)  -->
<svg version="1.1" id="Слой_1" xmlns="http://www.w3.org/2000/svg" xmlns:xlink="http://www.w3.org/1999/xlink" x="0px" y="0px"
	 viewBox="0 0 79.5 81.5" enable-background="new 0 0 79.5 81.5" xml:space="preserve">
<path fill="#08618D" d="M79.5,31.8c0-0.6-0.2-1.2-0.8-1.6L65.5,19.9V12c0-2.2-1.8-4-4-4h-11L41,0.5c-0.8-0.6-1.8-0.6-2.4,0L28.8,8
	H17.9c-2.2,0-4,1.8-4,4v7.5l0,0L0.8,29.6C0.2,29.8,0,30.4,0,31.2c0,0.2,0,0.4,0.2,0.6H0v47.7c0,1.2,0.8,2,2,2h2h71.5h2
	c1.2,0,2-0.8,2-2V31.8L79.5,31.8z"/>
<polygon fill="#C5E6EF" points="75.5,76.9 46.1,54.1 65.5,41.8 65.5,41.8 65.5,41.8 75.5,35.4 "/>
<polygon fill="#C5E6EF" points="74.1,31.6 65.5,37 65.5,24.9 "/>
<polygon fill="#C5E6EF" points="39.7,4.6 44.1,8 35.4,8 "/>
<path fill="#FFFFFF" d="M61.6,12v27.6L42.7,51.5l-1.8-1.4c-0.8-0.6-1.8-0.6-2.4,0l-1.6,1.2L17.9,39V12H61.6z"/>
<polygon fill="#C5E6EF" points="4,34.8 33.6,54.1 4,76.9 "/>
<polygon fill="#C5E6EF" points="13.9,24.5 13.9,36.6 5.4,31 "/>
<polygon fill="#C5E6EF" points="9.7,77.5 39.7,54.3 69.7,77.5 "/>
<rect x="27.8" y="19.9" fill="#1DBFF0" width="23.8" height="4"/>
<rect x="27.8" y="29.8" fill="#1DBFF0" width="23.8" height="4"/>
<rect x="27.8" y="39.8" fill="#1DBFF0" width="23.8" height="4"/>
</svg>
