<?xml version="1.0" encoding="utf-8"?>
<!-- Generator: Adobe Illustrator 20.1.0, SVG Export Plug-In . SVG Version: 6.00 Build 0)  -->
<svg version="1.1" id="Слой_1" xmlns="http://www.w3.org/2000/svg" xmlns:xlink="http://www.w3.org/1999/xlink" x="0px" y="0px"
	 viewBox="0 0 214 196.2" enable-background="new 0 0 214 196.2" xml:space="preserve">
<path fill="#08618D" d="M191.7,196.2c-1.1,0-2.1-0.4-3-1.1l-23.8-21.2H13.4c-7.4,0-13.4-6-13.4-13.4V62.4C0,55,6,49,13.4,49h187.3
	c7.4,0,13.4,6,13.4,13.4v98.1c0,7.4-6,13.4-13.4,13.4h-4.5v17.8c0,1.8-1,3.3-2.6,4.1C192.9,196,192.3,196.2,191.7,196.2z"/>
<path fill="#C5E6EF" d="M13.4,58c-2.5,0-4.5,2-4.5,4.5v98.1c0,2.5,2,4.5,4.5,4.5h153.3c1.1,0,2.1,0.4,3,1.1l17.7,15.7v-12.4
	c0-2.5,2-4.5,4.5-4.5h8.9c2.5,0,4.5-2,4.5-4.5V62.4c0-2.5-2-4.5-4.5-4.5H13.4z"/>
<path fill="#08618D" d="M52,82.3h110c2.6,0,5.5-2.2,5.5-5.7s-2.9-5.7-5.5-5.7H52c-2.6,0-5.5,2.2-5.5,5.7S48.7,82.3,52,82.3z"/>
<path fill="#08618D" d="M167.8,108c-0.7-3.2-2.9-5.2-5.5-5.2H52c-2.6,0-5.5,2.2-5.5,5.7c0,2.7,2.1,5.7,5.5,5.7h110
	C164.9,114.2,167.8,112.2,167.8,108z"/>
<path fill="#08618D" d="M52,146.7h110c2.6,0,5.5-2.2,5.5-5.7c0-3.5-2.9-5.7-5.5-5.7H52c-2.6,0-5.5,2.2-5.5,5.7
	C46.5,144.5,48.7,146.7,52,146.7z"/>
<path fill="#08618D" d="M196.2,0h-107H71.3H35.1c-0.8,0-1.6,0.2-2.3,0.7L15.6,11.2c-0.8,0.5-1.5,1.3-1.8,2.2H4.5
	c-2.5,0-4.5,2-4.5,4.5s2,4.5,4.5,4.5h9.4c0.3,0.9,1,1.7,1.8,2.2L32.8,35c0.7,0.4,1.5,0.7,2.3,0.7h36.2h17.8h107
	c9.8,0,17.8-8,17.8-17.8S206,0,196.2,0z"/>
<polygon fill="#1DBFF0" points="22.4,18.2 22.4,17.5 36.4,8.9 66.9,8.9 66.9,26.8 36.4,26.8 "/>
<rect x="75.8" y="8.9" fill="#1DBFF0" width="8.9" height="17.8"/>
<path fill="#C5E6EF" d="M196.2,26.8H93.6V8.9h102.5c4.9,0,8.9,4,8.9,8.9S201.1,26.8,196.2,26.8z"/>
</svg>
